<svg xmlns="http://www.w3.org/2000/svg" viewBox="0 0 32 32"><title>Artboard-17</title><g id="Shopping"><path d="M3,23H27a1,1,0,0,0,.9614-.7251l4-14A1,1,0,0,0,31,7H6.8672L5.99.8584A1,1,0,0,0,5,0H1A1,1,0,0,0,1,2H4.1328c.2606,1.8249,2.44,17.076,2.7144,19H3a3,3,0,0,0,0,6H5.3511A3.46,3.46,0,0,0,5,28.5a3.5,3.5,0,0,0,7,0,3.46,3.46,0,0,0-.3511-1.5h7.7022A3.46,3.46,0,0,0,19,28.5a3.5,3.5,0,0,0,7,0,3.46,3.46,0,0,0-.3511-1.5H30a1,1,0,0,0,0-2H3a1,1,0,0,1,0-2ZM7.1528,9H29.6743L26.2456,21H8.8672ZM10,28.5A1.5,1.5,0,1,1,8.5,27,1.5017,1.5017,0,0,1,10,28.5Zm14,0A1.5,1.5,0,1,1,22.5,27,1.5017,1.5017,0,0,1,24,28.5Z" style="fill:#fff"/></g></svg>