<?xml version="1.0" encoding="utf-8"?>
<!-- Generator: Adobe Illustrator 24.2.1, SVG Export Plug-In . SVG Version: 6.00 Build 0)  -->
<svg version="1.1" id="icons" xmlns="http://www.w3.org/2000/svg" xmlns:xlink="http://www.w3.org/1999/xlink" x="0px" y="0px"
	 viewBox="0 0 256 256" style="enable-background:new 0 0 256 256;" xml:space="preserve">
<style type="text/css">
	.st0{fill:none;stroke:#3D5A80;stroke-width:7;stroke-linecap:round;stroke-miterlimit:10;}
</style>
<g>
	<polyline class="st0" points="80.38,244.05 97.58,150.79 103.59,111.58 98.33,77.4 29.53,79.52 	"/>
	<polyline class="st0" points="178.65,244.05 161.46,150.79 155.42,109.67 160.7,77.4 226.47,79.52 	"/>
	<line class="st0" x1="100.12" y1="244.05" x2="129.44" y2="147.63"/>
	<line class="st0" x1="159.36" y1="244.05" x2="130.99" y2="147.63"/>
	<polyline class="st0" points="29.53,66.91 98.33,55.95 157.67,55.95 226.47,66.91 	"/>
	<circle class="st0" cx="128.34" cy="29.45" r="17.5"/>
	<path id="XMLID_152_" class="st0" d="M147.67,82.89c-0.55-2.72-2.78-4.9-5.51-5.38c-2.42-0.42-4.65,0.41-6.17,1.97
		c-1.53-1.56-3.78-2.4-6.22-1.96c-2.71,0.49-4.92,2.66-5.46,5.36c-0.48,2.41,0.3,4.65,1.79,6.2l9.74,9.69
		c0.07,0.07,0.18,0.07,0.25,0l9.69-9.69c0.68-0.68,1.27-1.47,1.61-2.37C147.81,85.54,147.94,84.24,147.67,82.89z"/>
</g>
</svg>
