<svg id="_01-Confounded_Face" data-name="01-Confounded Face" xmlns="http://www.w3.org/2000/svg" xmlns:xlink="http://www.w3.org/1999/xlink" viewBox="0 0 64 64"><defs><linearGradient id="linear-gradient" x1="32" y1="1.304" x2="32" y2="63.304" gradientUnits="userSpaceOnUse"><stop offset="0" stop-color="#ffe100"/><stop offset="1" stop-color="#f98900"/></linearGradient><radialGradient id="radial-gradient" cx="43.776" cy="10.411" r="5.699" gradientUnits="userSpaceOnUse"><stop offset="0.005" stop-color="#414d4d"/><stop offset="0.206" stop-color="#3a4545"/><stop offset="0.522" stop-color="#272e2e"/><stop offset="0.914" stop-color="#080909"/><stop offset="1"/></radialGradient><radialGradient id="radial-gradient-2" cx="20.224" cy="10.411" r="5.699" xlink:href="#radial-gradient"/><linearGradient id="linear-gradient-2" x1="18.33" y1="36.47" x2="45.67" y2="36.47" gradientUnits="userSpaceOnUse"><stop offset="0" stop-color="#b8b4b2"/><stop offset="0.143" stop-color="#d0ccc9"/><stop offset="0.374" stop-color="#f2edea"/><stop offset="0.5" stop-color="#fffaf6"/><stop offset="0.638" stop-color="#f9f5f1"/><stop offset="0.825" stop-color="#e8e5e3"/><stop offset="1" stop-color="#d1d1d1"/></linearGradient><linearGradient id="linear-gradient-3" x1="32" y1="47.038" x2="32" y2="35.193" gradientUnits="userSpaceOnUse"><stop offset="0" stop-color="#69101b"/><stop offset="0.427" stop-color="#400a10"/></linearGradient><linearGradient id="linear-gradient-4" x1="32.078" y1="34.189" x2="32.022" y2="37.621" gradientUnits="userSpaceOnUse"><stop offset="0" stop-color="#ababab" stop-opacity="0.5"/><stop offset="0.541" stop-color="#c1c1c1" stop-opacity="0.216"/><stop offset="1" stop-color="#d1d1d1" stop-opacity="0"/></linearGradient></defs><path d="M32,63C4.3,63,.962,39,1,33V31C.962,25,4.3,1,32,1h0C59.7,1,63.038,25,63,31v2C63.038,39,59.7,63,32,63Z" style="fill:url(#linear-gradient)"/><path d="M50,19s-1.159.193-2.756.579C48.739,18.663,50,18,50,18s-12,2-12,6a2,2,0,0,0,.071.5A2,2,0,0,0,38,25c0,4,12,6,12,6s-1.261-.663-2.756-1.579C48.841,29.807,50,30,50,30s-6.488-3.4-7.493-5.5C43.512,22.4,50,19,50,19Z" style="fill:#f99c06"/><path d="M14,18s1.261.663,2.756,1.579C15.159,19.193,14,19,14,19s6.488,3.4,7.493,5.5C20.488,26.6,14,30,14,30s1.159-.193,2.756-.579C15.261,30.337,14,31,14,31s12-2,12-6a2,2,0,0,0-.071-.5A2,2,0,0,0,26,24C26,20,14,18,14,18Z" style="fill:#f99c06"/><path d="M50,18s-12,2-12,6,12,6,12,6-7.636-4-7.636-6S50,18,50,18Z" style="fill:#472301"/><path d="M14,18s12,2,12,6-12,6-12,6,7.636-4,7.636-6S14,18,14,18Z" style="fill:#472301"/><path d="M51,12.983a1.007,1.007,0,0,0-.983-1c-7.364-.254-10.574-3.334-11.665-4.745a1,1,0,0,0-1.248-.3.983.983,0,0,0-.394,1.39.973.973,0,0,0,.049,1.106c1.368,1.765,5.092,5.272,13.223,5.544a1,1,0,0,0,1.018-1,.959.959,0,0,0-.154-.5A.982.982,0,0,0,51,12.983Z" style="fill:#f99c06"/><path d="M26.9,6.943a1,1,0,0,0-1.248.3c-1.091,1.411-4.3,4.491-11.665,4.745a1.007,1.007,0,0,0-.983,1,.982.982,0,0,0,.154.5.959.959,0,0,0-.154.5,1,1,0,0,0,1.018,1c8.131-.272,11.855-3.779,13.223-5.544a.973.973,0,0,0,.049-1.106A.983.983,0,0,0,26.9,6.943Z" style="fill:#f99c06"/><path d="M51,12.983a1,1,0,0,1-1.019,1c-8.13-.272-11.854-3.779-13.222-5.544a1,1,0,0,1,.345-1.5h0a1,1,0,0,1,1.248.3c1.091,1.411,4.3,4.491,11.665,4.745a1.007,1.007,0,0,1,.983,1Z" style="fill:url(#radial-gradient)"/><path d="M13,12.983h0a1.007,1.007,0,0,1,.983-1c7.364-.254,10.574-3.334,11.665-4.745a1,1,0,0,1,1.248-.3h0a1,1,0,0,1,.345,1.5c-1.368,1.765-5.092,5.272-13.222,5.544A1,1,0,0,1,13,12.983Z" style="fill:url(#radial-gradient-2)"/><path d="M49,46a13.141,13.141,0,0,0-3.33-8.06C43.27,35.29,39.13,33,32,33s-11.27,2.29-13.67,4.94a11.947,11.947,0,0,0-1.21,1.56A13.114,13.114,0,0,0,15,46a2.931,2.931,0,0,0,.039.388C15,46.774,15,47,15,47a3,3,0,0,0,3,3h.48a2.83,2.83,0,0,0,.95-.16,28.86,28.86,0,0,1,3.63-.96v-.01a46.368,46.368,0,0,1,17.88,0v.01a28.86,28.86,0,0,1,3.63.96,2.83,2.83,0,0,0,.95.16H46a3,3,0,0,0,3-3s0-.229-.039-.612A3.09,3.09,0,0,0,49,46Z" style="fill:#f99406"/><path d="M49,47a13.141,13.141,0,0,0-3.33-8.06C43.27,36.29,39.13,34,32,34s-11.27,2.29-13.67,4.94a11.947,11.947,0,0,0-1.21,1.56A13.114,13.114,0,0,0,15,47a2.931,2.931,0,0,0,.039.388C15,47.774,15,48,15,48a3,3,0,0,0,3,3h.48a2.83,2.83,0,0,0,.95-.16,28.86,28.86,0,0,1,3.63-.96v-.01a46.368,46.368,0,0,1,17.88,0v.01a28.86,28.86,0,0,1,3.63.96,2.83,2.83,0,0,0,.95.16H46a3,3,0,0,0,3-3s0-.229-.039-.612A3.09,3.09,0,0,0,49,47Z" style="fill:#f9bf06"/><path d="M45.67,38.94A83.518,83.518,0,0,0,32,38a83.518,83.518,0,0,0-13.67.94C20.73,36.29,24.87,34,32,34S43.27,36.29,45.67,38.94Z" style="fill:url(#linear-gradient-2)"/><path d="M40.94,48.87a46.368,46.368,0,0,0-17.88,0C23.44,48.08,25.68,44,32,44S40.56,48.08,40.94,48.87Z" style="fill:#8f030e"/><path d="M49,47a3,3,0,0,1-3,3h-.48a2.83,2.83,0,0,1-.95-.16,28.86,28.86,0,0,0-3.63-.96v-.01C40.56,48.08,38.32,44,32,44s-8.56,4.08-8.94,4.87v.01a28.86,28.86,0,0,0-3.63.96,2.83,2.83,0,0,1-.95.16H18a3,3,0,0,1-3-3,13.114,13.114,0,0,1,2.12-6.5,11.947,11.947,0,0,1,1.21-1.56A83.518,83.518,0,0,1,32,38a83.518,83.518,0,0,1,13.67.94A13.141,13.141,0,0,1,49,47Z" style="fill:url(#linear-gradient-3)"/><path d="M45.67,38.94A83.518,83.518,0,0,0,32,38a83.518,83.518,0,0,0-13.67.94C20.73,36.29,24.87,34,32,34S43.27,36.29,45.67,38.94Z" style="fill:url(#linear-gradient-4)"/></svg>