<svg xmlns="http://www.w3.org/2000/svg" xmlns:xlink="http://www.w3.org/1999/xlink" viewBox="0 0 64 64"><defs><linearGradient id="linear-gradient" x1="32" y1="1.304" x2="32" y2="63.304" gradientUnits="userSpaceOnUse"><stop offset="0" stop-color="#ffe100"/><stop offset="1" stop-color="#f98900"/></linearGradient><linearGradient id="linear-gradient-2" x1="55" y1="1.225" x2="55" y2="20.742" gradientUnits="userSpaceOnUse"><stop offset="0" stop-color="#6073ff"/><stop offset="0.114" stop-color="#586aeb"/><stop offset="0.393" stop-color="#4856bf"/><stop offset="0.644" stop-color="#3c489f"/><stop offset="0.855" stop-color="#353f8c"/><stop offset="1" stop-color="#323c85"/></linearGradient><linearGradient id="linear-gradient-3" x1="41" y1="6.259" x2="41" y2="15.936" xlink:href="#linear-gradient-2"/><linearGradient id="linear-gradient-4" x1="31" y1="9.1" x2="31" y2="16.747" xlink:href="#linear-gradient-2"/><linearGradient id="linear-gradient-5" x1="32" y1="54.944" x2="32" y2="43.32" gradientUnits="userSpaceOnUse"><stop offset="0" stop-color="#911625"/><stop offset="0.587" stop-color="#630f19"/><stop offset="1" stop-color="#400a10"/></linearGradient><linearGradient id="linear-gradient-6" x1="45" y1="34.019" x2="45" y2="30.359" gradientUnits="userSpaceOnUse"><stop offset="0" stop-color="#803f02"/><stop offset="0.174" stop-color="#6d3602"/><stop offset="0.515" stop-color="#4d2601"/><stop offset="0.802" stop-color="#3a1c01"/><stop offset="1" stop-color="#331901"/></linearGradient><linearGradient id="linear-gradient-7" x1="19" y1="33.925" x2="19" y2="30.137" xlink:href="#linear-gradient-6"/></defs><g id="_02-Sleepy_Face" data-name="02-Sleepy Face"><path d="M32,63C4.3,63,.962,39,1,33V31C.962,25,4.3,1,32,1h0C59.7,1,63.038,25,63,31v2C63.038,39,59.7,63,32,63Z" style="fill:url(#linear-gradient)"/><polygon points="48 1 48 5 58 5 47 19 47 21 63 21 63 17 54 17 63 5 63 1 48 1" style="fill:url(#linear-gradient-2)"/><path d="M47,21v1H61.587c-.1-.33-.2-.663-.309-1Z" style="fill:#f99c06"/><path d="M44,6H37V9h4.586l-4.293,4.293A1,1,0,0,0,37,14v2a1,1,0,0,0,1,1h7V14H40.414l4.293-4.293A1,1,0,0,0,45,9V7A1,1,0,0,0,44,6Z" style="fill:#f99c06"/><path d="M33.25,9H28v3h2.586l-2.543,2.543a1,1,0,0,0-.293.707V16a1.008,1.008,0,0,0,.025.124.906.906,0,0,0-.025.126V17a1,1,0,0,0,1,1H34V15H31.414l2.543-2.543a1,1,0,0,0,.293-.707V11a1.008,1.008,0,0,0-.025-.124.906.906,0,0,0,.025-.126V10A1,1,0,0,0,33.25,9Z" style="fill:#f99c06"/><path d="M45,16H38a1,1,0,0,1-1-1V14a1,1,0,0,1,.293-.707L42.586,8H37V6h7a1,1,0,0,1,1,1V8a1,1,0,0,1-.293.707L39.414,14H45Z" style="fill:url(#linear-gradient-3)"/><path d="M34,17H28.75a1,1,0,0,1-1-1v-.75a1,1,0,0,1,.293-.707L31.586,11H28V9h5.25a1,1,0,0,1,1,1v.75a1,1,0,0,1-.293.707L30.414,15H34Z" style="fill:url(#linear-gradient-4)"/><path d="M37,50a5,5,0,0,0-10,0c0,.171.034.333.05.5-.016.167-.05.329-.05.5a5,5,0,0,0,10,0c0-.171-.034-.333-.05-.5C36.966,50.333,37,50.171,37,50Z" style="fill:#f9bf06"/><path d="M37,49a5,5,0,0,0-10,0c0,.171.034.333.05.5-.016.167-.05.329-.05.5a5,5,0,0,0,10,0c0-.171-.034-.333-.05-.5C36.966,49.333,37,49.171,37,49Z" style="fill:#ed8d06"/><circle cx="32" cy="50" r="5" style="fill:url(#linear-gradient-5)"/><path d="M50.258,29.341A18.66,18.66,0,0,1,45,30a18.66,18.66,0,0,1-5.258-.659.991.991,0,0,0-1.13,1.453.958.958,0,0,0,.072,1.126,8.016,8.016,0,0,0,12.632,0,.958.958,0,0,0,.072-1.126A.991.991,0,0,0,50.258,29.341Z" style="fill:#f99c06"/><path d="M24.258,29.341A18.66,18.66,0,0,1,19,30a18.66,18.66,0,0,1-5.258-.659.991.991,0,0,0-1.13,1.453.958.958,0,0,0,.072,1.126,8.016,8.016,0,0,0,12.632,0,.958.958,0,0,0,.072-1.126A.991.991,0,0,0,24.258,29.341Z" style="fill:#f99c06"/><g style="opacity:0.98"><path d="M38.684,30.92a1,1,0,0,1,1.059-1.579A18.646,18.646,0,0,0,45,30a18.646,18.646,0,0,0,5.257-.659,1,1,0,0,1,1.059,1.579,8.016,8.016,0,0,1-12.632,0Z" style="fill:url(#linear-gradient-6)"/><path d="M12.684,30.92a1,1,0,0,1,1.059-1.579A18.646,18.646,0,0,0,19,30a18.646,18.646,0,0,0,5.257-.659,1,1,0,0,1,1.059,1.579,8.016,8.016,0,0,1-12.632,0Z" style="fill:url(#linear-gradient-7)"/></g></g></svg>