<svg xmlns="http://www.w3.org/2000/svg" xmlns:xlink="http://www.w3.org/1999/xlink" viewBox="0 0 64 64"><defs><linearGradient id="linear-gradient" x1="32" y1="1.304" x2="32" y2="63.304" gradientUnits="userSpaceOnUse"><stop offset="0" stop-color="#ffe100"/><stop offset="1" stop-color="#f98900"/></linearGradient><linearGradient id="linear-gradient-2" x1="43" y1="28.963" x2="43" y2="20.906" gradientUnits="userSpaceOnUse"><stop offset="0" stop-color="#803f02"/><stop offset="0.174" stop-color="#6d3602"/><stop offset="0.515" stop-color="#4d2601"/><stop offset="0.802" stop-color="#3a1c01"/><stop offset="1" stop-color="#331901"/></linearGradient><linearGradient id="linear-gradient-3" x1="21" y1="28.963" x2="21" y2="20.906" xlink:href="#linear-gradient-2"/><linearGradient id="linear-gradient-4" x1="32" y1="47.725" x2="32" y2="41.929" gradientUnits="userSpaceOnUse"><stop offset="0" stop-color="#911625"/><stop offset="0.587" stop-color="#630f19"/><stop offset="1" stop-color="#400a10"/></linearGradient></defs><g id="_04-Grinning_Face_with_Smiling_Eyes" data-name="04-Grinning Face with Smiling Eyes"><path d="M32,63C4.3,63,.962,39,1,33V31C.962,25,4.3,1,32,1h0C59.7,1,63.038,25,63,31v2C63.038,39,59.7,63,32,63Z" style="fill:url(#linear-gradient)"/><path d="M48,26.5c0-3-2-6-5-6s-5,3-5,6c0,.181.014.332.021.5-.013.167-.021.335-.021.5,0,3,1,4,1,4s1-6,4-6,4,6,4,6,1-1,1-4c0-.167-.008-.335-.021-.5C47.986,26.832,48,26.681,48,26.5Z" style="fill:#ed8d06"/><path d="M21,20.5c-3,0-5,3-5,6,0,.181.014.332.021.5-.013.167-.021.335-.021.5,0,3,1,4,1,4s1-6,4-6,4,6,4,6,1-1,1-4c0-.167-.008-.335-.021-.5.007-.166.021-.317.021-.5C26,23.5,24,20.5,21,20.5Z" style="fill:#ed8d06"/><path d="M39,30.5s-1-1-1-4,2-6,5-6,5,3,5,6-1,4-1,4-1-6-4-6S39,30.5,39,30.5Z" style="fill:url(#linear-gradient-2)"/><path d="M17,30.5s-1-1-1-4,2-6,5-6,5,3,5,6-1,4-1,4-1-6-4-6S17,30.5,17,30.5Z" style="fill:url(#linear-gradient-3)"/><path d="M45,41h-.01a.987.987,0,0,0-1.309-.946A39.557,39.557,0,0,1,32,42.132a39.557,39.557,0,0,1-11.681-2.078A.987.987,0,0,0,19.01,41H19v1h.01a.963.963,0,0,0,.159.525C20.892,45.132,24.682,49,32,49s11.108-3.868,12.831-6.475A.963.963,0,0,0,44.99,42H45Z" style="fill:#f9bf06"/><path d="M45,40h-.01a.987.987,0,0,0-1.309-.946A39.557,39.557,0,0,1,32,41.132a39.557,39.557,0,0,1-11.681-2.078A.987.987,0,0,0,19.01,40H19v1h.01a.963.963,0,0,0,.159.525C20.892,44.132,24.682,48,32,48s11.108-3.868,12.831-6.475A.963.963,0,0,0,44.99,41H45Z" style="fill:#ed8d06"/><path d="M43.681,40.054a.985.985,0,0,1,1.15,1.471C43.108,44.132,39.318,48,32,48s-11.108-3.868-12.831-6.475a.985.985,0,0,1,1.15-1.471A39.557,39.557,0,0,0,32,42.132,39.557,39.557,0,0,0,43.681,40.054Z" style="fill:url(#linear-gradient-4)"/></g></svg>