<svg xmlns="http://www.w3.org/2000/svg" xmlns:xlink="http://www.w3.org/1999/xlink" viewBox="0 0 64 64"><defs><linearGradient id="linear-gradient" x1="32" y1="1.304" x2="32" y2="63.304" gradientUnits="userSpaceOnUse"><stop offset="0" stop-color="#ffe100"/><stop offset="1" stop-color="#f98900"/></linearGradient><linearGradient id="linear-gradient-2" x1="32" y1="52.45" x2="32" y2="43.016" gradientUnits="userSpaceOnUse"><stop offset="0" stop-color="#911625"/><stop offset="0.587" stop-color="#630f19"/><stop offset="1" stop-color="#400a10"/></linearGradient><linearGradient id="linear-gradient-3" x1="13.996" y1="42" x2="50.004" y2="42" gradientUnits="userSpaceOnUse"><stop offset="0" stop-color="#b8b4b2"/><stop offset="0.333" stop-color="#e6e1de"/><stop offset="0.5" stop-color="#fffaf6"/><stop offset="0.638" stop-color="#f9f5f1"/><stop offset="0.825" stop-color="#e8e5e3"/><stop offset="1" stop-color="#d1d1d1"/></linearGradient><linearGradient id="linear-gradient-4" x1="32" y1="39.712" x2="32" y2="46.21" gradientUnits="userSpaceOnUse"><stop offset="0" stop-color="#ababab" stop-opacity="0.5"/><stop offset="0.541" stop-color="#c1c1c1" stop-opacity="0.216"/><stop offset="1" stop-color="#d1d1d1" stop-opacity="0"/></linearGradient><linearGradient id="linear-gradient-5" x1="43" y1="29.725" x2="43" y2="20.193" gradientUnits="userSpaceOnUse"><stop offset="0.005" stop-color="#414d4d"/><stop offset="0.206" stop-color="#3a4545"/><stop offset="0.522" stop-color="#272e2e"/><stop offset="0.914" stop-color="#080909"/><stop offset="1"/></linearGradient><linearGradient id="linear-gradient-6" x1="21" y1="29.856" x2="21" y2="20.875" xlink:href="#linear-gradient-5"/></defs><g id="_05-Grinning_Face" data-name="05-Grinning Face"><path d="M32,63C4.3,63,.962,39,1,33V31C.962,25,4.3,1,32,1h0C59.7,1,63.038,25,63,31v2C63.038,39,59.7,63,32,63Z" style="fill:url(#linear-gradient)"/><path d="M50,38.99a.94.94,0,0,0-1.19-.96A72.587,72.587,0,0,1,32,40.1a72.587,72.587,0,0,1-16.81-2.07.94.94,0,0,0-1.19.96c.018.187.056.363.083.545A.85.85,0,0,0,14,39.99a10.787,10.787,0,0,0,.49,2.34,9.632,9.632,0,0,0,.43,1.17,14.068,14.068,0,0,0,5.09,5.88A20.6,20.6,0,0,0,32,53a20.6,20.6,0,0,0,11.99-3.62,14.068,14.068,0,0,0,5.09-5.88,9.632,9.632,0,0,0,.43-1.17A10.787,10.787,0,0,0,50,39.99a.85.85,0,0,0-.083-.455C49.944,39.353,49.982,39.177,50,38.99Z" style="fill:#f9bf06"/><path d="M50,37.99a.94.94,0,0,0-1.19-.96A72.587,72.587,0,0,1,32,39.1a72.587,72.587,0,0,1-16.81-2.07.94.94,0,0,0-1.19.96c.018.187.056.363.083.545A.85.85,0,0,0,14,38.99a10.787,10.787,0,0,0,.49,2.34,9.632,9.632,0,0,0,.43,1.17,14.068,14.068,0,0,0,5.09,5.88A20.6,20.6,0,0,0,32,52a20.6,20.6,0,0,0,11.99-3.62,14.068,14.068,0,0,0,5.09-5.88,9.632,9.632,0,0,0,.43-1.17A10.787,10.787,0,0,0,50,38.99a.85.85,0,0,0-.083-.455C49.944,38.353,49.982,38.177,50,37.99Z" style="fill:#ed8d06"/><path d="M49.51,41.33a9.632,9.632,0,0,1-.43,1.17,14.068,14.068,0,0,1-5.09,5.88A20.6,20.6,0,0,1,32,52a20.6,20.6,0,0,1-11.99-3.62,14.068,14.068,0,0,1-5.09-5.88,9.632,9.632,0,0,1-.43-1.17A32.724,32.724,0,0,0,32,46,32.724,32.724,0,0,0,49.51,41.33Z" style="fill:url(#linear-gradient-2)"/><path d="M48.81,38.03a.94.94,0,0,1,1.19.96,10.787,10.787,0,0,1-.49,2.34A32.724,32.724,0,0,1,32,46a32.724,32.724,0,0,1-17.51-4.67A10.787,10.787,0,0,1,14,38.99a.94.94,0,0,1,1.19-.96A72.587,72.587,0,0,0,32,40.1,72.587,72.587,0,0,0,48.81,38.03Z" style="fill:url(#linear-gradient-3)"/><path d="M48.81,38.03a.94.94,0,0,1,1.19.96,10.787,10.787,0,0,1-.49,2.34A32.724,32.724,0,0,1,32,46a32.724,32.724,0,0,1-17.51-4.67A10.787,10.787,0,0,1,14,38.99a.94.94,0,0,1,1.19-.96A72.587,72.587,0,0,0,32,40.1,72.587,72.587,0,0,0,48.81,38.03Z" style="fill:url(#linear-gradient-4)"/><path d="M46,24c0-2.761-1.343-5-3-5s-3,2.239-3,5c0,.171.02.333.03.5-.01.167-.03.329-.03.5,0,2.761,1.343,5,3,5s3-2.239,3-5c0-.171-.02-.333-.03-.5C45.98,24.333,46,24.171,46,24Z" style="fill:#eda406"/><path d="M24,24c0-2.761-1.343-5-3-5s-3,2.239-3,5c0,.171.02.333.03.5-.01.167-.03.329-.03.5,0,2.761,1.343,5,3,5s3-2.239,3-5c0-.171-.02-.333-.03-.5C23.98,24.333,24,24.171,24,24Z" style="fill:#eda406"/><path d="M46,25c0-2.761-1.343-5-3-5s-3,2.239-3,5c0,.171.02.333.03.5-.01.167-.03.329-.03.5,0,2.761,1.343,5,3,5s3-2.239,3-5c0-.171-.02-.333-.03-.5C45.98,25.333,46,25.171,46,25Z" style="fill:#ffd000"/><path d="M24,25c0-2.761-1.343-5-3-5s-3,2.239-3,5c0,.171.02.333.03.5-.01.167-.03.329-.03.5,0,2.761,1.343,5,3,5s3-2.239,3-5c0-.171-.02-.333-.03-.5C23.98,25.333,24,25.171,24,25Z" style="fill:#ffd000"/><ellipse cx="43" cy="25" rx="3" ry="5" style="fill:url(#linear-gradient-5)"/><ellipse cx="21" cy="25" rx="3" ry="5" style="fill:url(#linear-gradient-6)"/><path d="M43,23c1.451,0,2.661.718,2.94,3A8.343,8.343,0,0,0,46,25c0-2.761-1.343-5-3-5s-3,2.239-3,5a8.343,8.343,0,0,0,.06,1C40.339,23.718,41.549,23,43,23Z"/><path d="M21,23c1.451,0,2.661.718,2.94,3A8.343,8.343,0,0,0,24,25c0-2.761-1.343-5-3-5s-3,2.239-3,5a8.343,8.343,0,0,0,.06,1C18.339,23.718,19.549,23,21,23Z"/></g></svg>