<svg xmlns="http://www.w3.org/2000/svg" xmlns:xlink="http://www.w3.org/1999/xlink" viewBox="0 0 64 64"><defs><linearGradient id="linear-gradient" x1="32" y1="1.304" x2="32" y2="63.304" gradientUnits="userSpaceOnUse"><stop offset="0" stop-color="#ffe100"/><stop offset="1" stop-color="#f98900"/></linearGradient><radialGradient id="radial-gradient" cx="52.067" cy="36.822" r="8.5" gradientTransform="translate(-9.255 -6.32) scale(1.176)" gradientUnits="userSpaceOnUse"><stop offset="0" stop-color="#f60"/><stop offset="0.098" stop-color="#ff6800" stop-opacity="0.978"/><stop offset="0.222" stop-color="#fe6d01" stop-opacity="0.916"/><stop offset="0.36" stop-color="#fe7501" stop-opacity="0.814"/><stop offset="0.509" stop-color="#fd8003" stop-opacity="0.672"/><stop offset="0.666" stop-color="#fc8e04" stop-opacity="0.488"/><stop offset="0.83" stop-color="#fba006" stop-opacity="0.264"/><stop offset="0.997" stop-color="#f9b508" stop-opacity="0.004"/><stop offset="1" stop-color="#f9b508" stop-opacity="0"/></radialGradient><radialGradient id="radial-gradient-2" cx="18.067" cy="36.822" xlink:href="#radial-gradient"/><linearGradient id="linear-gradient-2" x1="43" y1="28.963" x2="43" y2="20.906" gradientUnits="userSpaceOnUse"><stop offset="0" stop-color="#803f02"/><stop offset="0.174" stop-color="#6d3602"/><stop offset="0.515" stop-color="#4d2601"/><stop offset="0.802" stop-color="#3a1c01"/><stop offset="1" stop-color="#331901"/></linearGradient><linearGradient id="linear-gradient-3" x1="21" y1="28.963" x2="21" y2="20.906" xlink:href="#linear-gradient-2"/><linearGradient id="linear-gradient-4" x1="32" y1="48.55" x2="32" y2="42.885" xlink:href="#linear-gradient-2"/></defs><g id="_07-Smiling_Face" data-name="07-Smiling Face"><path d="M32,63C4.3,63,.962,39,1,33V31C.962,25,4.3,1,32,1h0C59.7,1,63.038,25,63,31v2C63.038,39,59.7,63,32,63Z" style="fill:url(#linear-gradient)"/><circle cx="52" cy="37" r="10" style="fill:url(#radial-gradient)"/><circle cx="12" cy="37" r="10" style="fill:url(#radial-gradient-2)"/><path d="M48,26.5c0-3-2-6-5-6s-5,3-5,6c0,.181.014.332.021.5-.013.167-.021.335-.021.5,0,3,1,4,1,4s1-6,4-6,4,6,4,6,1-1,1-4c0-.167-.008-.335-.021-.5C47.986,26.832,48,26.681,48,26.5Z" style="fill:#ed8d06"/><path d="M21,20.5c-3,0-5,3-5,6,0,.181.014.332.021.5-.013.167-.021.335-.021.5,0,3,1,4,1,4s1-6,4-6,4,6,4,6,1-1,1-4c0-.167-.008-.335-.021-.5.007-.166.021-.317.021-.5C26,23.5,24,20.5,21,20.5Z" style="fill:#ed8d06"/><path d="M39,30.5s-1-1-1-4,2-6,5-6,5,3,5,6-1,4-1,4-1-6-4-6S39,30.5,39,30.5Z" style="fill:url(#linear-gradient-2)"/><path d="M17,30.5s-1-1-1-4,2-6,5-6,5,3,5,6-1,4-1,4-1-6-4-6S17,30.5,17,30.5Z" style="fill:url(#linear-gradient-3)"/><path d="M32,46c-11.294,0-16-8-16-8a14.5,14.5,0,0,0,6.907,8.653,18.79,18.79,0,0,0,18.186,0A14.5,14.5,0,0,0,48,38S43.294,46,32,46Z" style="fill:#f9bf06"/><path d="M32,45c-11.294,0-16-7-16-7s1.256,4.527,6.907,7.653a18.79,18.79,0,0,0,18.186,0C46.744,42.527,48,38,48,38S43.294,45,32,45Z" style="fill:#ed8d06"/><path d="M48,38s-1.256,4.527-6.907,7.653a18.79,18.79,0,0,1-18.186,0C17.256,42.527,16,38,16,38s4.706,8,16,8S48,38,48,38Z" style="fill:url(#linear-gradient-4)"/><path d="M16.5,11.647A9.4,9.4,0,0,0,11,19a13.688,13.688,0,0,1,6-5,16.207,16.207,0,0,1,8-1A8.01,8.01,0,0,0,16.5,11.647Z" style="fill:#ed8d06"/><path d="M47.5,11.647A9.4,9.4,0,0,1,53,19a13.688,13.688,0,0,0-6-5,16.207,16.207,0,0,0-8-1A8.01,8.01,0,0,1,47.5,11.647Z" style="fill:#ed8d06"/><path d="M39,13a8.01,8.01,0,0,1,8.5-1.353A9.4,9.4,0,0,1,53,19a13.731,13.731,0,0,0-6.1-5.577A12.608,12.608,0,0,0,39,13Z" style="fill:#3d1700"/><path d="M25,13a8.01,8.01,0,0,0-8.5-1.353A9.4,9.4,0,0,0,11,19a13.731,13.731,0,0,1,6.1-5.577A12.608,12.608,0,0,1,25,13Z" style="fill:#3d1700"/></g></svg>