<svg xmlns="http://www.w3.org/2000/svg" xmlns:xlink="http://www.w3.org/1999/xlink" viewBox="0 0 64 64"><defs><linearGradient id="linear-gradient" x1="32" y1="1.304" x2="32" y2="63.304" gradientUnits="userSpaceOnUse"><stop offset="0" stop-color="#ffe100"/><stop offset="1" stop-color="#f98900"/></linearGradient><linearGradient id="linear-gradient-2" x1="32" y1="52.45" x2="32" y2="43.016" gradientUnits="userSpaceOnUse"><stop offset="0" stop-color="#911625"/><stop offset="0.587" stop-color="#630f19"/><stop offset="1" stop-color="#400a10"/></linearGradient><linearGradient id="linear-gradient-3" x1="13.996" y1="42" x2="50.004" y2="42" gradientUnits="userSpaceOnUse"><stop offset="0" stop-color="#b8b4b2"/><stop offset="0.333" stop-color="#e6e1de"/><stop offset="0.5" stop-color="#fffaf6"/><stop offset="0.638" stop-color="#f9f5f1"/><stop offset="0.825" stop-color="#e8e5e3"/><stop offset="1" stop-color="#d1d1d1"/></linearGradient><linearGradient id="linear-gradient-4" x1="32" y1="39.712" x2="32" y2="46.21" gradientUnits="userSpaceOnUse"><stop offset="0" stop-color="#ababab" stop-opacity="0.5"/><stop offset="0.541" stop-color="#c1c1c1" stop-opacity="0.216"/><stop offset="1" stop-color="#d1d1d1" stop-opacity="0"/></linearGradient><linearGradient id="linear-gradient-5" x1="43" y1="28.963" x2="43" y2="20.906" gradientUnits="userSpaceOnUse"><stop offset="0" stop-color="#803f02"/><stop offset="0.174" stop-color="#6d3602"/><stop offset="0.515" stop-color="#4d2601"/><stop offset="0.802" stop-color="#3a1c01"/><stop offset="1" stop-color="#331901"/></linearGradient><linearGradient id="linear-gradient-6" x1="21" y1="28.963" x2="21" y2="20.906" xlink:href="#linear-gradient-5"/><linearGradient id="linear-gradient-7" x1="55.982" y1="1.431" x2="56.009" y2="20.136" gradientUnits="userSpaceOnUse"><stop offset="0" stop-color="#bfe7ff"/><stop offset="0.106" stop-color="#b7e5ff"/><stop offset="0.266" stop-color="#a2deff"/><stop offset="0.462" stop-color="#80d3ff"/><stop offset="0.685" stop-color="#50c4ff"/><stop offset="0.928" stop-color="#13b0ff"/><stop offset="1" stop-color="#0af"/></linearGradient><linearGradient id="linear-gradient-8" x1="55.989" y1="4.259" x2="56.005" y2="15.482" gradientUnits="userSpaceOnUse"><stop offset="0" stop-color="#fff"/><stop offset="0.129" stop-color="#f4fbff"/><stop offset="0.358" stop-color="#d6f1ff"/><stop offset="0.659" stop-color="#a5e0ff"/><stop offset="1" stop-color="#66cbff"/></linearGradient><linearGradient id="linear-gradient-9" x1="56" y1="19.882" x2="56" y2="14.431" gradientUnits="userSpaceOnUse"><stop offset="0.005" stop-color="#87e3ff"/><stop offset="0.134" stop-color="#7bdbff"/><stop offset="0.446" stop-color="#65caff"/><stop offset="0.742" stop-color="#57c0ff"/><stop offset="1" stop-color="#52bdff"/></linearGradient></defs><g id="_08-Downcast_Face_with_Sweat" data-name="08-Downcast Face with Sweat"><path d="M32,63C4.3,63,.962,39,1,33V31C.962,25,4.3,1,32,1h0C59.7,1,63.038,25,63,31v2C63.038,39,59.7,63,32,63Z" style="fill:url(#linear-gradient)"/><path d="M50,38.99a.94.94,0,0,0-1.19-.96A72.587,72.587,0,0,1,32,40.1a72.587,72.587,0,0,1-16.81-2.07.94.94,0,0,0-1.19.96c.018.187.056.363.083.545A.85.85,0,0,0,14,39.99a10.787,10.787,0,0,0,.49,2.34,9.632,9.632,0,0,0,.43,1.17,14.068,14.068,0,0,0,5.09,5.88A20.6,20.6,0,0,0,32,53a20.6,20.6,0,0,0,11.99-3.62,14.068,14.068,0,0,0,5.09-5.88,9.632,9.632,0,0,0,.43-1.17A10.787,10.787,0,0,0,50,39.99a.85.85,0,0,0-.083-.455C49.944,39.353,49.982,39.177,50,38.99Z" style="fill:#f9bf06"/><path d="M50,37.99a.94.94,0,0,0-1.19-.96A72.587,72.587,0,0,1,32,39.1a72.587,72.587,0,0,1-16.81-2.07.94.94,0,0,0-1.19.96c.018.187.056.363.083.545A.85.85,0,0,0,14,38.99a10.787,10.787,0,0,0,.49,2.34,9.632,9.632,0,0,0,.43,1.17,14.068,14.068,0,0,0,5.09,5.88A20.6,20.6,0,0,0,32,52a20.6,20.6,0,0,0,11.99-3.62,14.068,14.068,0,0,0,5.09-5.88,9.632,9.632,0,0,0,.43-1.17A10.787,10.787,0,0,0,50,38.99a.85.85,0,0,0-.083-.455C49.944,38.353,49.982,38.177,50,37.99Z" style="fill:#ed8d06"/><path d="M49.51,41.33a9.632,9.632,0,0,1-.43,1.17,14.068,14.068,0,0,1-5.09,5.88A20.6,20.6,0,0,1,32,52a20.6,20.6,0,0,1-11.99-3.62,14.068,14.068,0,0,1-5.09-5.88,9.632,9.632,0,0,1-.43-1.17A32.724,32.724,0,0,0,32,46,32.724,32.724,0,0,0,49.51,41.33Z" style="fill:url(#linear-gradient-2)"/><path d="M48.81,38.03a.94.94,0,0,1,1.19.96,10.787,10.787,0,0,1-.49,2.34A32.724,32.724,0,0,1,32,46a32.724,32.724,0,0,1-17.51-4.67A10.787,10.787,0,0,1,14,38.99a.94.94,0,0,1,1.19-.96A72.587,72.587,0,0,0,32,40.1,72.587,72.587,0,0,0,48.81,38.03Z" style="fill:url(#linear-gradient-3)"/><path d="M48.81,38.03a.94.94,0,0,1,1.19.96,10.787,10.787,0,0,1-.49,2.34A32.724,32.724,0,0,1,32,46a32.724,32.724,0,0,1-17.51-4.67A10.787,10.787,0,0,1,14,38.99a.94.94,0,0,1,1.19-.96A72.587,72.587,0,0,0,32,40.1,72.587,72.587,0,0,0,48.81,38.03Z" style="fill:url(#linear-gradient-4)"/><path d="M48,26.5c0-3-2-6-5-6s-5,3-5,6c0,.181.014.332.021.5-.013.167-.021.335-.021.5,0,3,1,4,1,4s1-6,4-6,4,6,4,6,1-1,1-4c0-.167-.008-.335-.021-.5C47.986,26.832,48,26.681,48,26.5Z" style="fill:#ed8d06"/><path d="M21,20.5c-3,0-5,3-5,6,0,.181.014.332.021.5-.013.167-.021.335-.021.5,0,3,1,4,1,4s1-6,4-6,4,6,4,6,1-1,1-4c0-.167-.008-.335-.021-.5.007-.166.021-.317.021-.5C26,23.5,24,20.5,21,20.5Z" style="fill:#ed8d06"/><path d="M39,30.5s-1-1-1-4,2-6,5-6,5,3,5,6-1,4-1,4-1-6-4-6S39,30.5,39,30.5Z" style="fill:url(#linear-gradient-5)"/><path d="M17,30.5s-1-1-1-4,2-6,5-6,5,3,5,6-1,4-1,4-1-6-4-6S17,30.5,17,30.5Z" style="fill:url(#linear-gradient-6)"/><path d="M63,14a7,7,0,0,1-14,0c0-3.866,7-13,7-13S63,10.134,63,14Z" style="fill:url(#linear-gradient-7)"/><path d="M60.824,11.11C61.779,13.648,58.664,16,56,16s-5.779-2.352-4.824-4.89a58.953,58.953,0,0,1,3.131-6.138,1.96,1.96,0,0,1,3.386,0A58.953,58.953,0,0,1,60.824,11.11Z" style="fill:url(#linear-gradient-8)"/><path d="M59.888,16.99a8.065,8.065,0,0,1-7.776,0A3.557,3.557,0,0,1,50,14v1.062a3.588,3.588,0,0,0,.341,1.558A5.9,5.9,0,0,0,56,20a5.9,5.9,0,0,0,5.659-3.38A3.588,3.588,0,0,0,62,15.062V14A3.557,3.557,0,0,1,59.888,16.99Z" style="fill:url(#linear-gradient-9)"/><path d="M49.1,15.133A4.566,4.566,0,0,0,49,16a6.992,6.992,0,0,0,12.177,4.7c-.164-.486-.34-.977-.532-1.473A6.985,6.985,0,0,1,49.1,15.133Z" style="fill:#f99c06"/></g></svg>