<svg xmlns="http://www.w3.org/2000/svg" xmlns:xlink="http://www.w3.org/1999/xlink" viewBox="0 0 64 64"><defs><linearGradient id="linear-gradient" x1="32" y1="1.304" x2="32" y2="63.304" gradientUnits="userSpaceOnUse"><stop offset="0" stop-color="#ffe100"/><stop offset="1" stop-color="#f98900"/></linearGradient><linearGradient id="linear-gradient-2" x1="31.811" y1="53.622" x2="32.111" y2="27.297" gradientUnits="userSpaceOnUse"><stop offset="0" stop-color="#69101b"/><stop offset="0.134" stop-color="#5c0e18"/><stop offset="0.368" stop-color="#4c0c13"/><stop offset="0.634" stop-color="#430a11"/><stop offset="1" stop-color="#400a10"/></linearGradient><linearGradient id="linear-gradient-3" x1="12" y1="37.76" x2="52" y2="37.76" gradientUnits="userSpaceOnUse"><stop offset="0" stop-color="#b8b4b2"/><stop offset="0.143" stop-color="#d0ccc9"/><stop offset="0.374" stop-color="#f2edea"/><stop offset="0.5" stop-color="#fffaf6"/><stop offset="0.638" stop-color="#f9f5f1"/><stop offset="0.825" stop-color="#e8e5e3"/><stop offset="1" stop-color="#d1d1d1"/></linearGradient><linearGradient id="linear-gradient-4" x1="32" y1="35.503" x2="32" y2="41.901" gradientUnits="userSpaceOnUse"><stop offset="0" stop-color="#ababab" stop-opacity="0.5"/><stop offset="0.541" stop-color="#c1c1c1" stop-opacity="0.216"/><stop offset="1" stop-color="#d1d1d1" stop-opacity="0"/></linearGradient><linearGradient id="linear-gradient-5" x1="-22.901" y1="27.977" x2="-10.826" y2="40.239" gradientTransform="matrix(-1, 0, 0, 1, -8, 0)" gradientUnits="userSpaceOnUse"><stop offset="0.005" stop-color="#72e9ff"/><stop offset="0.402" stop-color="#53cdff"/><stop offset="1" stop-color="#29a6ff"/></linearGradient><linearGradient id="linear-gradient-6" x1="-21.459" y1="29.481" x2="-15.091" y2="35.949" gradientTransform="matrix(-1, 0, 0, 1, -8, 0)" gradientUnits="userSpaceOnUse"><stop offset="0" stop-color="#ccedff"/><stop offset="0.142" stop-color="#c1e9ff"/><stop offset="0.394" stop-color="#a3dfff"/><stop offset="0.724" stop-color="#73cfff"/><stop offset="1" stop-color="#45bfff"/></linearGradient><linearGradient id="linear-gradient-7" x1="2" y1="37" x2="10" y2="37" gradientUnits="userSpaceOnUse"><stop offset="0.005" stop-color="#87e3ff"/><stop offset="0.096" stop-color="#79dbff"/><stop offset="0.342" stop-color="#59c7fd"/><stop offset="0.58" stop-color="#43b9fd"/><stop offset="0.804" stop-color="#35b1fc"/><stop offset="1" stop-color="#30aefc"/></linearGradient><linearGradient id="linear-gradient-8" x1="-68.901" y1="27.977" x2="-56.826" y2="40.239" gradientTransform="translate(118)" xlink:href="#linear-gradient-5"/><linearGradient id="linear-gradient-9" x1="-67.459" y1="29.481" x2="-61.091" y2="35.949" gradientTransform="translate(118)" xlink:href="#linear-gradient-6"/><linearGradient id="linear-gradient-10" x1="48" y1="37" x2="56" y2="37" gradientTransform="matrix(-1, 0, 0, 1, 110, 0)" xlink:href="#linear-gradient-7"/><linearGradient id="linear-gradient-11" x1="12.218" y1="20.118" x2="25.661" y2="29.849" gradientUnits="userSpaceOnUse"><stop offset="0" stop-color="#803f02"/><stop offset="0.174" stop-color="#6d3602"/><stop offset="0.515" stop-color="#4d2601"/><stop offset="0.802" stop-color="#3a1c01"/><stop offset="1" stop-color="#331901"/></linearGradient><linearGradient id="linear-gradient-12" x1="30.218" y1="20.118" x2="43.661" y2="29.849" gradientTransform="matrix(-1, 0, 0, 1, 82, 0)" xlink:href="#linear-gradient-11"/></defs><g id="_10-Face_with_Tears_of_Joy" data-name="10-Face with Tears of Joy"><path d="M32,63C4.3,63,.962,39,1,33V31C.962,25,4.3,1,32,1h0C59.7,1,63.038,25,63,31v2C63.038,39,59.7,63,32,63Z" style="fill:url(#linear-gradient)"/><path d="M11.331,42.227C13.7,39.864,15,28,15,28s-1.3,9.864-3.669,12.227a6.009,6.009,0,0,1-9.773-1.783c.189,1.011.436,2.092.757,3.223a5.883,5.883,0,0,0,.457.56A6.051,6.051,0,0,0,11.331,42.227Z" style="fill:#ed8d06"/><path d="M61.227,40.227a6.051,6.051,0,0,1-8.559,0C50.3,37.864,49,28,49,28s1.3,11.864,3.668,14.227a5.836,5.836,0,0,0,9.017-.56c.32-1.13.567-2.212.756-3.223A6,6,0,0,1,61.227,40.227Z" style="fill:#ed8d06"/><path d="M52,35h-.015c.005-.063.011-.131.014-.19a.978.978,0,0,0-1.1-1.04A134.586,134.586,0,0,1,32,35.6a134.586,134.586,0,0,1-18.9-1.83A.978.978,0,0,0,12,34.81c0,.059.009.127.014.19H12v1h.015a16.055,16.055,0,0,0,.266,2h.01c.88,4.55,4.01,12.4,12.179,15.469A21.133,21.133,0,0,0,32,54.759a21.133,21.133,0,0,0,7.53-1.29C47.7,50.4,50.829,42.55,51.709,38h.01a16.055,16.055,0,0,0,.266-2H52Z" style="fill:#f9bf06"/><path d="M52,34h-.015c.005-.063.011-.131.014-.19a.978.978,0,0,0-1.1-1.04A134.586,134.586,0,0,1,32,34.6a134.586,134.586,0,0,1-18.9-1.83A.978.978,0,0,0,12,33.81c0,.059.009.127.014.19H12v1h.015a16.055,16.055,0,0,0,.266,2h.01c.88,4.55,4.01,12.4,12.179,15.469A21.133,21.133,0,0,0,32,53.759a21.133,21.133,0,0,0,7.53-1.29C47.7,49.4,50.829,41.55,51.709,37h.01a16.055,16.055,0,0,0,.266-2H52Z" style="fill:#ed8d06"/><path d="M32,47.76a7.781,7.781,0,0,1,7.53,4.709A21.133,21.133,0,0,1,32,53.759a21.133,21.133,0,0,1-7.53-1.29A7.781,7.781,0,0,1,32,47.76Z" style="fill:#8f030e"/><path d="M51.709,37c-.88,4.55-4.01,12.4-12.179,15.469A7.781,7.781,0,0,0,32,47.76a7.781,7.781,0,0,0-7.53,4.709C16.3,49.4,13.171,41.55,12.291,37A43.23,43.23,0,0,0,32,41.76,43.23,43.23,0,0,0,51.709,37Z" style="fill:url(#linear-gradient-2)"/><path d="M50.9,33.77A.978.978,0,0,1,52,34.81a15.95,15.95,0,0,1-.28,2.19h-.01A43.23,43.23,0,0,1,32,41.76,43.23,43.23,0,0,1,12.291,37h-.01A15.95,15.95,0,0,1,12,34.81a.978.978,0,0,1,1.1-1.04A134.586,134.586,0,0,0,32,35.6,134.586,134.586,0,0,0,50.9,33.77Z" style="fill:url(#linear-gradient-3)"/><path d="M50.9,33.77A.978.978,0,0,1,52,34.81a15.95,15.95,0,0,1-.28,2.19h-.01A43.23,43.23,0,0,1,32,41.76,43.23,43.23,0,0,1,12.291,37h-.01A15.95,15.95,0,0,1,12,34.81a.978.978,0,0,1,1.1-1.04A134.586,134.586,0,0,0,32,35.6,134.586,134.586,0,0,0,50.9,33.77Z" style="fill:url(#linear-gradient-4)"/><path d="M2.773,31.668a6.052,6.052,0,0,0,8.559,8.559C13.7,37.864,15,28,15,28S5.136,29.305,2.773,31.668Z" style="fill:url(#linear-gradient-5)"/><path d="M7.06,30.821a3.62,3.62,0,0,0,5.119,5.119c.816-.816,1.421-3.125,1.787-4.933a1.673,1.673,0,0,0-1.973-1.973C10.185,29.4,7.876,30.005,7.06,30.821Z" style="fill:url(#linear-gradient-6)"/><path d="M3.383,33s-1.087,3.217,1.1,5.513C6.782,40.7,10,39.618,10,39.618A4.679,4.679,0,0,1,3.383,33Z" style="fill:url(#linear-gradient-7)"/><path d="M61.227,31.668a6.052,6.052,0,0,1-8.559,8.559C50.305,37.864,49,28,49,28S58.864,29.305,61.227,31.668Z" style="fill:url(#linear-gradient-8)"/><path d="M56.94,30.821a3.62,3.62,0,0,1-5.119,5.119c-.816-.816-1.421-3.125-1.787-4.933a1.673,1.673,0,0,1,1.973-1.973C53.815,29.4,56.124,30.005,56.94,30.821Z" style="fill:url(#linear-gradient-9)"/><path d="M60.617,33s1.087,3.217-1.1,5.513C57.218,40.7,54,39.618,54,39.618A4.679,4.679,0,0,0,60.617,33Z" style="fill:url(#linear-gradient-10)"/><path d="M26.88,27.291C23.8,20.819,14,18,14,18a50.156,50.156,0,0,1,7.172,7.007C14.841,25.083,13,26,13,26a74.837,74.837,0,0,1,12.4,3.918,1.184,1.184,0,0,0,1.487-1.612A1.168,1.168,0,0,0,26.88,27.291Z" style="fill:#f99c06"/><path d="M37.118,27.291C40.2,20.819,50,18,50,18a50.141,50.141,0,0,0-7.171,7.007C49.158,25.083,51,26,51,26a74.837,74.837,0,0,0-12.4,3.918,1.184,1.184,0,0,1-1.487-1.612A1.168,1.168,0,0,1,37.118,27.291Z" style="fill:#f99c06"/><path d="M14,18s9.8,2.819,12.88,9.291A1.185,1.185,0,0,1,25.4,28.918C22.681,27.861,18.35,26,13,26c0,0,1.988-1,9-1A25.831,25.831,0,0,0,14,18Z" style="fill:url(#linear-gradient-11)"/><path d="M50,18s-9.8,2.819-12.88,9.291A1.185,1.185,0,0,0,38.6,28.918C41.319,27.861,45.65,26,51,26c0,0-1.988-1-9-1A25.831,25.831,0,0,1,50,18Z" style="fill:url(#linear-gradient-12)"/></g></svg><svg xmlns="http://www.w3.org/2000/svg" xmlns:xlink="http://www.w3.org/1999/xlink" viewBox="0 0 64 64"><defs><linearGradient id="linear-gradient" x1="32" y1="1.304" x2="32" y2="63.304" gradientUnits="userSpaceOnUse"><stop offset="0" stop-color="#ffe100"/><stop offset="1" stop-color="#f98900"/></linearGradient><linearGradient id="linear-gradient-2" x1="31.811" y1="53.622" x2="32.111" y2="27.297" gradientUnits="userSpaceOnUse"><stop offset="0" stop-color="#69101b"/><stop offset="0.134" stop-color="#5c0e18"/><stop offset="0.368" stop-color="#4c0c13"/><stop offset="0.634" stop-color="#430a11"/><stop offset="1" stop-color="#400a10"/></linearGradient><linearGradient id="linear-gradient-3" x1="12" y1="37.76" x2="52" y2="37.76" gradientUnits="userSpaceOnUse"><stop offset="0" stop-color="#b8b4b2"/><stop offset="0.143" stop-color="#d0ccc9"/><stop offset="0.374" stop-color="#f2edea"/><stop offset="0.5" stop-color="#fffaf6"/><stop offset="0.638" stop-color="#f9f5f1"/><stop offset="0.825" stop-color="#e8e5e3"/><stop offset="1" stop-color="#d1d1d1"/></linearGradient><linearGradient id="linear-gradient-4" x1="32" y1="35.503" x2="32" y2="41.901" gradientUnits="userSpaceOnUse"><stop offset="0" stop-color="#ababab" stop-opacity="0.5"/><stop offset="0.541" stop-color="#c1c1c1" stop-opacity="0.216"/><stop offset="1" stop-color="#d1d1d1" stop-opacity="0"/></linearGradient><linearGradient id="linear-gradient-5" x1="-22.901" y1="27.977" x2="-10.826" y2="40.239" gradientTransform="matrix(-1, 0, 0, 1, -8, 0)" gradientUnits="userSpaceOnUse"><stop offset="0.005" stop-color="#72e9ff"/><stop offset="0.402" stop-color="#53cdff"/><stop offset="1" stop-color="#29a6ff"/></linearGradient><linearGradient id="linear-gradient-6" x1="-21.459" y1="29.481" x2="-15.091" y2="35.949" gradientTransform="matrix(-1, 0, 0, 1, -8, 0)" gradientUnits="userSpaceOnUse"><stop offset="0" stop-color="#ccedff"/><stop offset="0.142" stop-color="#c1e9ff"/><stop offset="0.394" stop-color="#a3dfff"/><stop offset="0.724" stop-color="#73cfff"/><stop offset="1" stop-color="#45bfff"/></linearGradient><linearGradient id="linear-gradient-7" x1="2" y1="37" x2="10" y2="37" gradientUnits="userSpaceOnUse"><stop offset="0.005" stop-color="#87e3ff"/><stop offset="0.096" stop-color="#79dbff"/><stop offset="0.342" stop-color="#59c7fd"/><stop offset="0.58" stop-color="#43b9fd"/><stop offset="0.804" stop-color="#35b1fc"/><stop offset="1" stop-color="#30aefc"/></linearGradient><linearGradient id="linear-gradient-8" x1="-68.901" y1="27.977" x2="-56.826" y2="40.239" gradientTransform="translate(118)" xlink:href="#linear-gradient-5"/><linearGradient id="linear-gradient-9" x1="-67.459" y1="29.481" x2="-61.091" y2="35.949" gradientTransform="translate(118)" xlink:href="#linear-gradient-6"/><linearGradient id="linear-gradient-10" x1="48" y1="37" x2="56" y2="37" gradientTransform="matrix(-1, 0, 0, 1, 110, 0)" xlink:href="#linear-gradient-7"/><linearGradient id="linear-gradient-11" x1="12.218" y1="20.118" x2="25.661" y2="29.849" gradientUnits="userSpaceOnUse"><stop offset="0" stop-color="#803f02"/><stop offset="0.174" stop-color="#6d3602"/><stop offset="0.515" stop-color="#4d2601"/><stop offset="0.802" stop-color="#3a1c01"/><stop offset="1" stop-color="#331901"/></linearGradient><linearGradient id="linear-gradient-12" x1="30.218" y1="20.118" x2="43.661" y2="29.849" gradientTransform="matrix(-1, 0, 0, 1, 82, 0)" xlink:href="#linear-gradient-11"/></defs><g id="_10-Face_with_Tears_of_Joy" data-name="10-Face with Tears of Joy"><path d="M32,63C4.3,63,.962,39,1,33V31C.962,25,4.3,1,32,1h0C59.7,1,63.038,25,63,31v2C63.038,39,59.7,63,32,63Z" style="fill:url(#linear-gradient)"/><path d="M11.331,42.227C13.7,39.864,15,28,15,28s-1.3,9.864-3.669,12.227a6.009,6.009,0,0,1-9.773-1.783c.189,1.011.436,2.092.757,3.223a5.883,5.883,0,0,0,.457.56A6.051,6.051,0,0,0,11.331,42.227Z" style="fill:#ed8d06"/><path d="M61.227,40.227a6.051,6.051,0,0,1-8.559,0C50.3,37.864,49,28,49,28s1.3,11.864,3.668,14.227a5.836,5.836,0,0,0,9.017-.56c.32-1.13.567-2.212.756-3.223A6,6,0,0,1,61.227,40.227Z" style="fill:#ed8d06"/><path d="M52,35h-.015c.005-.063.011-.131.014-.19a.978.978,0,0,0-1.1-1.04A134.586,134.586,0,0,1,32,35.6a134.586,134.586,0,0,1-18.9-1.83A.978.978,0,0,0,12,34.81c0,.059.009.127.014.19H12v1h.015a16.055,16.055,0,0,0,.266,2h.01c.88,4.55,4.01,12.4,12.179,15.469A21.133,21.133,0,0,0,32,54.759a21.133,21.133,0,0,0,7.53-1.29C47.7,50.4,50.829,42.55,51.709,38h.01a16.055,16.055,0,0,0,.266-2H52Z" style="fill:#f9bf06"/><path d="M52,34h-.015c.005-.063.011-.131.014-.19a.978.978,0,0,0-1.1-1.04A134.586,134.586,0,0,1,32,34.6a134.586,134.586,0,0,1-18.9-1.83A.978.978,0,0,0,12,33.81c0,.059.009.127.014.19H12v1h.015a16.055,16.055,0,0,0,.266,2h.01c.88,4.55,4.01,12.4,12.179,15.469A21.133,21.133,0,0,0,32,53.759a21.133,21.133,0,0,0,7.53-1.29C47.7,49.4,50.829,41.55,51.709,37h.01a16.055,16.055,0,0,0,.266-2H52Z" style="fill:#ed8d06"/><path d="M32,47.76a7.781,7.781,0,0,1,7.53,4.709A21.133,21.133,0,0,1,32,53.759a21.133,21.133,0,0,1-7.53-1.29A7.781,7.781,0,0,1,32,47.76Z" style="fill:#8f030e"/><path d="M51.709,37c-.88,4.55-4.01,12.4-12.179,15.469A7.781,7.781,0,0,0,32,47.76a7.781,7.781,0,0,0-7.53,4.709C16.3,49.4,13.171,41.55,12.291,37A43.23,43.23,0,0,0,32,41.76,43.23,43.23,0,0,0,51.709,37Z" style="fill:url(#linear-gradient-2)"/><path d="M50.9,33.77A.978.978,0,0,1,52,34.81a15.95,15.95,0,0,1-.28,2.19h-.01A43.23,43.23,0,0,1,32,41.76,43.23,43.23,0,0,1,12.291,37h-.01A15.95,15.95,0,0,1,12,34.81a.978.978,0,0,1,1.1-1.04A134.586,134.586,0,0,0,32,35.6,134.586,134.586,0,0,0,50.9,33.77Z" style="fill:url(#linear-gradient-3)"/><path d="M50.9,33.77A.978.978,0,0,1,52,34.81a15.95,15.95,0,0,1-.28,2.19h-.01A43.23,43.23,0,0,1,32,41.76,43.23,43.23,0,0,1,12.291,37h-.01A15.95,15.95,0,0,1,12,34.81a.978.978,0,0,1,1.1-1.04A134.586,134.586,0,0,0,32,35.6,134.586,134.586,0,0,0,50.9,33.77Z" style="fill:url(#linear-gradient-4)"/><path d="M2.773,31.668a6.052,6.052,0,0,0,8.559,8.559C13.7,37.864,15,28,15,28S5.136,29.305,2.773,31.668Z" style="fill:url(#linear-gradient-5)"/><path d="M7.06,30.821a3.62,3.62,0,0,0,5.119,5.119c.816-.816,1.421-3.125,1.787-4.933a1.673,1.673,0,0,0-1.973-1.973C10.185,29.4,7.876,30.005,7.06,30.821Z" style="fill:url(#linear-gradient-6)"/><path d="M3.383,33s-1.087,3.217,1.1,5.513C6.782,40.7,10,39.618,10,39.618A4.679,4.679,0,0,1,3.383,33Z" style="fill:url(#linear-gradient-7)"/><path d="M61.227,31.668a6.052,6.052,0,0,1-8.559,8.559C50.305,37.864,49,28,49,28S58.864,29.305,61.227,31.668Z" style="fill:url(#linear-gradient-8)"/><path d="M56.94,30.821a3.62,3.62,0,0,1-5.119,5.119c-.816-.816-1.421-3.125-1.787-4.933a1.673,1.673,0,0,1,1.973-1.973C53.815,29.4,56.124,30.005,56.94,30.821Z" style="fill:url(#linear-gradient-9)"/><path d="M60.617,33s1.087,3.217-1.1,5.513C57.218,40.7,54,39.618,54,39.618A4.679,4.679,0,0,0,60.617,33Z" style="fill:url(#linear-gradient-10)"/><path d="M26.88,27.291C23.8,20.819,14,18,14,18a50.156,50.156,0,0,1,7.172,7.007C14.841,25.083,13,26,13,26a74.837,74.837,0,0,1,12.4,3.918,1.184,1.184,0,0,0,1.487-1.612A1.168,1.168,0,0,0,26.88,27.291Z" style="fill:#f99c06"/><path d="M37.118,27.291C40.2,20.819,50,18,50,18a50.141,50.141,0,0,0-7.171,7.007C49.158,25.083,51,26,51,26a74.837,74.837,0,0,0-12.4,3.918,1.184,1.184,0,0,1-1.487-1.612A1.168,1.168,0,0,1,37.118,27.291Z" style="fill:#f99c06"/><path d="M14,18s9.8,2.819,12.88,9.291A1.185,1.185,0,0,1,25.4,28.918C22.681,27.861,18.35,26,13,26c0,0,1.988-1,9-1A25.831,25.831,0,0,0,14,18Z" style="fill:url(#linear-gradient-11)"/><path d="M50,18s-9.8,2.819-12.88,9.291A1.185,1.185,0,0,0,38.6,28.918C41.319,27.861,45.65,26,51,26c0,0-1.988-1-9-1A25.831,25.831,0,0,1,50,18Z" style="fill:url(#linear-gradient-12)"/></g></svg>