<svg xmlns="http://www.w3.org/2000/svg" xmlns:xlink="http://www.w3.org/1999/xlink" viewBox="0 0 64 64"><defs><linearGradient id="linear-gradient" x1="32" y1="2.15" x2="32" y2="62.441" gradientTransform="translate(-13.255 32) rotate(-45)" gradientUnits="userSpaceOnUse"><stop offset="0" stop-color="#ffe100"/><stop offset="1" stop-color="#f98900"/></linearGradient><linearGradient id="linear-gradient-2" x1="53.14" y1="23.207" x2="38.425" y2="20.527" gradientTransform="translate(-13.255 32) rotate(-45)" gradientUnits="userSpaceOnUse"><stop offset="0" stop-color="#803f02"/><stop offset="0.174" stop-color="#6d3602"/><stop offset="0.515" stop-color="#4d2601"/><stop offset="0.802" stop-color="#3a1c01"/><stop offset="1" stop-color="#331901"/></linearGradient><linearGradient id="linear-gradient-3" x1="36.14" y1="23.207" x2="21.425" y2="20.527" gradientTransform="matrix(-0.707, 0.707, 0.707, 0.707, 19.979, -1.234)" xlink:href="#linear-gradient-2"/><linearGradient id="linear-gradient-4" x1="12.551" y1="36.376" x2="51.449" y2="36.376" gradientTransform="translate(-13.255 32) rotate(-45)" gradientUnits="userSpaceOnUse"><stop offset="0" stop-color="#b8b4b2"/><stop offset="0.143" stop-color="#d0ccc9"/><stop offset="0.374" stop-color="#f2edea"/><stop offset="0.5" stop-color="#fffaf6"/><stop offset="0.638" stop-color="#f9f5f1"/><stop offset="0.825" stop-color="#e8e5e3"/><stop offset="1" stop-color="#d1d1d1"/></linearGradient><linearGradient id="linear-gradient-5" x1="32" y1="54.147" x2="32" y2="36.059" gradientTransform="translate(-13.255 32) rotate(-45)" gradientUnits="userSpaceOnUse"><stop offset="0" stop-color="#69101b"/><stop offset="0.345" stop-color="#5f0f18"/><stop offset="0.934" stop-color="#430b11"/><stop offset="1" stop-color="#400a10"/></linearGradient><linearGradient id="linear-gradient-6" x1="32" y1="31.21" x2="32" y2="40.465" gradientTransform="translate(-13.255 32) rotate(-45)" gradientUnits="userSpaceOnUse"><stop offset="0" stop-color="#ababab" stop-opacity="0.5"/><stop offset="0.541" stop-color="#c1c1c1" stop-opacity="0.216"/><stop offset="1" stop-color="#d1d1d1" stop-opacity="0"/></linearGradient><linearGradient id="linear-gradient-7" x1="13.284" y1="27.146" x2="3.185" y2="37.61" gradientTransform="translate(-13.255 32) rotate(-45)" gradientUnits="userSpaceOnUse"><stop offset="0.005" stop-color="#72e9ff"/><stop offset="0.402" stop-color="#53cdff"/><stop offset="1" stop-color="#29a6ff"/></linearGradient><linearGradient id="linear-gradient-8" x1="12.22" y1="28.336" x2="7.407" y2="33.323" gradientTransform="translate(-13.255 32) rotate(-45)" gradientUnits="userSpaceOnUse"><stop offset="0" stop-color="#ccedff"/><stop offset="0.142" stop-color="#c1e9ff"/><stop offset="0.394" stop-color="#a3dfff"/><stop offset="0.724" stop-color="#73cfff"/><stop offset="1" stop-color="#45bfff"/></linearGradient><linearGradient id="linear-gradient-9" x1="2.827" y1="34.917" x2="8.661" y2="34.917" gradientTransform="translate(-13.255 32) rotate(-45)" gradientUnits="userSpaceOnUse"><stop offset="0.005" stop-color="#87e3ff"/><stop offset="0.096" stop-color="#79dbff"/><stop offset="0.342" stop-color="#59c7fd"/><stop offset="0.58" stop-color="#43b9fd"/><stop offset="0.804" stop-color="#35b1fc"/><stop offset="1" stop-color="#30aefc"/></linearGradient><linearGradient id="linear-gradient-10" x1="59.284" y1="27.146" x2="49.185" y2="37.61" gradientTransform="matrix(-0.707, 0.707, 0.707, 0.707, 64.527, -45.782)" xlink:href="#linear-gradient-7"/><linearGradient id="linear-gradient-11" x1="58.22" y1="28.336" x2="53.407" y2="33.323" gradientTransform="matrix(-0.707, 0.707, 0.707, 0.707, 64.527, -45.782)" xlink:href="#linear-gradient-8"/><linearGradient id="linear-gradient-12" x1="48.827" y1="34.917" x2="54.661" y2="34.917" gradientTransform="matrix(-0.707, 0.707, 0.707, 0.707, 64.527, -45.782)" xlink:href="#linear-gradient-9"/><linearGradient id="linear-gradient-13" x1="39.99" y1="12.491" x2="54.952" y2="12.491" gradientTransform="translate(-15.154 -7.93) rotate(4.535)" gradientUnits="userSpaceOnUse"><stop offset="0.005" stop-color="#414d4d"/><stop offset="0.206" stop-color="#3a4545"/><stop offset="0.522" stop-color="#272e2e"/><stop offset="0.914" stop-color="#080909"/><stop offset="1"/></linearGradient><linearGradient id="linear-gradient-14" x1="21.169" y1="34.554" x2="36.131" y2="34.554" gradientTransform="matrix(0.079, 0.997, 0.997, -0.079, -28.436, 5.352)" xlink:href="#linear-gradient-13"/></defs><g id="_11-Rolling_on_the_Floor_Laughing" data-name="11-Rolling on the Floor Laughing"><path d="M53.316,53.316C34.271,72.362,15.471,58.156,11.372,54L10,52.628c-4.152-4.1-18.358-22.9.688-41.944h0C29.729-8.362,48.529,5.844,52.628,10L54,11.372C58.156,15.471,72.362,34.271,53.316,53.316Z" style="fill:url(#linear-gradient)"/><path d="M40.251,8.621s-1.945-.571-6.742,2.884A14.31,14.31,0,0,0,28.242,18.7a1.684,1.684,0,0,0,.413,1.706,1.486,1.486,0,0,0,.388.266,1.669,1.669,0,0,0,.3.421A1.984,1.984,0,0,0,32,21a25.8,25.8,0,0,1,8.251-5.5,14.194,14.194,0,0,0-7.557,1.337A30.473,30.473,0,0,1,40.251,8.621Z" style="fill:#f99c06"/><path d="M40.251,8.621s-1.945-.57-6.742,2.884A14.31,14.31,0,0,0,28.242,18.7a1.684,1.684,0,0,0,.413,1.706h0a1.985,1.985,0,0,0,2.657-.094A19.367,19.367,0,0,1,40.251,15.5a14.929,14.929,0,0,0-8.939,2.063S32.721,13.468,40.251,8.621Z" style="fill:url(#linear-gradient-2)"/><path d="M8.621,40.251s-.571-1.945,2.884-6.742A14.31,14.31,0,0,1,18.7,28.242a1.684,1.684,0,0,1,1.706.413,1.486,1.486,0,0,1,.266.388,1.669,1.669,0,0,1,.421.3A1.984,1.984,0,0,1,21,32a25.8,25.8,0,0,0-5.5,8.251,14.194,14.194,0,0,1,1.337-7.557A30.473,30.473,0,0,0,8.621,40.251Z" style="fill:#f99c06"/><path d="M8.621,40.251s-.57-1.945,2.884-6.742A14.31,14.31,0,0,1,18.7,28.242a1.684,1.684,0,0,1,1.706.413h0a1.985,1.985,0,0,1-.094,2.657A19.367,19.367,0,0,0,15.5,40.251a14.929,14.929,0,0,1,2.063-8.939S13.468,32.721,8.621,40.251Z" style="fill:url(#linear-gradient-3)"/><path d="M48.731,21.238a1.953,1.953,0,0,0-2.167-.584c-2.427.873-8.072,3.479-15.252,10.658S21.527,44.137,20.654,46.564a1.953,1.953,0,0,0,.584,2.167c.087.071.19.152.287.23a1.927,1.927,0,0,0,.4.457,25.811,25.811,0,0,0,2.64,1.912c3.349,2.1,8.712,4.38,14.736,2.784A20.352,20.352,0,0,0,48.5,48.5a20.454,20.454,0,0,0,5.618-9.194l-.007-.007c1.6-6.024-.687-11.387-2.784-14.736a25.811,25.811,0,0,0-1.912-2.64,1.927,1.927,0,0,0-.457-.4C48.883,21.428,48.8,21.325,48.731,21.238Z" style="fill:#f9bf06"/><path d="M48.043,20.55a1.955,1.955,0,0,0-2.166-.584c-2.428.873-8.073,3.48-15.252,10.659S20.839,43.449,19.966,45.877a1.955,1.955,0,0,0,.584,2.166c.087.071.191.153.287.23a1.912,1.912,0,0,0,.4.458,26.211,26.211,0,0,0,2.64,1.911c3.349,2.1,8.713,4.38,14.737,2.785a20.358,20.358,0,0,0,9.2-5.612,20.457,20.457,0,0,0,5.619-9.194l-.007-.006c1.595-6.024-.688-11.388-2.785-14.737a26.211,26.211,0,0,0-1.911-2.64,1.912,1.912,0,0,0-.458-.4C48.2,20.741,48.114,20.637,48.043,20.55Z" style="fill:#ed8d06"/><path d="M46.564,20.654a1.953,1.953,0,0,1,2.167.584,26.126,26.126,0,0,1,1.911,2.641,7.3,7.3,0,0,1-2.139,5.37A4.262,4.262,0,0,0,47.128,26.5c-1.375-1.375-8.252,4.127-12.378,8.252s-9.627,11-8.252,12.378A4.262,4.262,0,0,0,29.249,48.5a7.3,7.3,0,0,1-5.37,2.139,26.126,26.126,0,0,1-2.641-1.911,1.953,1.953,0,0,1-.584-2.167c.873-2.427,3.479-8.072,10.658-15.252S44.137,21.527,46.564,20.654Z" style="fill:url(#linear-gradient-4)"/><path d="M53.427,38.615l.007.006a20.457,20.457,0,0,1-5.619,9.194,20.358,20.358,0,0,1-9.2,5.612C38.133,52.065,37.631,48.373,43,43S52.065,38.133,53.427,38.615Z" style="fill:#8f030e"/><path d="M48.5,29.249a7.3,7.3,0,0,0,2.139-5.37c2.1,3.348,4.38,8.712,2.785,14.736C52.065,38.133,48.373,37.631,43,43s-4.869,9.063-4.387,10.425c-6.024,1.595-11.388-.688-14.736-2.785a7.3,7.3,0,0,0,5.37-2.139A4.262,4.262,0,0,1,26.5,47.128c-1.375-1.375,4.127-8.252,8.252-12.378s11-9.627,12.378-8.252A4.262,4.262,0,0,1,48.5,29.249Z" style="fill:url(#linear-gradient-5)"/><path d="M46.564,20.654a1.953,1.953,0,0,1,2.167.584,26.126,26.126,0,0,1,1.911,2.641,7.3,7.3,0,0,1-2.139,5.37A4.262,4.262,0,0,0,47.128,26.5c-1.375-1.375-8.252,4.127-12.378,8.252s-9.627,11-8.252,12.378A4.262,4.262,0,0,0,29.249,48.5a7.3,7.3,0,0,1-5.37,2.139,26.126,26.126,0,0,1-2.641-1.911,1.953,1.953,0,0,1-.584-2.167c.873-2.427,3.479-8.072,10.658-15.252S44.137,21.527,46.564,20.654Z" style="fill:url(#linear-gradient-6)"/><path d="M15.5,41.627s5.039,6.579,5.046,9.363a5.046,5.046,0,1,1-10.092,0C10.458,48.206,15.5,41.627,15.5,41.627Z" style="fill:url(#linear-gradient-7)"/><path d="M14.882,43.635a.749.749,0,0,1,1.231,0c.765,1.1,1.971,2.98,1.973,3.955a2.589,2.589,0,0,1-5.178,0C12.91,46.615,14.117,44.731,14.882,43.635Z" style="fill:url(#linear-gradient-8)"/><path d="M12.085,51.915A4.245,4.245,0,0,0,15.5,54.19a4.249,4.249,0,0,0,3.413-2.274,3.413,3.413,0,0,1-6.825,0Z" style="fill:url(#linear-gradient-9)"/><path d="M41.627,15.5s6.579,5.039,9.363,5.046a5.046,5.046,0,1,0,0-10.092C48.206,10.458,41.627,15.5,41.627,15.5Z" style="fill:url(#linear-gradient-10)"/><path d="M43.635,14.882a.749.749,0,0,0,0,1.231c1.1.765,2.98,1.971,3.955,1.973a2.589,2.589,0,0,0,0-5.178C46.615,12.91,44.731,14.117,43.635,14.882Z" style="fill:url(#linear-gradient-11)"/><path d="M51.915,12.085A4.245,4.245,0,0,1,54.19,15.5a4.249,4.249,0,0,1-2.274,3.413,3.413,3.413,0,0,0,0-6.825Z" style="fill:url(#linear-gradient-12)"/><path d="M21.918,52.366C21.911,49.581,15.5,41.627,15.5,41.627s5.039,6.579,5.046,9.363a5.048,5.048,0,0,1-7.861,4.19c.025.038.058.069.085.106.642.547,1.409,1.151,2.3,1.779a5.021,5.021,0,0,0,6.855-4.7Z" style="fill:#ed8d06"/><path d="M55.18,12.682a5.048,5.048,0,0,1-4.19,7.861c-2.784-.006-9.363-5.046-9.363-5.046s7.954,6.415,10.738,6.422a5.021,5.021,0,0,0,4.7-6.855c-.627-.888-1.232-1.655-1.779-2.3C55.248,12.741,55.217,12.708,55.18,12.682Z" style="fill:#ed8d06"/><path d="M23.454,11.077s3.5-8.506,15.422-5.207A29.243,29.243,0,0,0,23.454,11.077Z" style="fill:url(#linear-gradient-13)"/><path d="M11.077,23.454s-8.506,3.5-5.207,15.422A29.243,29.243,0,0,1,11.077,23.454Z" style="fill:url(#linear-gradient-14)"/></g></svg>