<svg xmlns="http://www.w3.org/2000/svg" xmlns:xlink="http://www.w3.org/1999/xlink" viewBox="0 0 64 64"><defs><linearGradient id="linear-gradient" x1="32" y1="1.304" x2="32" y2="63.304" gradientUnits="userSpaceOnUse"><stop offset="0" stop-color="#ffe100"/><stop offset="1" stop-color="#f98900"/></linearGradient><radialGradient id="radial-gradient" cx="-16.908" cy="50.997" r="8.5" gradientTransform="translate(38.871 -30.996) scale(1.412)" gradientUnits="userSpaceOnUse"><stop offset="0" stop-color="#f60"/><stop offset="0.098" stop-color="#ff6800" stop-opacity="0.978"/><stop offset="0.222" stop-color="#fe6d01" stop-opacity="0.916"/><stop offset="0.36" stop-color="#fe7501" stop-opacity="0.814"/><stop offset="0.509" stop-color="#fd8003" stop-opacity="0.672"/><stop offset="0.666" stop-color="#fc8e04" stop-opacity="0.488"/><stop offset="0.83" stop-color="#fba006" stop-opacity="0.264"/><stop offset="0.997" stop-color="#f9b508" stop-opacity="0.004"/><stop offset="1" stop-color="#f9b508" stop-opacity="0"/></radialGradient><linearGradient id="linear-gradient-2" x1="43" y1="28.963" x2="43" y2="20.906" gradientUnits="userSpaceOnUse"><stop offset="0" stop-color="#803f02"/><stop offset="0.174" stop-color="#6d3602"/><stop offset="0.515" stop-color="#4d2601"/><stop offset="0.802" stop-color="#3a1c01"/><stop offset="1" stop-color="#331901"/></linearGradient><linearGradient id="linear-gradient-3" x1="35" y1="52.187" x2="35" y2="41.045" gradientUnits="userSpaceOnUse"><stop offset="0" stop-color="#df6802"/><stop offset="0.096" stop-color="#d96702"/><stop offset="0.223" stop-color="#c96203"/><stop offset="0.364" stop-color="#ae5c03"/><stop offset="0.505" stop-color="#8c5304"/><stop offset="0.554" stop-color="#9b5704"/><stop offset="0.67" stop-color="#b95e03"/><stop offset="0.785" stop-color="#ce6402"/><stop offset="0.896" stop-color="#db6702"/><stop offset="1" stop-color="#df6802"/></linearGradient><linearGradient id="linear-gradient-4" x1="54.196" y1="34.137" x2="47.568" y2="53.692" gradientUnits="userSpaceOnUse"><stop offset="0" stop-color="#ff5f6f"/><stop offset="0.346" stop-color="#ff2d44"/><stop offset="0.722" stop-color="#d41e32"/><stop offset="0.853" stop-color="#d61f33"/><stop offset="0.918" stop-color="#de2337"/><stop offset="0.968" stop-color="#eb293e"/><stop offset="1" stop-color="#f82f44"/></linearGradient><linearGradient id="linear-gradient-5" x1="53.39" y1="33.943" x2="51.95" y2="41.215" gradientUnits="userSpaceOnUse"><stop offset="0" stop-color="#ff8a95"/><stop offset="0.66" stop-color="#ff495d"/><stop offset="1" stop-color="#ff2d44"/></linearGradient><linearGradient id="linear-gradient-6" x1="59.638" y1="40.443" x2="58.13" y2="44.741" gradientUnits="userSpaceOnUse"><stop offset="0" stop-color="#ff5f5f"/><stop offset="0.283" stop-color="#ff565a"/><stop offset="0.746" stop-color="#ff3d4d"/><stop offset="1" stop-color="#ff2d44"/></linearGradient><linearGradient id="linear-gradient-7" x1="50.627" y1="38.547" x2="49.637" y2="41.368" xlink:href="#linear-gradient-6"/><linearGradient id="linear-gradient-8" x1="35.559" y1="41.864" x2="32.84" y2="44.885" gradientUnits="userSpaceOnUse"><stop offset="0" stop-color="#ffe100"/><stop offset="1" stop-color="#f98900" stop-opacity="0"/></linearGradient><linearGradient id="linear-gradient-9" x1="34.559" y1="47.864" x2="31.84" y2="50.885" xlink:href="#linear-gradient-8"/><linearGradient id="linear-gradient-10" x1="20" y1="31.019" x2="20" y2="19.568" gradientUnits="userSpaceOnUse"><stop offset="0.005" stop-color="#414d4d"/><stop offset="0.206" stop-color="#3a4545"/><stop offset="0.522" stop-color="#272e2e"/><stop offset="0.914" stop-color="#080909"/><stop offset="1"/></linearGradient><linearGradient id="linear-gradient-11" x1="19.088" y1="21.166" x2="19.088" y2="23.162" gradientUnits="userSpaceOnUse"><stop offset="0.005" stop-color="#505e5e"/><stop offset="0.374" stop-color="#4b5656"/><stop offset="0.955" stop-color="#3e3f3f"/><stop offset="1" stop-color="#3d3d3d"/></linearGradient><linearGradient id="linear-gradient-12" x1="20" y1="30.756" x2="20" y2="19.401" gradientUnits="userSpaceOnUse"><stop offset="0.005" stop-color="#1b2121"/><stop offset="0.374" stop-color="#141919"/><stop offset="0.955" stop-color="#020202"/><stop offset="1"/></linearGradient></defs><g id="_15-_Face_Blowing_a_Kiss" data-name="15- Face Blowing a Kiss"><path d="M32,63C4.3,63,.962,39,1,33V31C.962,25,4.3,1,32,1h0C59.7,1,63.038,25,63,31v2C63.038,39,59.7,63,32,63Z" style="fill:url(#linear-gradient)"/><circle cx="15" cy="41" r="12" style="fill:url(#radial-gradient)"/><path d="M48,26.5c0-3-2-6-5-6s-5,3-5,6c0,.181.014.332.021.5-.013.167-.021.335-.021.5,0,3,1,4,1,4s1-6,4-6,4,6,4,6,1-1,1-4c0-.167-.008-.335-.021-.5C47.986,26.832,48,26.681,48,26.5Z" style="fill:#eda406"/><path d="M39,30.5s-1-1-1-4,2-6,5-6,5,3,5,6-1,4-1,4-1-6-4-6S39,30.5,39,30.5Z" style="fill:url(#linear-gradient-2)"/><path d="M39,44c0-2.653-4.691-2.96-7.16-2.995a2.105,2.105,0,0,0-.508.057C33.831,41.225,37,41.819,37,44c0,3-6,3-6,3s5,0,5,3c0,1.8-2.528,2.521-4.546,2.808a1.978,1.978,0,0,0,.832.131C34.307,52.775,38,52.179,38,50c0-3-5-3-5-3S39,47,39,44Z" style="fill:url(#linear-gradient-3)"/><path d="M61.93,38.762a5.376,5.376,0,0,0-2.766-1.554,9.835,9.835,0,0,0-1.459-.265,7.848,7.848,0,0,0-2.358.1c-.165.033-.322.071-.471.112a6.354,6.354,0,0,0-1.122.427,5.575,5.575,0,0,0-.5.285c-.134.087-.236.162-.3.215s-.1.085-.1.085-1.129-2.876-5.267-3.941a6.771,6.771,0,0,0-1.44-.221,4.755,4.755,0,0,0-4.757,3.4c-.038.109-.07.214-.1.313,0,.019-.007.038-.012.057a5.765,5.765,0,0,0-.988,1.943,7.49,7.49,0,0,0-.111,3.643A27.324,27.324,0,0,0,47.615,56a25.805,25.805,0,0,0,9.89-5.162,33.259,33.259,0,0,0,4.781-11.606A4.036,4.036,0,0,0,61.93,38.762Z" style="fill:#ed8d06"/><path d="M59.164,37.208c-4.137-1.065-6.318.959-6.318.959s-1.129-2.876-5.266-3.941a4.854,4.854,0,0,0-6.3,3.491,7.49,7.49,0,0,0-.111,3.643A27.324,27.324,0,0,0,48.615,54,26,26,0,0,0,61,46.463a7.7,7.7,0,0,0,1.8-3.208A4.633,4.633,0,0,0,59.164,37.208Z" style="fill:#ec3a4a"/><path d="M59.164,37.208c-4.137-1.065-6.318.959-6.318.959s-1.129-2.876-5.266-3.941a4.854,4.854,0,0,0-6.3,3.491,7.49,7.49,0,0,0-.111,3.643A27.324,27.324,0,0,0,48.615,54,26,26,0,0,0,61,46.463a7.7,7.7,0,0,0,1.8-3.208A4.633,4.633,0,0,0,59.164,37.208Z" style="fill:url(#linear-gradient-4)"/><path d="M46.9,35.713c4.307,1.11,5.51,4.006,5.51,4.006s2.243-2.008,6.551-.9c2.739.705,3.722,2.337,3.964,3.841.276-1.724-.083-4.508-3.762-5.454-4.137-1.065-6.318.959-6.318.959s-1.129-2.876-5.266-3.941a4.78,4.78,0,0,0-6.075,2.86C42.5,35.922,44.2,35.017,46.9,35.713Z" style="fill:url(#linear-gradient-5)"/><path d="M57.3,43.257a1.389,1.389,0,0,0,1.488,1.568,3.683,3.683,0,0,0,.9-.213,2.156,2.156,0,0,0,1.01-3.582c-.611-.717-2.764-1.838-3.5-.73-.339.512.1,1.427.129,1.993A5.547,5.547,0,0,1,57.3,43.257Z" style="fill:url(#linear-gradient-6)"/><path d="M49.552,40.449c-.043.6.256,1.11.595,1.045a1.021,1.021,0,0,0,.362-.141,1.731,1.731,0,0,0,.644-1.477,2.228,2.228,0,0,0-.24-.911c-.244-.478-1.106-1.226-1.4-.487a4.025,4.025,0,0,0,.052,1.329C49.571,40.021,49.567,40.236,49.552,40.449Z" style="fill:url(#linear-gradient-7)"/><path d="M33.1,41.958c-.255.183-.534.409-.552.722a.834.834,0,0,0,.371.662c.207.162.45.277.644.455.276.252.434.61.688.885a.807.807,0,0,0,1,.238.9.9,0,0,0,.245-.3,2.5,2.5,0,0,0,.348-1.11.85.85,0,0,0-.066-.446,2.346,2.346,0,0,0-.247-.411A1.868,1.868,0,0,0,33.1,41.958Z" style="fill:url(#linear-gradient-8)"/><path d="M32.1,47.958c-.255.183-.534.409-.552.722a.834.834,0,0,0,.371.662c.207.162.45.277.644.455.276.252.434.61.688.885a.807.807,0,0,0,1,.238.9.9,0,0,0,.245-.3,2.5,2.5,0,0,0,.348-1.11.85.85,0,0,0-.066-.446,2.346,2.346,0,0,0-.247-.411A1.868,1.868,0,0,0,32.1,47.958Z" style="fill:url(#linear-gradient-9)"/><path d="M24,25c0-3.314-1.791-6-4-6s-4,2.686-4,6c0,.169.008.335.017.5-.009.165-.017.331-.017.5,0,3.314,1.791,6,4,6s4-2.686,4-6c0-.169-.008-.335-.017-.5C23.992,25.335,24,25.169,24,25Z" style="fill:#ffd000"/><path d="M24,24c0-3.314-1.791-6-4-6s-4,2.686-4,6c0,.169.008.335.017.5-.009.165-.017.331-.017.5,0,3.314,1.791,6,4,6s4-2.686,4-6c0-.169-.008-.335-.017-.5C23.992,24.335,24,24.169,24,24Z" style="fill:#eda406"/><ellipse cx="20" cy="25" rx="4" ry="6" style="fill:url(#linear-gradient-10)"/><path d="M20,23c1.741,0,3.218,1.671,3.768,4A8.755,8.755,0,0,0,24,25c0-3.314-1.791-6-4-6s-4,2.686-4,6a8.755,8.755,0,0,0,.232,2C16.782,24.671,18.259,23,20,23Z"/><path d="M18.7,21.387a1.737,1.737,0,0,0-.514,1.053.547.547,0,0,0,.018.258.447.447,0,0,0,.259.242.953.953,0,0,0,.969-.2c.328-.285.756-1.06.488-1.506C19.63,20.759,18.985,21.11,18.7,21.387Z" style="fill:url(#linear-gradient-11)"/><path d="M20,19c-2.209,0-4,2.686-4,6s1.791,6,4,6,4-2.686,4-6S22.209,19,20,19Zm0,10.5c-1.657,0-3-2.127-3-4.75S18.343,20,20,20s3,2.127,3,4.75S21.657,29.5,20,29.5Z" style="fill:url(#linear-gradient-12)"/><path d="M43,20.5c2.833,0,4.771,2.674,4.979,5.5.007-.166.021-.317.021-.5,0-3-2-6-5-6s-5,3-5,6c0,.181.014.332.021.5C38.229,23.174,40.167,20.5,43,20.5Z" style="fill:#ffd000"/></g></svg><svg xmlns="http://www.w3.org/2000/svg" xmlns:xlink="http://www.w3.org/1999/xlink" viewBox="0 0 64 64"><defs><linearGradient id="linear-gradient" x1="32" y1="1.304" x2="32" y2="63.304" gradientUnits="userSpaceOnUse"><stop offset="0" stop-color="#ffe100"/><stop offset="1" stop-color="#f98900"/></linearGradient><radialGradient id="radial-gradient" cx="-16.908" cy="50.997" r="8.5" gradientTransform="translate(38.871 -30.996) scale(1.412)" gradientUnits="userSpaceOnUse"><stop offset="0" stop-color="#f60"/><stop offset="0.098" stop-color="#ff6800" stop-opacity="0.978"/><stop offset="0.222" stop-color="#fe6d01" stop-opacity="0.916"/><stop offset="0.36" stop-color="#fe7501" stop-opacity="0.814"/><stop offset="0.509" stop-color="#fd8003" stop-opacity="0.672"/><stop offset="0.666" stop-color="#fc8e04" stop-opacity="0.488"/><stop offset="0.83" stop-color="#fba006" stop-opacity="0.264"/><stop offset="0.997" stop-color="#f9b508" stop-opacity="0.004"/><stop offset="1" stop-color="#f9b508" stop-opacity="0"/></radialGradient><linearGradient id="linear-gradient-2" x1="43" y1="28.963" x2="43" y2="20.906" gradientUnits="userSpaceOnUse"><stop offset="0" stop-color="#803f02"/><stop offset="0.174" stop-color="#6d3602"/><stop offset="0.515" stop-color="#4d2601"/><stop offset="0.802" stop-color="#3a1c01"/><stop offset="1" stop-color="#331901"/></linearGradient><linearGradient id="linear-gradient-3" x1="35" y1="52.187" x2="35" y2="41.045" gradientUnits="userSpaceOnUse"><stop offset="0" stop-color="#df6802"/><stop offset="0.096" stop-color="#d96702"/><stop offset="0.223" stop-color="#c96203"/><stop offset="0.364" stop-color="#ae5c03"/><stop offset="0.505" stop-color="#8c5304"/><stop offset="0.554" stop-color="#9b5704"/><stop offset="0.67" stop-color="#b95e03"/><stop offset="0.785" stop-color="#ce6402"/><stop offset="0.896" stop-color="#db6702"/><stop offset="1" stop-color="#df6802"/></linearGradient><linearGradient id="linear-gradient-4" x1="54.196" y1="34.137" x2="47.568" y2="53.692" gradientUnits="userSpaceOnUse"><stop offset="0" stop-color="#ff5f6f"/><stop offset="0.346" stop-color="#ff2d44"/><stop offset="0.722" stop-color="#d41e32"/><stop offset="0.853" stop-color="#d61f33"/><stop offset="0.918" stop-color="#de2337"/><stop offset="0.968" stop-color="#eb293e"/><stop offset="1" stop-color="#f82f44"/></linearGradient><linearGradient id="linear-gradient-5" x1="53.39" y1="33.943" x2="51.95" y2="41.215" gradientUnits="userSpaceOnUse"><stop offset="0" stop-color="#ff8a95"/><stop offset="0.66" stop-color="#ff495d"/><stop offset="1" stop-color="#ff2d44"/></linearGradient><linearGradient id="linear-gradient-6" x1="59.638" y1="40.443" x2="58.13" y2="44.741" gradientUnits="userSpaceOnUse"><stop offset="0" stop-color="#ff5f5f"/><stop offset="0.283" stop-color="#ff565a"/><stop offset="0.746" stop-color="#ff3d4d"/><stop offset="1" stop-color="#ff2d44"/></linearGradient><linearGradient id="linear-gradient-7" x1="50.627" y1="38.547" x2="49.637" y2="41.368" xlink:href="#linear-gradient-6"/><linearGradient id="linear-gradient-8" x1="35.559" y1="41.864" x2="32.84" y2="44.885" gradientUnits="userSpaceOnUse"><stop offset="0" stop-color="#ffe100"/><stop offset="1" stop-color="#f98900" stop-opacity="0"/></linearGradient><linearGradient id="linear-gradient-9" x1="34.559" y1="47.864" x2="31.84" y2="50.885" xlink:href="#linear-gradient-8"/><linearGradient id="linear-gradient-10" x1="20" y1="31.019" x2="20" y2="19.568" gradientUnits="userSpaceOnUse"><stop offset="0.005" stop-color="#414d4d"/><stop offset="0.206" stop-color="#3a4545"/><stop offset="0.522" stop-color="#272e2e"/><stop offset="0.914" stop-color="#080909"/><stop offset="1"/></linearGradient><linearGradient id="linear-gradient-11" x1="19.088" y1="21.166" x2="19.088" y2="23.162" gradientUnits="userSpaceOnUse"><stop offset="0.005" stop-color="#505e5e"/><stop offset="0.374" stop-color="#4b5656"/><stop offset="0.955" stop-color="#3e3f3f"/><stop offset="1" stop-color="#3d3d3d"/></linearGradient><linearGradient id="linear-gradient-12" x1="20" y1="30.756" x2="20" y2="19.401" gradientUnits="userSpaceOnUse"><stop offset="0.005" stop-color="#1b2121"/><stop offset="0.374" stop-color="#141919"/><stop offset="0.955" stop-color="#020202"/><stop offset="1"/></linearGradient></defs><g id="_15-_Face_Blowing_a_Kiss" data-name="15- Face Blowing a Kiss"><path d="M32,63C4.3,63,.962,39,1,33V31C.962,25,4.3,1,32,1h0C59.7,1,63.038,25,63,31v2C63.038,39,59.7,63,32,63Z" style="fill:url(#linear-gradient)"/><circle cx="15" cy="41" r="12" style="fill:url(#radial-gradient)"/><path d="M48,26.5c0-3-2-6-5-6s-5,3-5,6c0,.181.014.332.021.5-.013.167-.021.335-.021.5,0,3,1,4,1,4s1-6,4-6,4,6,4,6,1-1,1-4c0-.167-.008-.335-.021-.5C47.986,26.832,48,26.681,48,26.5Z" style="fill:#eda406"/><path d="M39,30.5s-1-1-1-4,2-6,5-6,5,3,5,6-1,4-1,4-1-6-4-6S39,30.5,39,30.5Z" style="fill:url(#linear-gradient-2)"/><path d="M39,44c0-2.653-4.691-2.96-7.16-2.995a2.105,2.105,0,0,0-.508.057C33.831,41.225,37,41.819,37,44c0,3-6,3-6,3s5,0,5,3c0,1.8-2.528,2.521-4.546,2.808a1.978,1.978,0,0,0,.832.131C34.307,52.775,38,52.179,38,50c0-3-5-3-5-3S39,47,39,44Z" style="fill:url(#linear-gradient-3)"/><path d="M61.93,38.762a5.376,5.376,0,0,0-2.766-1.554,9.835,9.835,0,0,0-1.459-.265,7.848,7.848,0,0,0-2.358.1c-.165.033-.322.071-.471.112a6.354,6.354,0,0,0-1.122.427,5.575,5.575,0,0,0-.5.285c-.134.087-.236.162-.3.215s-.1.085-.1.085-1.129-2.876-5.267-3.941a6.771,6.771,0,0,0-1.44-.221,4.755,4.755,0,0,0-4.757,3.4c-.038.109-.07.214-.1.313,0,.019-.007.038-.012.057a5.765,5.765,0,0,0-.988,1.943,7.49,7.49,0,0,0-.111,3.643A27.324,27.324,0,0,0,47.615,56a25.805,25.805,0,0,0,9.89-5.162,33.259,33.259,0,0,0,4.781-11.606A4.036,4.036,0,0,0,61.93,38.762Z" style="fill:#ed8d06"/><path d="M59.164,37.208c-4.137-1.065-6.318.959-6.318.959s-1.129-2.876-5.266-3.941a4.854,4.854,0,0,0-6.3,3.491,7.49,7.49,0,0,0-.111,3.643A27.324,27.324,0,0,0,48.615,54,26,26,0,0,0,61,46.463a7.7,7.7,0,0,0,1.8-3.208A4.633,4.633,0,0,0,59.164,37.208Z" style="fill:#ec3a4a"/><path d="M59.164,37.208c-4.137-1.065-6.318.959-6.318.959s-1.129-2.876-5.266-3.941a4.854,4.854,0,0,0-6.3,3.491,7.49,7.49,0,0,0-.111,3.643A27.324,27.324,0,0,0,48.615,54,26,26,0,0,0,61,46.463a7.7,7.7,0,0,0,1.8-3.208A4.633,4.633,0,0,0,59.164,37.208Z" style="fill:url(#linear-gradient-4)"/><path d="M46.9,35.713c4.307,1.11,5.51,4.006,5.51,4.006s2.243-2.008,6.551-.9c2.739.705,3.722,2.337,3.964,3.841.276-1.724-.083-4.508-3.762-5.454-4.137-1.065-6.318.959-6.318.959s-1.129-2.876-5.266-3.941a4.78,4.78,0,0,0-6.075,2.86C42.5,35.922,44.2,35.017,46.9,35.713Z" style="fill:url(#linear-gradient-5)"/><path d="M57.3,43.257a1.389,1.389,0,0,0,1.488,1.568,3.683,3.683,0,0,0,.9-.213,2.156,2.156,0,0,0,1.01-3.582c-.611-.717-2.764-1.838-3.5-.73-.339.512.1,1.427.129,1.993A5.547,5.547,0,0,1,57.3,43.257Z" style="fill:url(#linear-gradient-6)"/><path d="M49.552,40.449c-.043.6.256,1.11.595,1.045a1.021,1.021,0,0,0,.362-.141,1.731,1.731,0,0,0,.644-1.477,2.228,2.228,0,0,0-.24-.911c-.244-.478-1.106-1.226-1.4-.487a4.025,4.025,0,0,0,.052,1.329C49.571,40.021,49.567,40.236,49.552,40.449Z" style="fill:url(#linear-gradient-7)"/><path d="M33.1,41.958c-.255.183-.534.409-.552.722a.834.834,0,0,0,.371.662c.207.162.45.277.644.455.276.252.434.61.688.885a.807.807,0,0,0,1,.238.9.9,0,0,0,.245-.3,2.5,2.5,0,0,0,.348-1.11.85.85,0,0,0-.066-.446,2.346,2.346,0,0,0-.247-.411A1.868,1.868,0,0,0,33.1,41.958Z" style="fill:url(#linear-gradient-8)"/><path d="M32.1,47.958c-.255.183-.534.409-.552.722a.834.834,0,0,0,.371.662c.207.162.45.277.644.455.276.252.434.61.688.885a.807.807,0,0,0,1,.238.9.9,0,0,0,.245-.3,2.5,2.5,0,0,0,.348-1.11.85.85,0,0,0-.066-.446,2.346,2.346,0,0,0-.247-.411A1.868,1.868,0,0,0,32.1,47.958Z" style="fill:url(#linear-gradient-9)"/><path d="M24,25c0-3.314-1.791-6-4-6s-4,2.686-4,6c0,.169.008.335.017.5-.009.165-.017.331-.017.5,0,3.314,1.791,6,4,6s4-2.686,4-6c0-.169-.008-.335-.017-.5C23.992,25.335,24,25.169,24,25Z" style="fill:#ffd000"/><path d="M24,24c0-3.314-1.791-6-4-6s-4,2.686-4,6c0,.169.008.335.017.5-.009.165-.017.331-.017.5,0,3.314,1.791,6,4,6s4-2.686,4-6c0-.169-.008-.335-.017-.5C23.992,24.335,24,24.169,24,24Z" style="fill:#eda406"/><ellipse cx="20" cy="25" rx="4" ry="6" style="fill:url(#linear-gradient-10)"/><path d="M20,23c1.741,0,3.218,1.671,3.768,4A8.755,8.755,0,0,0,24,25c0-3.314-1.791-6-4-6s-4,2.686-4,6a8.755,8.755,0,0,0,.232,2C16.782,24.671,18.259,23,20,23Z"/><path d="M18.7,21.387a1.737,1.737,0,0,0-.514,1.053.547.547,0,0,0,.018.258.447.447,0,0,0,.259.242.953.953,0,0,0,.969-.2c.328-.285.756-1.06.488-1.506C19.63,20.759,18.985,21.11,18.7,21.387Z" style="fill:url(#linear-gradient-11)"/><path d="M20,19c-2.209,0-4,2.686-4,6s1.791,6,4,6,4-2.686,4-6S22.209,19,20,19Zm0,10.5c-1.657,0-3-2.127-3-4.75S18.343,20,20,20s3,2.127,3,4.75S21.657,29.5,20,29.5Z" style="fill:url(#linear-gradient-12)"/><path d="M43,20.5c2.833,0,4.771,2.674,4.979,5.5.007-.166.021-.317.021-.5,0-3-2-6-5-6s-5,3-5,6c0,.181.014.332.021.5C38.229,23.174,40.167,20.5,43,20.5Z" style="fill:#ffd000"/></g></svg>