<svg xmlns="http://www.w3.org/2000/svg" xmlns:xlink="http://www.w3.org/1999/xlink" viewBox="0 0 64 64"><defs><linearGradient id="linear-gradient" x1="32" y1="1.304" x2="32" y2="63.304" gradientUnits="userSpaceOnUse"><stop offset="0" stop-color="#ffe100"/><stop offset="1" stop-color="#f98900"/></linearGradient><linearGradient id="linear-gradient-2" x1="43" y1="27.725" x2="43" y2="18.193" gradientUnits="userSpaceOnUse"><stop offset="0.005" stop-color="#414d4d"/><stop offset="0.206" stop-color="#3a4545"/><stop offset="0.522" stop-color="#272e2e"/><stop offset="0.914" stop-color="#080909"/><stop offset="1"/></linearGradient><linearGradient id="linear-gradient-3" x1="21" y1="27.856" x2="21" y2="18.875" xlink:href="#linear-gradient-2"/><linearGradient id="linear-gradient-4" x1="32" y1="53.575" x2="32" y2="37.666" gradientUnits="userSpaceOnUse"><stop offset="0" stop-color="#911625"/><stop offset="0.212" stop-color="#861422"/><stop offset="0.588" stop-color="#68101a"/><stop offset="1" stop-color="#400a10"/></linearGradient></defs><g id="_17-_Face_with_Open_Mouth" data-name="17- Face with Open Mouth"><path d="M32,63C4.3,63,.962,39,1,33V31C.962,25,4.3,1,32,1h0C59.7,1,63.038,25,63,31v2C63.038,39,59.7,63,32,63Z" style="fill:url(#linear-gradient)"/><path d="M46,22c0-2.761-1.343-5-3-5s-3,2.239-3,5c0,.171.02.333.03.5-.01.167-.03.329-.03.5,0,2.761,1.343,5,3,5s3-2.239,3-5c0-.171-.02-.333-.03-.5C45.98,22.333,46,22.171,46,22Z" style="fill:#eda406"/><path d="M24,22c0-2.761-1.343-5-3-5s-3,2.239-3,5c0,.171.02.333.03.5-.01.167-.03.329-.03.5,0,2.761,1.343,5,3,5s3-2.239,3-5c0-.171-.02-.333-.03-.5C23.98,22.333,24,22.171,24,22Z" style="fill:#eda406"/><path d="M46,23c0-2.761-1.343-5-3-5s-3,2.239-3,5c0,.171.02.333.03.5-.01.167-.03.329-.03.5,0,2.761,1.343,5,3,5s3-2.239,3-5c0-.171-.02-.333-.03-.5C45.98,23.333,46,23.171,46,23Z" style="fill:#ffd000"/><path d="M24,23c0-2.761-1.343-5-3-5s-3,2.239-3,5c0,.171.02.333.03.5-.01.167-.03.329-.03.5,0,2.761,1.343,5,3,5s3-2.239,3-5c0-.171-.02-.333-.03-.5C23.98,23.333,24,23.171,24,23Z" style="fill:#ffd000"/><ellipse cx="43" cy="23" rx="3" ry="5" style="fill:url(#linear-gradient-2)"/><ellipse cx="21" cy="23" rx="3" ry="5" style="fill:url(#linear-gradient-3)"/><path d="M43,21c1.451,0,2.661.718,2.94,3A8.343,8.343,0,0,0,46,23c0-2.761-1.343-5-3-5s-3,2.239-3,5a8.343,8.343,0,0,0,.06,1C40.339,21.718,41.549,21,43,21Z"/><path d="M21,21c1.451,0,2.661.718,2.94,3A8.343,8.343,0,0,0,24,23c0-2.761-1.343-5-3-5s-3,2.239-3,5a8.343,8.343,0,0,0,.06,1C18.339,21.718,19.549,21,21,21Z"/><path d="M38,45c0-4.418-2.686-8-6-8s-6,3.582-6,8c0,.169.011.334.019.5-.008.166-.019.331-.019.5,0,4.418,2.686,8,6,8s6-3.582,6-8c0-.169-.011-.334-.019-.5C37.989,45.334,38,45.169,38,45Z" style="fill:#ffd000"/><path d="M38,44c0-4.418-2.686-8-6-8s-6,3.582-6,8c0,.169.011.334.019.5-.008.166-.019.331-.019.5,0,4.418,2.686,8,6,8s6-3.582,6-8c0-.169-.011-.334-.019-.5C37.989,44.334,38,44.169,38,44Z" style="fill:#e38706"/><ellipse cx="32" cy="45" rx="6" ry="8" style="fill:url(#linear-gradient-4)"/></g></svg>