<svg xmlns="http://www.w3.org/2000/svg" xmlns:xlink="http://www.w3.org/1999/xlink" viewBox="0 0 64 64"><defs><linearGradient id="linear-gradient" x1="32" y1="3.294" x2="32" y2="63.294" gradientUnits="userSpaceOnUse"><stop offset="0" stop-color="#ffe100"/><stop offset="1" stop-color="#f98900"/></linearGradient><linearGradient id="linear-gradient-2" x1="43" y1="30.963" x2="43" y2="22.906" gradientUnits="userSpaceOnUse"><stop offset="0" stop-color="#803f02"/><stop offset="0.174" stop-color="#6d3602"/><stop offset="0.515" stop-color="#4d2601"/><stop offset="0.802" stop-color="#3a1c01"/><stop offset="1" stop-color="#331901"/></linearGradient><linearGradient id="linear-gradient-3" x1="21" y1="30.963" x2="21" y2="22.906" xlink:href="#linear-gradient-2"/><linearGradient id="linear-gradient-4" x1="32" y1="48.55" x2="32" y2="42.885" xlink:href="#linear-gradient-2"/><linearGradient id="linear-gradient-5" x1="32" y1="16.6" x2="32" y2="2.025" gradientUnits="userSpaceOnUse"><stop offset="0" stop-color="#96f0ff"/><stop offset="0.3" stop-color="#87ebff"/><stop offset="0.875" stop-color="#5fdfff"/><stop offset="1" stop-color="#56dcff"/></linearGradient><linearGradient id="linear-gradient-6" x1="32" y1="1.075" x2="32" y2="16.765" gradientUnits="userSpaceOnUse"><stop offset="0" stop-color="#96f0ff" stop-opacity="0"/><stop offset="0.073" stop-color="#91eeff" stop-opacity="0.059"/><stop offset="0.214" stop-color="#83e8ff" stop-opacity="0.216"/><stop offset="0.408" stop-color="#6cdeff" stop-opacity="0.468"/><stop offset="0.646" stop-color="#4ed1ff" stop-opacity="0.812"/><stop offset="0.74" stop-color="#41ccff" stop-opacity="0.955"/><stop offset="0.854" stop-color="#3fb5ff" stop-opacity="0.972"/><stop offset="1" stop-color="#3d91ff"/></linearGradient><linearGradient id="linear-gradient-7" x1="32" y1="1.919" x2="32" y2="3.907" gradientUnits="userSpaceOnUse"><stop offset="0" stop-color="#56d4fd"/><stop offset="0.96" stop-color="#4eb5fc"/><stop offset="1" stop-color="#4eb4fc"/></linearGradient><linearGradient id="linear-gradient-8" x1="31.763" y1="28.556" x2="32.044" y2="11.85" gradientUnits="userSpaceOnUse"><stop offset="0" stop-color="#ffe100" stop-opacity="0"/><stop offset="1" stop-color="#f98900"/></linearGradient></defs><g id="_18-Smiling_Face_with_Halo" data-name="18-Smiling Face with Halo"><path d="M32,63C5.2,63,1.963,39.774,2,33.968V32.032C1.963,26.226,5.2,3,32,3h0C58.8,3,62.037,26.226,62,32.032v1.936C62.037,39.774,58.8,63,32,63Z" style="fill:url(#linear-gradient)"/><path d="M48,28.5c0-3-2-6-5-6s-5,3-5,6c0,.181.014.332.021.5-.013.167-.021.335-.021.5,0,3,1,4,1,4s1-6,4-6,4,6,4,6,1-1,1-4c0-.167-.008-.335-.021-.5C47.986,28.832,48,28.681,48,28.5Z" style="fill:#ed8d06"/><path d="M21,22.5c-3,0-5,3-5,6,0,.181.014.332.021.5-.013.167-.021.335-.021.5,0,3,1,4,1,4s1-6,4-6,4,6,4,6,1-1,1-4c0-.167-.008-.335-.021-.5.007-.166.021-.317.021-.5C26,25.5,24,22.5,21,22.5Z" style="fill:#ed8d06"/><path d="M39,32.5s-1-1-1-4,2-6,5-6,5,3,5,6-1,4-1,4-1-6-4-6S39,32.5,39,32.5Z" style="fill:url(#linear-gradient-2)"/><path d="M17,32.5s-1-1-1-4,2-6,5-6,5,3,5,6-1,4-1,4-1-6-4-6S17,32.5,17,32.5Z" style="fill:url(#linear-gradient-3)"/><path d="M32,46c-11.294,0-16-8-16-8a14.5,14.5,0,0,0,6.907,8.653,18.79,18.79,0,0,0,18.186,0A14.5,14.5,0,0,0,48,38S43.294,46,32,46Z" style="fill:#f9bf06"/><path d="M32,45c-11.294,0-16-7-16-7s1.256,4.527,6.907,7.653a18.79,18.79,0,0,0,18.186,0C46.744,42.527,48,38,48,38S43.294,45,32,45Z" style="fill:#ed8d06"/><path d="M48,38s-1.256,4.527-6.907,7.653a18.79,18.79,0,0,1-18.186,0C17.256,42.527,16,38,16,38s4.706,8,16,8S48,38,48,38Z" style="fill:url(#linear-gradient-4)"/><path d="M32,1C49.12,1,63,4.58,63,9s-13.88,8-31,8S1,13.42,1,9,14.88,1,32,1Zm20.83,9.23C54.85,9.72,56,9.13,56,8.5c0-1.34-5.19-2.99-12.82-3.87l-.04-.01A35.861,35.861,0,0,0,32,3,35.861,35.861,0,0,0,20.86,4.62a.076.076,0,0,0-.04.01C13.19,5.51,8,7.16,8,8.5c0,.63,1.15,1.22,3.17,1.73C15.31,11.29,23.09,12,32,12S48.69,11.29,52.83,10.23Z" style="fill:url(#linear-gradient-5)"/><path d="M32,1C49.12,1,63,4.58,63,9s-13.88,8-31,8S1,13.42,1,9,14.88,1,32,1Zm20.83,9.23C54.85,9.72,56,9.13,56,8.5c0-1.34-5.19-2.99-12.82-3.87l-.04-.01A35.861,35.861,0,0,0,32,3,35.861,35.861,0,0,0,20.86,4.62a.076.076,0,0,0-.04.01C13.19,5.51,8,7.16,8,8.5c0,.63,1.15,1.22,3.17,1.73C15.31,11.29,23.09,12,32,12S48.69,11.29,52.83,10.23Z" style="fill:url(#linear-gradient-6)"/><path d="M32,2C18.745,2,8,4.91,8,8.5c0-1.34,5.19-2.99,12.82-3.87a.076.076,0,0,1,.04-.01A35.861,35.861,0,0,1,32,3,35.861,35.861,0,0,1,43.14,4.62l.04.01C50.81,5.51,56,7.16,56,8.5,56,4.91,45.255,2,32,2Z" style="fill:url(#linear-gradient-7)"/><path d="M57.281,8.842a4.8,4.8,0,0,1-.686.423,1.3,1.3,0,0,0-.658,1.039c0,.4.366.615.724.7a2.1,2.1,0,0,0,.648.02,11.777,11.777,0,0,0,2.173-.383,4.55,4.55,0,0,0,1.865-.946A1.677,1.677,0,0,0,61.6,7.346a4.134,4.134,0,0,0-2.033-1.162,9.343,9.343,0,0,0-1.326-.29,2.91,2.91,0,0,0-.94-.018,1.166,1.166,0,0,0-.758.45c-.164.261.084.544.264.737s.386.355.56.551a.946.946,0,0,1,.258.5A.872.872,0,0,1,57.281,8.842Z" style="fill:#8aecff"/><path d="M6.631,8.842a4.739,4.739,0,0,0,.685.423A1.3,1.3,0,0,1,7.974,10.3c0,.4-.366.615-.724.7a2.1,2.1,0,0,1-.648.02,11.777,11.777,0,0,1-2.173-.383,4.55,4.55,0,0,1-1.865-.946,1.677,1.677,0,0,1-.257-2.345A4.134,4.134,0,0,1,4.34,6.184a9.373,9.373,0,0,1,1.326-.29,2.91,2.91,0,0,1,.94-.018,1.166,1.166,0,0,1,.758.45c.164.261-.083.544-.264.737s-.386.355-.56.551a.954.954,0,0,0-.258.5A.871.871,0,0,0,6.631,8.842Z" style="fill:#8aecff"/><path d="M9.3,14.446C11.068,18.729,20.556,22,32,22s20.932-3.271,22.7-7.554C49.04,16.017,40.967,17,32,17S14.96,16.017,9.3,14.446Z" style="fill:url(#linear-gradient-8)"/></g></svg><svg xmlns="http://www.w3.org/2000/svg" xmlns:xlink="http://www.w3.org/1999/xlink" viewBox="0 0 64 64"><defs><linearGradient id="linear-gradient" x1="32" y1="3.294" x2="32" y2="63.294" gradientUnits="userSpaceOnUse"><stop offset="0" stop-color="#ffe100"/><stop offset="1" stop-color="#f98900"/></linearGradient><linearGradient id="linear-gradient-2" x1="43" y1="30.963" x2="43" y2="22.906" gradientUnits="userSpaceOnUse"><stop offset="0" stop-color="#803f02"/><stop offset="0.174" stop-color="#6d3602"/><stop offset="0.515" stop-color="#4d2601"/><stop offset="0.802" stop-color="#3a1c01"/><stop offset="1" stop-color="#331901"/></linearGradient><linearGradient id="linear-gradient-3" x1="21" y1="30.963" x2="21" y2="22.906" xlink:href="#linear-gradient-2"/><linearGradient id="linear-gradient-4" x1="32" y1="48.55" x2="32" y2="42.885" xlink:href="#linear-gradient-2"/><linearGradient id="linear-gradient-5" x1="32" y1="16.6" x2="32" y2="2.025" gradientUnits="userSpaceOnUse"><stop offset="0" stop-color="#96f0ff"/><stop offset="0.3" stop-color="#87ebff"/><stop offset="0.875" stop-color="#5fdfff"/><stop offset="1" stop-color="#56dcff"/></linearGradient><linearGradient id="linear-gradient-6" x1="32" y1="1.075" x2="32" y2="16.765" gradientUnits="userSpaceOnUse"><stop offset="0" stop-color="#96f0ff" stop-opacity="0"/><stop offset="0.073" stop-color="#91eeff" stop-opacity="0.059"/><stop offset="0.214" stop-color="#83e8ff" stop-opacity="0.216"/><stop offset="0.408" stop-color="#6cdeff" stop-opacity="0.468"/><stop offset="0.646" stop-color="#4ed1ff" stop-opacity="0.812"/><stop offset="0.74" stop-color="#41ccff" stop-opacity="0.955"/><stop offset="0.854" stop-color="#3fb5ff" stop-opacity="0.972"/><stop offset="1" stop-color="#3d91ff"/></linearGradient><linearGradient id="linear-gradient-7" x1="32" y1="1.919" x2="32" y2="3.907" gradientUnits="userSpaceOnUse"><stop offset="0" stop-color="#56d4fd"/><stop offset="0.96" stop-color="#4eb5fc"/><stop offset="1" stop-color="#4eb4fc"/></linearGradient><linearGradient id="linear-gradient-8" x1="31.763" y1="28.556" x2="32.044" y2="11.85" gradientUnits="userSpaceOnUse"><stop offset="0" stop-color="#ffe100" stop-opacity="0"/><stop offset="1" stop-color="#f98900"/></linearGradient></defs><g id="_18-Smiling_Face_with_Halo" data-name="18-Smiling Face with Halo"><path d="M32,63C5.2,63,1.963,39.774,2,33.968V32.032C1.963,26.226,5.2,3,32,3h0C58.8,3,62.037,26.226,62,32.032v1.936C62.037,39.774,58.8,63,32,63Z" style="fill:url(#linear-gradient)"/><path d="M48,28.5c0-3-2-6-5-6s-5,3-5,6c0,.181.014.332.021.5-.013.167-.021.335-.021.5,0,3,1,4,1,4s1-6,4-6,4,6,4,6,1-1,1-4c0-.167-.008-.335-.021-.5C47.986,28.832,48,28.681,48,28.5Z" style="fill:#ed8d06"/><path d="M21,22.5c-3,0-5,3-5,6,0,.181.014.332.021.5-.013.167-.021.335-.021.5,0,3,1,4,1,4s1-6,4-6,4,6,4,6,1-1,1-4c0-.167-.008-.335-.021-.5.007-.166.021-.317.021-.5C26,25.5,24,22.5,21,22.5Z" style="fill:#ed8d06"/><path d="M39,32.5s-1-1-1-4,2-6,5-6,5,3,5,6-1,4-1,4-1-6-4-6S39,32.5,39,32.5Z" style="fill:url(#linear-gradient-2)"/><path d="M17,32.5s-1-1-1-4,2-6,5-6,5,3,5,6-1,4-1,4-1-6-4-6S17,32.5,17,32.5Z" style="fill:url(#linear-gradient-3)"/><path d="M32,46c-11.294,0-16-8-16-8a14.5,14.5,0,0,0,6.907,8.653,18.79,18.79,0,0,0,18.186,0A14.5,14.5,0,0,0,48,38S43.294,46,32,46Z" style="fill:#f9bf06"/><path d="M32,45c-11.294,0-16-7-16-7s1.256,4.527,6.907,7.653a18.79,18.79,0,0,0,18.186,0C46.744,42.527,48,38,48,38S43.294,45,32,45Z" style="fill:#ed8d06"/><path d="M48,38s-1.256,4.527-6.907,7.653a18.79,18.79,0,0,1-18.186,0C17.256,42.527,16,38,16,38s4.706,8,16,8S48,38,48,38Z" style="fill:url(#linear-gradient-4)"/><path d="M32,1C49.12,1,63,4.58,63,9s-13.88,8-31,8S1,13.42,1,9,14.88,1,32,1Zm20.83,9.23C54.85,9.72,56,9.13,56,8.5c0-1.34-5.19-2.99-12.82-3.87l-.04-.01A35.861,35.861,0,0,0,32,3,35.861,35.861,0,0,0,20.86,4.62a.076.076,0,0,0-.04.01C13.19,5.51,8,7.16,8,8.5c0,.63,1.15,1.22,3.17,1.73C15.31,11.29,23.09,12,32,12S48.69,11.29,52.83,10.23Z" style="fill:url(#linear-gradient-5)"/><path d="M32,1C49.12,1,63,4.58,63,9s-13.88,8-31,8S1,13.42,1,9,14.88,1,32,1Zm20.83,9.23C54.85,9.72,56,9.13,56,8.5c0-1.34-5.19-2.99-12.82-3.87l-.04-.01A35.861,35.861,0,0,0,32,3,35.861,35.861,0,0,0,20.86,4.62a.076.076,0,0,0-.04.01C13.19,5.51,8,7.16,8,8.5c0,.63,1.15,1.22,3.17,1.73C15.31,11.29,23.09,12,32,12S48.69,11.29,52.83,10.23Z" style="fill:url(#linear-gradient-6)"/><path d="M32,2C18.745,2,8,4.91,8,8.5c0-1.34,5.19-2.99,12.82-3.87a.076.076,0,0,1,.04-.01A35.861,35.861,0,0,1,32,3,35.861,35.861,0,0,1,43.14,4.62l.04.01C50.81,5.51,56,7.16,56,8.5,56,4.91,45.255,2,32,2Z" style="fill:url(#linear-gradient-7)"/><path d="M57.281,8.842a4.8,4.8,0,0,1-.686.423,1.3,1.3,0,0,0-.658,1.039c0,.4.366.615.724.7a2.1,2.1,0,0,0,.648.02,11.777,11.777,0,0,0,2.173-.383,4.55,4.55,0,0,0,1.865-.946A1.677,1.677,0,0,0,61.6,7.346a4.134,4.134,0,0,0-2.033-1.162,9.343,9.343,0,0,0-1.326-.29,2.91,2.91,0,0,0-.94-.018,1.166,1.166,0,0,0-.758.45c-.164.261.084.544.264.737s.386.355.56.551a.946.946,0,0,1,.258.5A.872.872,0,0,1,57.281,8.842Z" style="fill:#8aecff"/><path d="M6.631,8.842a4.739,4.739,0,0,0,.685.423A1.3,1.3,0,0,1,7.974,10.3c0,.4-.366.615-.724.7a2.1,2.1,0,0,1-.648.02,11.777,11.777,0,0,1-2.173-.383,4.55,4.55,0,0,1-1.865-.946,1.677,1.677,0,0,1-.257-2.345A4.134,4.134,0,0,1,4.34,6.184a9.373,9.373,0,0,1,1.326-.29,2.91,2.91,0,0,1,.94-.018,1.166,1.166,0,0,1,.758.45c.164.261-.083.544-.264.737s-.386.355-.56.551a.954.954,0,0,0-.258.5A.871.871,0,0,0,6.631,8.842Z" style="fill:#8aecff"/><path d="M9.3,14.446C11.068,18.729,20.556,22,32,22s20.932-3.271,22.7-7.554C49.04,16.017,40.967,17,32,17S14.96,16.017,9.3,14.446Z" style="fill:url(#linear-gradient-8)"/></g></svg>