<svg xmlns="http://www.w3.org/2000/svg" xmlns:xlink="http://www.w3.org/1999/xlink" viewBox="0 0 64 64"><defs><linearGradient id="linear-gradient" x1="32" y1="1.304" x2="32" y2="63.304" gradientUnits="userSpaceOnUse"><stop offset="0" stop-color="#ff3d3d"/><stop offset="0.307" stop-color="#db2a28"/><stop offset="0.771" stop-color="#a90f0b"/><stop offset="1" stop-color="#960500"/></linearGradient><linearGradient id="linear-gradient-2" x1="32" y1="49.094" x2="32" y2="44.273" gradientUnits="userSpaceOnUse"><stop offset="0.005" stop-color="#414d4d"/><stop offset="0.136" stop-color="#353f3f"/><stop offset="0.501" stop-color="#181d1d"/><stop offset="0.802" stop-color="#060808"/><stop offset="1"/></linearGradient><linearGradient id="linear-gradient-3" x1="43" y1="34.075" x2="43" y2="26.102" gradientUnits="userSpaceOnUse"><stop offset="0.005" stop-color="#414d4d"/><stop offset="0.206" stop-color="#3a4545"/><stop offset="0.522" stop-color="#272e2e"/><stop offset="0.914" stop-color="#080909"/><stop offset="1"/></linearGradient><linearGradient id="linear-gradient-4" x1="51.325" y1="21.295" x2="39.597" y2="27.679" xlink:href="#linear-gradient-2"/><linearGradient id="linear-gradient-5" x1="23.325" y1="21.295" x2="11.597" y2="27.679" gradientTransform="matrix(-1, 0, 0, 1, 36, 0)" xlink:href="#linear-gradient-2"/><linearGradient id="linear-gradient-6" x1="21" y1="34.019" x2="21" y2="26.216" xlink:href="#linear-gradient-3"/></defs><g id="_19-Pouting_Face" data-name="19-Pouting Face"><path d="M32,63C4.3,63,.962,39,1,33V31C.962,25,4.3,1,32,1h0C59.7,1,63.038,25,63,31v2C63.038,39,59.7,63,32,63Z" style="fill:url(#linear-gradient)"/><path d="M38.251,44.408a14.582,14.582,0,0,0-12.5,0A9.045,9.045,0,0,0,21,50s6-3,11-3,11,3,11,3A9.045,9.045,0,0,0,38.251,44.408Z" style="fill:#940003"/><path d="M38.251,45.408a14.582,14.582,0,0,0-12.5,0C21.863,47.284,21,50,21,50a41.72,41.72,0,0,1,11-2,41.72,41.72,0,0,1,11,2S42.137,47.284,38.251,45.408Z" style="fill:#c70e1c"/><path d="M43,50s-.863-2.716-4.749-4.592a14.582,14.582,0,0,0-12.5,0C21.863,47.284,21,50,21,50s6-3,11-3S43,50,43,50Z" style="fill:url(#linear-gradient-2)"/><path d="M43.023,26a7.788,7.788,0,0,0-2.834,2.64A5.177,5.177,0,0,0,40,30c0,2.209,1.343,4,3,4s3-1.791,3-4S44.669,26.02,43.023,26Z" style="fill:url(#linear-gradient-3)"/><path d="M50.555,24.036C41.8,24.489,40,29,40,29s0-7,10-8h.479A1.521,1.521,0,0,1,52,22.521h0A1.521,1.521,0,0,1,50.555,24.036Z" style="fill:url(#linear-gradient-4)"/><path d="M13.445,24.036C22.2,24.489,24,29,24,29s0-7-10-8h-.479A1.521,1.521,0,0,0,12,22.521h0A1.521,1.521,0,0,0,13.445,24.036Z" style="fill:url(#linear-gradient-5)"/><path d="M20.977,26a7.788,7.788,0,0,1,2.834,2.64A5.177,5.177,0,0,1,24,30c0,2.209-1.343,4-3,4s-3-1.791-3-4S19.331,26.02,20.977,26Z" style="fill:url(#linear-gradient-6)"/><path d="M43,28c1.4,0,2.559,1.277,2.894,3A5.267,5.267,0,0,0,46,30c0-2.2-1.331-3.98-2.977-4a7.788,7.788,0,0,0-2.834,2.64A5.177,5.177,0,0,0,40,30a5.267,5.267,0,0,0,.106,1C40.441,29.28,41.6,28,43,28Z"/><path d="M23.811,28.643A7.788,7.788,0,0,0,20.977,26C19.331,26.02,18,27.8,18,30a5.267,5.267,0,0,0,.106,1c.335-1.722,1.5-3,2.894-3s2.559,1.277,2.894,3A5.267,5.267,0,0,0,24,30,5.177,5.177,0,0,0,23.811,28.643Z"/><path d="M50.555,24.036A16.342,16.342,0,0,0,43.033,26a2.4,2.4,0,0,1,1.23.38,17.851,17.851,0,0,1,6.292-1.348A1.521,1.521,0,0,0,52,23.521a1.5,1.5,0,0,0-.091-.5A1.521,1.521,0,0,1,50.555,24.036Z" style="fill:#b00003"/><path d="M13.445,24.036a1.521,1.521,0,0,1-1.354-1.014,1.5,1.5,0,0,0-.091.5,1.521,1.521,0,0,0,1.445,1.515,17.851,17.851,0,0,1,6.292,1.348,2.4,2.4,0,0,1,1.23-.38A16.342,16.342,0,0,0,13.445,24.036Z" style="fill:#b00003"/><path d="M21,34c-1.529,0-2.776-1.53-2.962-3.5-.016.166-.038.329-.038.5,0,2.209,1.343,4,3,4s3-1.791,3-4a4.687,4.687,0,0,0-.037-.508C23.779,32.466,22.53,34,21,34Z" style="fill:#940003"/><path d="M43,34c-1.53,0-2.779-1.534-2.963-3.508A4.687,4.687,0,0,0,40,31c0,2.209,1.343,4,3,4s3-1.791,3-4c0-.172-.022-.335-.038-.5C45.776,32.47,44.529,34,43,34Z" style="fill:#940003"/></g></svg><svg xmlns="http://www.w3.org/2000/svg" xmlns:xlink="http://www.w3.org/1999/xlink" viewBox="0 0 64 64"><defs><linearGradient id="linear-gradient" x1="32" y1="1.304" x2="32" y2="63.304" gradientUnits="userSpaceOnUse"><stop offset="0" stop-color="#ff3d3d"/><stop offset="0.307" stop-color="#db2a28"/><stop offset="0.771" stop-color="#a90f0b"/><stop offset="1" stop-color="#960500"/></linearGradient><linearGradient id="linear-gradient-2" x1="32" y1="49.094" x2="32" y2="44.273" gradientUnits="userSpaceOnUse"><stop offset="0.005" stop-color="#414d4d"/><stop offset="0.136" stop-color="#353f3f"/><stop offset="0.501" stop-color="#181d1d"/><stop offset="0.802" stop-color="#060808"/><stop offset="1"/></linearGradient><linearGradient id="linear-gradient-3" x1="43" y1="34.075" x2="43" y2="26.102" gradientUnits="userSpaceOnUse"><stop offset="0.005" stop-color="#414d4d"/><stop offset="0.206" stop-color="#3a4545"/><stop offset="0.522" stop-color="#272e2e"/><stop offset="0.914" stop-color="#080909"/><stop offset="1"/></linearGradient><linearGradient id="linear-gradient-4" x1="51.325" y1="21.295" x2="39.597" y2="27.679" xlink:href="#linear-gradient-2"/><linearGradient id="linear-gradient-5" x1="23.325" y1="21.295" x2="11.597" y2="27.679" gradientTransform="matrix(-1, 0, 0, 1, 36, 0)" xlink:href="#linear-gradient-2"/><linearGradient id="linear-gradient-6" x1="21" y1="34.019" x2="21" y2="26.216" xlink:href="#linear-gradient-3"/></defs><g id="_19-Pouting_Face" data-name="19-Pouting Face"><path d="M32,63C4.3,63,.962,39,1,33V31C.962,25,4.3,1,32,1h0C59.7,1,63.038,25,63,31v2C63.038,39,59.7,63,32,63Z" style="fill:url(#linear-gradient)"/><path d="M38.251,44.408a14.582,14.582,0,0,0-12.5,0A9.045,9.045,0,0,0,21,50s6-3,11-3,11,3,11,3A9.045,9.045,0,0,0,38.251,44.408Z" style="fill:#940003"/><path d="M38.251,45.408a14.582,14.582,0,0,0-12.5,0C21.863,47.284,21,50,21,50a41.72,41.72,0,0,1,11-2,41.72,41.72,0,0,1,11,2S42.137,47.284,38.251,45.408Z" style="fill:#c70e1c"/><path d="M43,50s-.863-2.716-4.749-4.592a14.582,14.582,0,0,0-12.5,0C21.863,47.284,21,50,21,50s6-3,11-3S43,50,43,50Z" style="fill:url(#linear-gradient-2)"/><path d="M43.023,26a7.788,7.788,0,0,0-2.834,2.64A5.177,5.177,0,0,0,40,30c0,2.209,1.343,4,3,4s3-1.791,3-4S44.669,26.02,43.023,26Z" style="fill:url(#linear-gradient-3)"/><path d="M50.555,24.036C41.8,24.489,40,29,40,29s0-7,10-8h.479A1.521,1.521,0,0,1,52,22.521h0A1.521,1.521,0,0,1,50.555,24.036Z" style="fill:url(#linear-gradient-4)"/><path d="M13.445,24.036C22.2,24.489,24,29,24,29s0-7-10-8h-.479A1.521,1.521,0,0,0,12,22.521h0A1.521,1.521,0,0,0,13.445,24.036Z" style="fill:url(#linear-gradient-5)"/><path d="M20.977,26a7.788,7.788,0,0,1,2.834,2.64A5.177,5.177,0,0,1,24,30c0,2.209-1.343,4-3,4s-3-1.791-3-4S19.331,26.02,20.977,26Z" style="fill:url(#linear-gradient-6)"/><path d="M43,28c1.4,0,2.559,1.277,2.894,3A5.267,5.267,0,0,0,46,30c0-2.2-1.331-3.98-2.977-4a7.788,7.788,0,0,0-2.834,2.64A5.177,5.177,0,0,0,40,30a5.267,5.267,0,0,0,.106,1C40.441,29.28,41.6,28,43,28Z"/><path d="M23.811,28.643A7.788,7.788,0,0,0,20.977,26C19.331,26.02,18,27.8,18,30a5.267,5.267,0,0,0,.106,1c.335-1.722,1.5-3,2.894-3s2.559,1.277,2.894,3A5.267,5.267,0,0,0,24,30,5.177,5.177,0,0,0,23.811,28.643Z"/><path d="M50.555,24.036A16.342,16.342,0,0,0,43.033,26a2.4,2.4,0,0,1,1.23.38,17.851,17.851,0,0,1,6.292-1.348A1.521,1.521,0,0,0,52,23.521a1.5,1.5,0,0,0-.091-.5A1.521,1.521,0,0,1,50.555,24.036Z" style="fill:#b00003"/><path d="M13.445,24.036a1.521,1.521,0,0,1-1.354-1.014,1.5,1.5,0,0,0-.091.5,1.521,1.521,0,0,0,1.445,1.515,17.851,17.851,0,0,1,6.292,1.348,2.4,2.4,0,0,1,1.23-.38A16.342,16.342,0,0,0,13.445,24.036Z" style="fill:#b00003"/><path d="M21,34c-1.529,0-2.776-1.53-2.962-3.5-.016.166-.038.329-.038.5,0,2.209,1.343,4,3,4s3-1.791,3-4a4.687,4.687,0,0,0-.037-.508C23.779,32.466,22.53,34,21,34Z" style="fill:#940003"/><path d="M43,34c-1.53,0-2.779-1.534-2.963-3.508A4.687,4.687,0,0,0,40,31c0,2.209,1.343,4,3,4s3-1.791,3-4c0-.172-.022-.335-.038-.5C45.776,32.47,44.529,34,43,34Z" style="fill:#940003"/></g></svg>