<svg xmlns="http://www.w3.org/2000/svg" xmlns:xlink="http://www.w3.org/1999/xlink" viewBox="0 0 64 64"><defs><linearGradient id="linear-gradient" x1="32" y1="62.5" x2="32" y2="1.176" gradientUnits="userSpaceOnUse"><stop offset="0" stop-color="#ffe100"/><stop offset="0.359" stop-color="#f98900"/><stop offset="0.717" stop-color="#dd2b29"/><stop offset="1" stop-color="#960500"/></linearGradient><linearGradient id="linear-gradient-2" x1="47.915" y1="34.241" x2="38.971" y2="42.931" gradientUnits="userSpaceOnUse"><stop offset="0" stop-color="#fff"/><stop offset="0.995" stop-color="#dbebff"/></linearGradient><linearGradient id="linear-gradient-3" x1="-2.742" y1="18.657" x2="-4.692" y2="21.245" gradientTransform="translate(50)" gradientUnits="userSpaceOnUse"><stop offset="0.005" stop-color="#414d4d"/><stop offset="0.206" stop-color="#3a4545"/><stop offset="0.522" stop-color="#272e2e"/><stop offset="0.914" stop-color="#080909"/><stop offset="1"/></linearGradient><linearGradient id="linear-gradient-4" x1="479.258" y1="18.657" x2="477.308" y2="21.245" gradientTransform="matrix(-1, 0, 0, 1, 496, 0)" xlink:href="#linear-gradient-3"/><linearGradient id="linear-gradient-5" x1="44.646" y1="37.234" x2="38.384" y2="43.703" gradientUnits="userSpaceOnUse"><stop offset="0" stop-color="#ff3d3d"/><stop offset="0.307" stop-color="#db2a28"/><stop offset="0.771" stop-color="#a90f0b"/><stop offset="1" stop-color="#960500"/></linearGradient><linearGradient id="linear-gradient-6" x1="34.405" y1="39.316" x2="49" y2="39.316" gradientUnits="userSpaceOnUse"><stop offset="0" stop-color="#e3f4ff"/><stop offset="0.995" stop-color="#b5c7de"/></linearGradient><linearGradient id="linear-gradient-7" x1="32.079" y1="45.44" x2="32.192" y2="43.227" gradientUnits="userSpaceOnUse"><stop offset="0" stop-color="#69101b"/><stop offset="1" stop-color="#400a10"/></linearGradient><linearGradient id="linear-gradient-8" x1="43" y1="29.941" x2="43" y2="22.23" gradientTransform="matrix(1, 0, 0, 1, 0, 0)" xlink:href="#linear-gradient-3"/><linearGradient id="linear-gradient-9" x1="21" y1="29.941" x2="21" y2="22.23" gradientTransform="matrix(1, 0, 0, 1, 0, 0)" xlink:href="#linear-gradient-3"/></defs><g id="_21-Face_with_Thermometer" data-name="21-Face with Thermometer"><path d="M32,63C4.3,63,.962,39,1,33V31C.962,25,4.3,1,32,1h0C59.7,1,63.038,25,63,31v2C63.038,39,59.7,63,32,63Z" style="fill:url(#linear-gradient)"/><path d="M42,47s-2-5-10-5-10,5-10,5a24.266,24.266,0,0,1,10-2A24.266,24.266,0,0,1,42,47Z" style="fill:#ed7700"/><path d="M48.955,36.65a3.129,3.129,0,0,1-.875,1.73l-7.26,7.25-.018-.015.129.9L48.08,39.38A3.144,3.144,0,0,0,48.955,36.65Z" style="fill:#ed7700"/><path d="M38.01,43.99c-.12-.05-.24-.1-.37-.14s-.26-.09-.4-.13a11.02,11.02,0,0,0-1.32-.34.037.037,0,0,0-.03-.01,14.778,14.778,0,0,0-1.48-.24l9.21-9.21a3.163,3.163,0,0,1,4.46,0,3.157,3.157,0,0,1,0,4.46l-7.26,7.25c-.08-.07-.16-.14-.25-.21s-.18-.14-.27-.2a7.733,7.733,0,0,0-1.39-.84c-.14-.07-.28-.14-.43-.2S38.18,44.05,38.01,43.99Z" style="fill:url(#linear-gradient-2)"/><path d="M53,23c-9-4-12-8-12-8S41,25,53,23Z" style="fill:#940003"/><path d="M53,23c-9-4-12-8-12-8S42,24,53,23Z" style="fill:url(#linear-gradient-3)"/><path d="M11,23c9-4,12-8,12-8S23,25,11,23Z" style="fill:#940003"/><path d="M11,23c9-4,12-8,12-8S22,24,11,23Z" style="fill:url(#linear-gradient-4)"/><path d="M44.707,37.293a1,1,0,0,0-1.414,0l-5.99,5.99a.981.981,0,0,0-.231.388c.055.017.114.032.168.049.14.04.27.08.4.13s.25.09.37.14c.17.06.32.12.47.19s.29.13.43.2c.029.014.052.029.081.043l5.716-5.716A1,1,0,0,0,44.707,37.293Z" style="fill:url(#linear-gradient-5)"/><path d="M40.116,44.925l7.254-7.254a2.15,2.15,0,0,0,0-3.041,2.2,2.2,0,0,0-3.041,0l-8.695,8.7a11.707,11.707,0,0,1,4.412,1.708A1.046,1.046,0,0,1,40.116,44.925Z" style="fill:none"/><path d="M48.077,38.378a3.149,3.149,0,0,0,0-4.455h0a3.149,3.149,0,0,0-4.455,0L34.405,43.14h0c.431.05.842.112,1.229.185l8.7-8.695a2.2,2.2,0,0,1,3.041,0,2.15,2.15,0,0,1,0,3.041l-7.254,7.254a1.046,1.046,0,0,0-.07.108,7.944,7.944,0,0,1,.777.6h0Z" style="fill:url(#linear-gradient-6)"/><path d="M32,43c-8,0-10,4-10,4a45.364,45.364,0,0,1,10-1,45.364,45.364,0,0,1,10,1S40,43,32,43Z" style="fill:#ffb806"/><path d="M42,47s-2-4-10-4-10,4-10,4a24.266,24.266,0,0,1,10-2A24.266,24.266,0,0,1,42,47Z" style="fill:url(#linear-gradient-7)"/><ellipse cx="43" cy="26" rx="3" ry="4" style="fill:url(#linear-gradient-8)"/><path d="M43,22c1.531,0,2.776,1.529,2.962,3.5.016-.166.038-.329.038-.5,0-2.21-1.34-4-3-4s-3,1.79-3,4c0,.171.022.334.038.5C40.224,23.529,41.469,22,43,22Z" style="fill:#940003"/><path d="M43,30c-1.531,0-2.776-1.529-2.962-3.5-.016.166-.038.329-.038.5,0,2.21,1.34,4,3,4s3-1.79,3-4c0-.171-.022-.334-.038-.5C45.776,28.471,44.531,30,43,30Z" style="fill:#ff6e06"/><path d="M43,24c1.4,0,2.56,1.277,2.894,3A5.246,5.246,0,0,0,46,26c0-2.21-1.34-4-3-4s-3,1.79-3,4a5.246,5.246,0,0,0,.106,1C40.44,25.277,41.6,24,43,24Z"/><ellipse cx="21" cy="26" rx="3" ry="4" style="fill:url(#linear-gradient-9)"/><path d="M21,22c1.531,0,2.776,1.529,2.962,3.5.016-.166.038-.329.038-.5,0-2.21-1.34-4-3-4s-3,1.79-3,4c0,.171.022.334.038.5C18.224,23.529,19.469,22,21,22Z" style="fill:#940003"/><path d="M21,30c-1.531,0-2.776-1.529-2.962-3.5-.016.166-.038.329-.038.5,0,2.21,1.34,4,3,4s3-1.79,3-4c0-.171-.022-.334-.038-.5C23.776,28.471,22.531,30,21,30Z" style="fill:#ff6e06"/><path d="M21,24c1.4,0,2.56,1.277,2.894,3A5.246,5.246,0,0,0,24,26c0-2.21-1.34-4-3-4s-3,1.79-3,4a5.246,5.246,0,0,0,.106,1C18.44,25.277,19.6,24,21,24Z"/></g></svg>