<svg xmlns="http://www.w3.org/2000/svg" xmlns:xlink="http://www.w3.org/1999/xlink" viewBox="0 0 64 64"><defs><linearGradient id="linear-gradient" x1="32" y1="1.304" x2="32" y2="63.304" gradientUnits="userSpaceOnUse"><stop offset="0" stop-color="#ffe100"/><stop offset="1" stop-color="#f98900"/></linearGradient><linearGradient id="linear-gradient-2" x1="63.074" y1="30.813" x2="53.624" y2="35.913" gradientUnits="userSpaceOnUse"><stop offset="0" stop-color="#e3f4ff"/><stop offset="0.995" stop-color="#b5c7de"/></linearGradient><linearGradient id="linear-gradient-3" x1="57.911" y1="51.168" x2="53.711" y2="48.693" xlink:href="#linear-gradient-2"/><linearGradient id="linear-gradient-4" x1="32" y1="34" x2="32" y2="57.703" gradientUnits="userSpaceOnUse"><stop offset="0" stop-color="#edf8ff"/><stop offset="0.995" stop-color="#c8d7eb"/></linearGradient><linearGradient id="linear-gradient-5" x1="32" y1="37" x2="32" y2="53.05" gradientUnits="userSpaceOnUse"><stop offset="0" stop-color="#fff"/><stop offset="0.995" stop-color="#dbebff"/></linearGradient><linearGradient id="linear-gradient-6" x1="1.288" y1="30.814" x2="10.213" y2="35.839" xlink:href="#linear-gradient-2"/><linearGradient id="linear-gradient-7" x1="6.438" y1="51.166" x2="10.188" y2="48.541" xlink:href="#linear-gradient-2"/><linearGradient id="linear-gradient-8" x1="43" y1="24.25" x2="43" y2="28.713" gradientUnits="userSpaceOnUse"><stop offset="0" stop-color="#803f02"/><stop offset="0.174" stop-color="#6d3602"/><stop offset="0.515" stop-color="#4d2601"/><stop offset="0.802" stop-color="#3a1c01"/><stop offset="1" stop-color="#331901"/></linearGradient><linearGradient id="linear-gradient-9" x1="21" y1="24.4" x2="21" y2="28.638" xlink:href="#linear-gradient-8"/></defs><g id="_22-Face_with_Medical_Mask" data-name="22-Face with Medical Mask"><path d="M32,63C4.3,63,.962,39,1,33V31C.962,25,4.3,1,32,1h0C59.7,1,63.038,25,63,31v2C63.038,39,59.7,63,32,63Z" style="fill:url(#linear-gradient)"/><path d="M63,31v2l-9,5a3.971,3.971,0,0,0-2.04-3.48l10.96-5.48c.06.72.08,1.35.08,1.85Z" style="fill:url(#linear-gradient-2)"/><path d="M54,47l4.72,1.89a29.071,29.071,0,0,1-2.49,3.72l-3.5-1.74A9.869,9.869,0,0,0,53.95,47Z" style="fill:url(#linear-gradient-3)"/><path d="M54,38v8c0,.34-.02.67-.05,1a9.869,9.869,0,0,1-1.22,3.87A9.983,9.983,0,0,1,44,56H20a9.983,9.983,0,0,1-8.73-5.13A9.869,9.869,0,0,1,10.05,47c-.03-.33-.05-.66-.05-1V38a4.017,4.017,0,0,1,4-4H50a4.017,4.017,0,0,1,4,4Zm-3,7V38a1,1,0,0,0-1-1H14a1,1,0,0,0-1,1v7a8,8,0,0,0,8,8H43A8,8,0,0,0,51,45Z" style="fill:url(#linear-gradient-4)"/><path d="M51,38v7a8,8,0,0,1-8,8H21a8,8,0,0,1-8-8V38a1,1,0,0,1,1-1H50A1,1,0,0,1,51,38Z" style="fill:url(#linear-gradient-5)"/><path d="M1.08,29.04l10.96,5.48A3.971,3.971,0,0,0,10,38L1,33V31C1,30.48,1.02,29.82,1.08,29.04Z" style="fill:url(#linear-gradient-6)"/><path d="M11.27,50.87,7.78,52.61a27.828,27.828,0,0,1-2.5-3.72L10,47h.05A9.869,9.869,0,0,0,11.27,50.87Z" style="fill:url(#linear-gradient-7)"/><path d="M50,36H14a2,2,0,0,0-2,2v7a9.01,9.01,0,0,0,9,9H43a9.01,9.01,0,0,0,9-9V38A2,2,0,0,0,50,36Zm1,9a8,8,0,0,1-8,8H21a8,8,0,0,1-8-8V38a1,1,0,0,1,1-1H50a1,1,0,0,1,1,1Z" style="fill:#cee1ed"/><rect x="17" y="40" width="30" height="2" style="fill:#fff"/><rect x="17" y="44" width="30" height="2" style="fill:#fff"/><rect x="17" y="48" width="30" height="2" style="fill:#fff"/><path d="M52.73,50.87A9.983,9.983,0,0,1,44,56H20a9.983,9.983,0,0,1-8.73-5.13L7.781,52.61c.189.238.39.471.589.706l2.9-1.446A9.983,9.983,0,0,0,20,57H44a9.983,9.983,0,0,0,8.73-5.13l2.9,1.443c.2-.235.4-.468.59-.707Z" style="fill:#e08400"/><path d="M54,38v1l8.976-4.986C62.992,33.64,63,33.293,63,33Z" style="fill:#ed8d06"/><path d="M10,38,1,33c0,.293.008.64.024,1.014L10,39Z" style="fill:#ed8d06"/><path d="M48,23c-1,2-2,3-5,3s-4-1-5-3a6.935,6.935,0,0,0-.044,1.438C37.861,25.809,37.979,30,43,30s5.139-4.19,5.044-5.561A7.028,7.028,0,0,0,48,23Z" style="fill:#ed8d06"/><path d="M26,23c-1,2-2,3-5,3s-4-1-5-3a6.935,6.935,0,0,0-.044,1.438C15.861,25.809,15.979,30,21,30s5.139-4.19,5.044-5.561A7.028,7.028,0,0,0,26,23Z" style="fill:#ed8d06"/><path d="M48,23c-1,2-2,3-5,3s-4-1-5-3c0,0-1,6,5,6S48,23,48,23Z" style="fill:url(#linear-gradient-8)"/><path d="M26,23c-1,2-2,3-5,3s-4-1-5-3c0,0-1,6,5,6S26,23,26,23Z" style="fill:url(#linear-gradient-9)"/></g></svg><svg xmlns="http://www.w3.org/2000/svg" xmlns:xlink="http://www.w3.org/1999/xlink" viewBox="0 0 64 64"><defs><linearGradient id="linear-gradient" x1="32" y1="1.304" x2="32" y2="63.304" gradientUnits="userSpaceOnUse"><stop offset="0" stop-color="#ffe100"/><stop offset="1" stop-color="#f98900"/></linearGradient><linearGradient id="linear-gradient-2" x1="63.074" y1="30.813" x2="53.624" y2="35.913" gradientUnits="userSpaceOnUse"><stop offset="0" stop-color="#e3f4ff"/><stop offset="0.995" stop-color="#b5c7de"/></linearGradient><linearGradient id="linear-gradient-3" x1="57.911" y1="51.168" x2="53.711" y2="48.693" xlink:href="#linear-gradient-2"/><linearGradient id="linear-gradient-4" x1="32" y1="34" x2="32" y2="57.703" gradientUnits="userSpaceOnUse"><stop offset="0" stop-color="#edf8ff"/><stop offset="0.995" stop-color="#c8d7eb"/></linearGradient><linearGradient id="linear-gradient-5" x1="32" y1="37" x2="32" y2="53.05" gradientUnits="userSpaceOnUse"><stop offset="0" stop-color="#fff"/><stop offset="0.995" stop-color="#dbebff"/></linearGradient><linearGradient id="linear-gradient-6" x1="1.288" y1="30.814" x2="10.213" y2="35.839" xlink:href="#linear-gradient-2"/><linearGradient id="linear-gradient-7" x1="6.438" y1="51.166" x2="10.188" y2="48.541" xlink:href="#linear-gradient-2"/><linearGradient id="linear-gradient-8" x1="43" y1="24.25" x2="43" y2="28.713" gradientUnits="userSpaceOnUse"><stop offset="0" stop-color="#803f02"/><stop offset="0.174" stop-color="#6d3602"/><stop offset="0.515" stop-color="#4d2601"/><stop offset="0.802" stop-color="#3a1c01"/><stop offset="1" stop-color="#331901"/></linearGradient><linearGradient id="linear-gradient-9" x1="21" y1="24.4" x2="21" y2="28.638" xlink:href="#linear-gradient-8"/></defs><g id="_22-Face_with_Medical_Mask" data-name="22-Face with Medical Mask"><path d="M32,63C4.3,63,.962,39,1,33V31C.962,25,4.3,1,32,1h0C59.7,1,63.038,25,63,31v2C63.038,39,59.7,63,32,63Z" style="fill:url(#linear-gradient)"/><path d="M63,31v2l-9,5a3.971,3.971,0,0,0-2.04-3.48l10.96-5.48c.06.72.08,1.35.08,1.85Z" style="fill:url(#linear-gradient-2)"/><path d="M54,47l4.72,1.89a29.071,29.071,0,0,1-2.49,3.72l-3.5-1.74A9.869,9.869,0,0,0,53.95,47Z" style="fill:url(#linear-gradient-3)"/><path d="M54,38v8c0,.34-.02.67-.05,1a9.869,9.869,0,0,1-1.22,3.87A9.983,9.983,0,0,1,44,56H20a9.983,9.983,0,0,1-8.73-5.13A9.869,9.869,0,0,1,10.05,47c-.03-.33-.05-.66-.05-1V38a4.017,4.017,0,0,1,4-4H50a4.017,4.017,0,0,1,4,4Zm-3,7V38a1,1,0,0,0-1-1H14a1,1,0,0,0-1,1v7a8,8,0,0,0,8,8H43A8,8,0,0,0,51,45Z" style="fill:url(#linear-gradient-4)"/><path d="M51,38v7a8,8,0,0,1-8,8H21a8,8,0,0,1-8-8V38a1,1,0,0,1,1-1H50A1,1,0,0,1,51,38Z" style="fill:url(#linear-gradient-5)"/><path d="M1.08,29.04l10.96,5.48A3.971,3.971,0,0,0,10,38L1,33V31C1,30.48,1.02,29.82,1.08,29.04Z" style="fill:url(#linear-gradient-6)"/><path d="M11.27,50.87,7.78,52.61a27.828,27.828,0,0,1-2.5-3.72L10,47h.05A9.869,9.869,0,0,0,11.27,50.87Z" style="fill:url(#linear-gradient-7)"/><path d="M50,36H14a2,2,0,0,0-2,2v7a9.01,9.01,0,0,0,9,9H43a9.01,9.01,0,0,0,9-9V38A2,2,0,0,0,50,36Zm1,9a8,8,0,0,1-8,8H21a8,8,0,0,1-8-8V38a1,1,0,0,1,1-1H50a1,1,0,0,1,1,1Z" style="fill:#cee1ed"/><rect x="17" y="40" width="30" height="2" style="fill:#fff"/><rect x="17" y="44" width="30" height="2" style="fill:#fff"/><rect x="17" y="48" width="30" height="2" style="fill:#fff"/><path d="M52.73,50.87A9.983,9.983,0,0,1,44,56H20a9.983,9.983,0,0,1-8.73-5.13L7.781,52.61c.189.238.39.471.589.706l2.9-1.446A9.983,9.983,0,0,0,20,57H44a9.983,9.983,0,0,0,8.73-5.13l2.9,1.443c.2-.235.4-.468.59-.707Z" style="fill:#e08400"/><path d="M54,38v1l8.976-4.986C62.992,33.64,63,33.293,63,33Z" style="fill:#ed8d06"/><path d="M10,38,1,33c0,.293.008.64.024,1.014L10,39Z" style="fill:#ed8d06"/><path d="M48,23c-1,2-2,3-5,3s-4-1-5-3a6.935,6.935,0,0,0-.044,1.438C37.861,25.809,37.979,30,43,30s5.139-4.19,5.044-5.561A7.028,7.028,0,0,0,48,23Z" style="fill:#ed8d06"/><path d="M26,23c-1,2-2,3-5,3s-4-1-5-3a6.935,6.935,0,0,0-.044,1.438C15.861,25.809,15.979,30,21,30s5.139-4.19,5.044-5.561A7.028,7.028,0,0,0,26,23Z" style="fill:#ed8d06"/><path d="M48,23c-1,2-2,3-5,3s-4-1-5-3c0,0-1,6,5,6S48,23,48,23Z" style="fill:url(#linear-gradient-8)"/><path d="M26,23c-1,2-2,3-5,3s-4-1-5-3c0,0-1,6,5,6S26,23,26,23Z" style="fill:url(#linear-gradient-9)"/></g></svg>