<svg xmlns="http://www.w3.org/2000/svg" xmlns:xlink="http://www.w3.org/1999/xlink" viewBox="0 0 64 64"><defs><linearGradient id="linear-gradient" x1="32" y1="1.304" x2="32" y2="63.304" gradientUnits="userSpaceOnUse"><stop offset="0" stop-color="#ffe100"/><stop offset="1" stop-color="#f98900"/></linearGradient><linearGradient id="linear-gradient-2" x1="31" y1="51" x2="31" y2="45.077" gradientUnits="userSpaceOnUse"><stop offset="0" stop-color="#69101b"/><stop offset="1" stop-color="#400a10"/></linearGradient><linearGradient id="linear-gradient-3" x1="47.555" y1="15.786" x2="47.217" y2="18.655" gradientUnits="userSpaceOnUse"><stop offset="0.005" stop-color="#414d4d"/><stop offset="0.206" stop-color="#3a4545"/><stop offset="0.522" stop-color="#272e2e"/><stop offset="0.914" stop-color="#080909"/><stop offset="1"/></linearGradient><linearGradient id="linear-gradient-4" x1="47.935" y1="27.606" x2="45.798" y2="31.206" xlink:href="#linear-gradient-3"/><linearGradient id="linear-gradient-5" x1="19.555" y1="15.786" x2="19.217" y2="18.655" gradientTransform="matrix(-1, 0, 0, 1, 36, 0)" xlink:href="#linear-gradient-3"/><linearGradient id="linear-gradient-6" x1="20.935" y1="27.606" x2="18.798" y2="31.206" xlink:href="#linear-gradient-3"/></defs><g id="_23-_Unamused_Face" data-name="23- Unamused Face"><path d="M32,63C4.3,63,.962,39,1,33V31C.962,25,4.3,1,32,1h0C59.7,1,63.038,25,63,31v2C63.038,39,59.7,63,32,63Z" style="fill:url(#linear-gradient)"/><path d="M48,16a8.4,8.4,0,0,0-8,3,24.058,24.058,0,0,1,14,3S53,17,48,16Z" style="fill:#ed8d06"/><path d="M16,16a8.4,8.4,0,0,1,8,3,24.058,24.058,0,0,0-14,3S11,17,16,16Z" style="fill:#ed8d06"/><path d="M40,48.6a1.3,1.3,0,0,0-.265-.789C38.839,46.628,35.707,43,31,43s-7.839,3.628-8.735,4.811a1.261,1.261,0,0,0-.154,1.291,1.3,1.3,0,0,0-.111.5,1.519,1.519,0,0,0,2.324,1.18c1.1-.642,2.4-1.367,3.566-2a6.579,6.579,0,0,1,6.22,0c1.164.635,2.469,1.36,3.566,2A1.519,1.519,0,0,0,40,49.6a1.3,1.3,0,0,0-.111-.5A1.3,1.3,0,0,0,40,48.6Z" style="fill:#ed8d06"/><path d="M40,49.6a1.3,1.3,0,0,0-.265-.789C38.839,47.628,35.707,44,31,44s-7.839,3.628-8.735,4.811a1.261,1.261,0,0,0-.154,1.291,1.3,1.3,0,0,0-.111.5,1.519,1.519,0,0,0,2.324,1.18c1.1-.642,2.4-1.367,3.566-2a6.579,6.579,0,0,1,6.22,0c1.164.635,2.469,1.36,3.566,2A1.519,1.519,0,0,0,40,50.6a1.3,1.3,0,0,0-.111-.5A1.3,1.3,0,0,0,40,49.6Z" style="fill:#f9bf06"/><path d="M39.735,48.811C38.839,47.628,35.707,44,31,44s-7.839,3.628-8.735,4.811A1.3,1.3,0,0,0,22,49.6a1.519,1.519,0,0,0,2.324,1.18c1.1-.642,2.4-1.367,3.566-2a6.579,6.579,0,0,1,6.22,0c1.164.635,2.469,1.36,3.566,2A1.519,1.519,0,0,0,40,49.6,1.3,1.3,0,0,0,39.735,48.811Z" style="fill:url(#linear-gradient-2)"/><path d="M54,22c-7-6-14-3-14-3a8.4,8.4,0,0,1,8-3C53,17,54,22,54,22Z" style="fill:url(#linear-gradient-3)"/><path d="M52,32a4,4,0,0,0-4-4c-5,0-10,4-10,4s.923-.261,2.239-.5A21.46,21.46,0,0,0,38,33a25.852,25.852,0,0,1,6.012-.883c0,.115.021.225.034.336A3.659,3.659,0,0,0,44,33a4,4,0,0,0,8,0,4.13,4.13,0,0,0-.05-.5A4.13,4.13,0,0,0,52,32Z" style="fill:#ed8d06"/><path d="M21,28c-5,0-10,4-10,4s.923-.261,2.239-.5A21.46,21.46,0,0,0,11,33a25.852,25.852,0,0,1,6.012-.883c0,.115.021.225.034.336A3.659,3.659,0,0,0,17,33a4,4,0,0,0,8,0,4.13,4.13,0,0,0-.05-.5A4.13,4.13,0,0,0,25,32,4,4,0,0,0,21,28Z" style="fill:#ed8d06"/><path d="M48,28c-5,0-10,4-10,4a25.665,25.665,0,0,1,6.1-.884A4,4,0,1,0,48,28Z" style="fill:url(#linear-gradient-4)"/><path d="M10,22c7-6,14-3,14-3a8.4,8.4,0,0,0-8-3C11,17,10,22,10,22Z" style="fill:url(#linear-gradient-5)"/><path d="M21,28c-5,0-10,4-10,4a25.665,25.665,0,0,1,6.105-.884A4,4,0,1,0,21,28Z" style="fill:url(#linear-gradient-6)"/></g></svg><svg xmlns="http://www.w3.org/2000/svg" xmlns:xlink="http://www.w3.org/1999/xlink" viewBox="0 0 64 64"><defs><linearGradient id="linear-gradient" x1="32" y1="1.304" x2="32" y2="63.304" gradientUnits="userSpaceOnUse"><stop offset="0" stop-color="#ffe100"/><stop offset="1" stop-color="#f98900"/></linearGradient><linearGradient id="linear-gradient-2" x1="31" y1="51" x2="31" y2="45.077" gradientUnits="userSpaceOnUse"><stop offset="0" stop-color="#69101b"/><stop offset="1" stop-color="#400a10"/></linearGradient><linearGradient id="linear-gradient-3" x1="47.555" y1="15.786" x2="47.217" y2="18.655" gradientUnits="userSpaceOnUse"><stop offset="0.005" stop-color="#414d4d"/><stop offset="0.206" stop-color="#3a4545"/><stop offset="0.522" stop-color="#272e2e"/><stop offset="0.914" stop-color="#080909"/><stop offset="1"/></linearGradient><linearGradient id="linear-gradient-4" x1="47.935" y1="27.606" x2="45.798" y2="31.206" xlink:href="#linear-gradient-3"/><linearGradient id="linear-gradient-5" x1="19.555" y1="15.786" x2="19.217" y2="18.655" gradientTransform="matrix(-1, 0, 0, 1, 36, 0)" xlink:href="#linear-gradient-3"/><linearGradient id="linear-gradient-6" x1="20.935" y1="27.606" x2="18.798" y2="31.206" xlink:href="#linear-gradient-3"/></defs><g id="_23-_Unamused_Face" data-name="23- Unamused Face"><path d="M32,63C4.3,63,.962,39,1,33V31C.962,25,4.3,1,32,1h0C59.7,1,63.038,25,63,31v2C63.038,39,59.7,63,32,63Z" style="fill:url(#linear-gradient)"/><path d="M48,16a8.4,8.4,0,0,0-8,3,24.058,24.058,0,0,1,14,3S53,17,48,16Z" style="fill:#ed8d06"/><path d="M16,16a8.4,8.4,0,0,1,8,3,24.058,24.058,0,0,0-14,3S11,17,16,16Z" style="fill:#ed8d06"/><path d="M40,48.6a1.3,1.3,0,0,0-.265-.789C38.839,46.628,35.707,43,31,43s-7.839,3.628-8.735,4.811a1.261,1.261,0,0,0-.154,1.291,1.3,1.3,0,0,0-.111.5,1.519,1.519,0,0,0,2.324,1.18c1.1-.642,2.4-1.367,3.566-2a6.579,6.579,0,0,1,6.22,0c1.164.635,2.469,1.36,3.566,2A1.519,1.519,0,0,0,40,49.6a1.3,1.3,0,0,0-.111-.5A1.3,1.3,0,0,0,40,48.6Z" style="fill:#ed8d06"/><path d="M40,49.6a1.3,1.3,0,0,0-.265-.789C38.839,47.628,35.707,44,31,44s-7.839,3.628-8.735,4.811a1.261,1.261,0,0,0-.154,1.291,1.3,1.3,0,0,0-.111.5,1.519,1.519,0,0,0,2.324,1.18c1.1-.642,2.4-1.367,3.566-2a6.579,6.579,0,0,1,6.22,0c1.164.635,2.469,1.36,3.566,2A1.519,1.519,0,0,0,40,50.6a1.3,1.3,0,0,0-.111-.5A1.3,1.3,0,0,0,40,49.6Z" style="fill:#f9bf06"/><path d="M39.735,48.811C38.839,47.628,35.707,44,31,44s-7.839,3.628-8.735,4.811A1.3,1.3,0,0,0,22,49.6a1.519,1.519,0,0,0,2.324,1.18c1.1-.642,2.4-1.367,3.566-2a6.579,6.579,0,0,1,6.22,0c1.164.635,2.469,1.36,3.566,2A1.519,1.519,0,0,0,40,49.6,1.3,1.3,0,0,0,39.735,48.811Z" style="fill:url(#linear-gradient-2)"/><path d="M54,22c-7-6-14-3-14-3a8.4,8.4,0,0,1,8-3C53,17,54,22,54,22Z" style="fill:url(#linear-gradient-3)"/><path d="M52,32a4,4,0,0,0-4-4c-5,0-10,4-10,4s.923-.261,2.239-.5A21.46,21.46,0,0,0,38,33a25.852,25.852,0,0,1,6.012-.883c0,.115.021.225.034.336A3.659,3.659,0,0,0,44,33a4,4,0,0,0,8,0,4.13,4.13,0,0,0-.05-.5A4.13,4.13,0,0,0,52,32Z" style="fill:#ed8d06"/><path d="M21,28c-5,0-10,4-10,4s.923-.261,2.239-.5A21.46,21.46,0,0,0,11,33a25.852,25.852,0,0,1,6.012-.883c0,.115.021.225.034.336A3.659,3.659,0,0,0,17,33a4,4,0,0,0,8,0,4.13,4.13,0,0,0-.05-.5A4.13,4.13,0,0,0,25,32,4,4,0,0,0,21,28Z" style="fill:#ed8d06"/><path d="M48,28c-5,0-10,4-10,4a25.665,25.665,0,0,1,6.1-.884A4,4,0,1,0,48,28Z" style="fill:url(#linear-gradient-4)"/><path d="M10,22c7-6,14-3,14-3a8.4,8.4,0,0,0-8-3C11,17,10,22,10,22Z" style="fill:url(#linear-gradient-5)"/><path d="M21,28c-5,0-10,4-10,4a25.665,25.665,0,0,1,6.105-.884A4,4,0,1,0,21,28Z" style="fill:url(#linear-gradient-6)"/></g></svg>