<svg xmlns="http://www.w3.org/2000/svg" xmlns:xlink="http://www.w3.org/1999/xlink" viewBox="0 0 64 64"><defs><linearGradient id="linear-gradient" x1="32" y1="1.304" x2="32" y2="63.304" gradientUnits="userSpaceOnUse"><stop offset="0" stop-color="#ffe100"/><stop offset="1" stop-color="#f98900"/></linearGradient><linearGradient id="linear-gradient-2" x1="15" y1="45" x2="49" y2="45" gradientUnits="userSpaceOnUse"><stop offset="0" stop-color="#b8b4b2"/><stop offset="0.143" stop-color="#d0ccc9"/><stop offset="0.374" stop-color="#f2edea"/><stop offset="0.5" stop-color="#fffaf6"/><stop offset="0.638" stop-color="#f9f5f1"/><stop offset="0.825" stop-color="#e8e5e3"/><stop offset="1" stop-color="#d1d1d1"/></linearGradient><linearGradient id="linear-gradient-3" y1="39" y2="39" xlink:href="#linear-gradient-2"/><linearGradient id="linear-gradient-4" x1="32" y1="47.95" x2="32" y2="36.024" gradientUnits="userSpaceOnUse"><stop offset="0" stop-color="#d1d1d1" stop-opacity="0"/><stop offset="0.05" stop-color="#cecece" stop-opacity="0.041"/><stop offset="0.322" stop-color="#c1c1c1" stop-opacity="0.24"/><stop offset="0.579" stop-color="#b8b8b8" stop-opacity="0.383"/><stop offset="0.812" stop-color="#b2b2b2" stop-opacity="0.47"/><stop offset="1" stop-color="#b0b0b0" stop-opacity="0.5"/></linearGradient><linearGradient id="linear-gradient-5" x1="32" y1="36.625" x2="32" y2="42.479" gradientUnits="userSpaceOnUse"><stop offset="0" stop-color="#ababab" stop-opacity="0.5"/><stop offset="0.541" stop-color="#c1c1c1" stop-opacity="0.216"/><stop offset="1" stop-color="#d1d1d1" stop-opacity="0"/></linearGradient><linearGradient id="linear-gradient-6" x1="43" y1="26.965" x2="43" y2="20.251" gradientUnits="userSpaceOnUse"><stop offset="0" stop-color="#803f02"/><stop offset="0.174" stop-color="#6d3602"/><stop offset="0.515" stop-color="#4d2601"/><stop offset="0.802" stop-color="#3a1c01"/><stop offset="1" stop-color="#331901"/></linearGradient><linearGradient id="linear-gradient-7" x1="21" y1="26.965" x2="21" y2="20.251" xlink:href="#linear-gradient-6"/><linearGradient id="linear-gradient-8" x1="32" y1="43.5" x2="32" y2="113.752" gradientUnits="userSpaceOnUse"><stop offset="0" stop-color="#69101b"/><stop offset="0.427" stop-color="#400a10"/></linearGradient></defs><g id="_24-Grimacing_Face" data-name="24-Grimacing Face"><path d="M32,63C4.3,63,.962,39,1,33V31C.962,25,4.3,1,32,1h0C59.7,1,63.038,25,63,31v2C63.038,39,59.7,63,32,63Z" style="fill:url(#linear-gradient)"/><path d="M49,42a6,6,0,0,0-6-6H21a6,6,0,0,0-6,6c0,.169.012.335.025.5-.013.165-.025.331-.025.5a6,6,0,0,0,6,6H43a6,6,0,0,0,6-6c0-.169-.012-.335-.025-.5C48.988,42.335,49,42.169,49,42Z" style="fill:#f9bf06"/><path d="M49,41a6,6,0,0,0-6-6H21a6,6,0,0,0-6,6c0,.169.012.335.025.5-.013.165-.025.331-.025.5a6,6,0,0,0,6,6H43a6,6,0,0,0,6-6c0-.169-.012-.335-.025-.5C48.988,41.335,49,41.169,49,41Z" style="fill:#ed8d06"/><path d="M21,48H43a6,6,0,0,0,6-6H15A6,6,0,0,0,21,48Z" style="fill:url(#linear-gradient-2)"/><path d="M43,36H21a6,6,0,0,0-6,6H49A6,6,0,0,0,43,36Z" style="fill:url(#linear-gradient-3)"/><path d="M43,36H21a6,6,0,0,0,0,12H43a6,6,0,0,0,0-12Z" style="fill:url(#linear-gradient-4)"/><path d="M43,36H21a6,6,0,0,0-6,6H49A6,6,0,0,0,43,36Z" style="fill:url(#linear-gradient-5)"/><path d="M43,20c-4,0-5,7-5,7s2-3,5-3,5,3,5,3S47,20,43,20Z" style="fill:#ed8d06"/><path d="M48,27s-1-7-5-7-5,7-5,7,2-4,5-4S48,27,48,27Z" style="fill:url(#linear-gradient-6)"/><path d="M21,20c-4,0-5,7-5,7s2-3,5-3,5,3,5,3S25,20,21,20Z" style="fill:#ed8d06"/><path d="M26,27s-1-7-5-7-5,7-5,7,2-4,5-4S26,27,26,27Z" style="fill:url(#linear-gradient-7)"/><path d="M46.314,37H46.3A5.957,5.957,0,0,0,43,36H21a5.957,5.957,0,0,0-3.3,1h-.012A6,6,0,0,0,21,48h1a6,6,0,0,1-5.975-5.5h31.95A6,6,0,0,1,42,48h1a6,6,0,0,0,3.314-11ZM16,42c0-2.761,2.528-5,5.647-5H42.353C45.472,37,48,39.239,48,42Z" style="fill:url(#linear-gradient-8)"/></g></svg>