<svg xmlns="http://www.w3.org/2000/svg" xmlns:xlink="http://www.w3.org/1999/xlink" viewBox="0 0 64 64"><defs><linearGradient id="linear-gradient" x1="32" y1="1.304" x2="32" y2="63.304" gradientUnits="userSpaceOnUse"><stop offset="0" stop-color="#ffe100"/><stop offset="1" stop-color="#f98900"/></linearGradient><linearGradient id="linear-gradient-2" x1="32" y1="43.019" x2="32" y2="34.298" gradientUnits="userSpaceOnUse"><stop offset="0" stop-color="#911625"/><stop offset="0.412" stop-color="#69101b"/><stop offset="0.788" stop-color="#4b0c13"/><stop offset="1" stop-color="#400a10"/></linearGradient><linearGradient id="linear-gradient-3" x1="15.935" y1="22.937" x2="15.935" y2="62.102" gradientUnits="userSpaceOnUse"><stop offset="0" stop-color="#8ad4ff"/><stop offset="0.535" stop-color="#3e9ff5"/><stop offset="1" stop-color="#0073ed"/></linearGradient><linearGradient id="linear-gradient-4" x1="48" y1="22.825" x2="48" y2="61.873" xlink:href="#linear-gradient-3"/><linearGradient id="linear-gradient-5" x1="3.584" y1="66.425" x2="13.315" y2="60.632" gradientUnits="userSpaceOnUse"><stop offset="0" stop-color="#8ad4ff"/><stop offset="0.26" stop-color="#5ab3f9"/><stop offset="0.745" stop-color="#0577ee"/><stop offset="1" stop-color="#0073ed"/></linearGradient><linearGradient id="linear-gradient-6" x1="58.765" y1="67.207" x2="51.312" y2="61.835" xlink:href="#linear-gradient-5"/><linearGradient id="linear-gradient-7" x1="48.79" y1="20.222" x2="48.26" y2="22.42" gradientUnits="userSpaceOnUse"><stop offset="0" stop-color="#803f02"/><stop offset="0.174" stop-color="#6d3602"/><stop offset="0.515" stop-color="#4d2601"/><stop offset="0.802" stop-color="#3a1c01"/><stop offset="1" stop-color="#331901"/></linearGradient><linearGradient id="linear-gradient-8" x1="53.802" y1="20.49" x2="42.327" y2="12.897" gradientUnits="userSpaceOnUse"><stop offset="0.005" stop-color="#414d4d"/><stop offset="0.206" stop-color="#3a4545"/><stop offset="0.522" stop-color="#272e2e"/><stop offset="0.914" stop-color="#080909"/><stop offset="1"/></linearGradient><linearGradient id="linear-gradient-9" x1="194.79" y1="20.222" x2="194.26" y2="22.42" gradientTransform="matrix(-1, 0, 0, 1, 210, 0)" xlink:href="#linear-gradient-7"/><linearGradient id="linear-gradient-10" x1="9.368" y1="20.838" x2="22.643" y2="12.851" xlink:href="#linear-gradient-8"/></defs><g id="_25-Loudly_Crying_Face" data-name="25-Loudly Crying Face"><path d="M32,63C4.3,63,.962,39,1,33V31C.962,25,4.3,1,32,1h0C59.7,1,63.038,25,63,31v2C63.038,39,59.7,63,32,63Z" style="fill:url(#linear-gradient)"/><path d="M43.978,45a12.49,12.49,0,0,0-.588-2.86,11.636,11.636,0,0,0-3.4-5.03,11.819,11.819,0,0,0-15.98,0,11.636,11.636,0,0,0-3.4,5.03A12.49,12.49,0,0,0,20.022,45H20v1h.022c0,.055-.017.1-.022.16-.04.53.37.95.8.81C22.56,46.41,26.93,44,32,44s9.44,2.41,11.2,2.97c.43.14.84-.28.8-.81-.005-.056-.017-.1-.022-.16H44V45Z" style="fill:#f9bf06"/><path d="M43.978,44a12.49,12.49,0,0,0-.588-2.86,11.636,11.636,0,0,0-3.4-5.03,11.819,11.819,0,0,0-15.98,0,11.636,11.636,0,0,0-3.4,5.03A12.49,12.49,0,0,0,20.022,44H20v1h.022c0,.055-.017.1-.022.16-.04.53.37.95.8.81C22.56,45.41,26.93,43,32,43s9.44,2.41,11.2,2.97c.43.14.84-.28.8-.81-.005-.056-.017-.1-.022-.16H44V44Z" style="fill:#ed8d06"/><path d="M44,45.16c.04.53-.37.95-.8.81C41.44,45.41,37.07,43,32,43s-9.44,2.41-11.2,2.97c-.43.14-.84-.28-.8-.81a12.428,12.428,0,0,1,.61-3.02,11.636,11.636,0,0,1,3.4-5.03,11.819,11.819,0,0,1,15.98,0,11.636,11.636,0,0,1,3.4,5.03A12.428,12.428,0,0,1,44,45.16Z" style="fill:url(#linear-gradient-2)"/><path d="M47,20c-6-1-7,1-7,1s12,3,16,5A13.937,13.937,0,0,0,47,20Z" style="fill:#ed8d06"/><path d="M17,20c6-1,7,1,7,1S12,24,8,26A13.937,13.937,0,0,1,17,20Z" style="fill:#ed8d06"/><path d="M17,59.95a34.025,34.025,0,0,0,13.87,3.04V63H3a1.955,1.955,0,0,1-1.41-.59,1.98,1.98,0,0,1,0-2.82A1.955,1.955,0,0,1,3,59a4,4,0,0,0,4-4V51.58C7.07,32.87,12,24,12,24l-.08-.17a33.052,33.052,0,0,1,8.99-2.57c-.46,1.42-2.57,8.62-3.48,23.75C17.17,49.33,17,54.29,17,59.95Z" style="fill:url(#linear-gradient-3)"/><path d="M47,59.95c0-5.66-.17-10.62-.43-14.94-.91-15.13-3.02-22.33-3.48-23.75a33.052,33.052,0,0,1,8.99,2.57L52,24s4.93,8.87,5,27.58V55a4,4,0,0,0,4,4,2,2,0,0,1,0,4H33v-.01A33.916,33.916,0,0,0,47,59.95Z" style="fill:url(#linear-gradient-4)"/><path d="M18,60.4c-.137-.058-.265-.124-.4-.184-.2-.088-.406-.172-.6-.264v-.012A25.834,25.834,0,0,1,7,51.571V55a4,4,0,0,1-4,4,1.955,1.955,0,0,0-1.41.59,1.98,1.98,0,0,0,0,2.82A1.955,1.955,0,0,0,3,63H30.87v-.01A34.4,34.4,0,0,1,17.6,60.214C17.735,60.274,17.863,60.34,18,60.4Z" style="fill:url(#linear-gradient-5)"/><path d="M62.41,59.59A1.955,1.955,0,0,0,61,59a4,4,0,0,1-4-4V51.571a25.834,25.834,0,0,1-10,8.367v.012c-.2.1-.421.185-.631.278-.124.056-.242.116-.369.17.127-.054.245-.114.369-.17A34.3,34.3,0,0,1,33,62.99V63H61a1.994,1.994,0,0,0,1.41-3.41Z" style="fill:url(#linear-gradient-6)"/><path d="M56,26a27.793,27.793,0,0,0-3.92-2.17,33.052,33.052,0,0,0-8.99-2.57A25.122,25.122,0,0,0,40,21s1-2,7-1A13.937,13.937,0,0,1,56,26Z" style="fill:url(#linear-gradient-7)"/><path d="M42,12s1,9,14,8C48,19,42,12,42,12Z" style="fill:#ed8d06"/><path d="M56,20c-12,0-14-8-14-8S48,19,56,20Z" style="fill:url(#linear-gradient-8)"/><path d="M8,26a27.793,27.793,0,0,1,3.92-2.17,33.052,33.052,0,0,1,8.99-2.57A25.122,25.122,0,0,1,24,21s-1-2-7-1A13.937,13.937,0,0,0,8,26Z" style="fill:url(#linear-gradient-9)"/><path d="M22,12s-1,9-14,8C16,19,22,12,22,12Z" style="fill:#ed8d06"/><path d="M8,20c12,0,14-8,14-8S16,19,8,20Z" style="fill:url(#linear-gradient-10)"/><path d="M43.09,21.26c.46,1.42,1.57,8.62,2.48,23.75.251,4.176.417,9.883.428,15.371.3-.128.608-.249.9-.385l0,0c.035-.016.066-.035.1-.051,0-5.657-.17-10.615-.43-14.933C45.66,29.88,43.55,22.68,43.09,21.26Z" style="fill:#ed8d06"/><path d="M17,59.943c.034.016.064.034.1.05l.016.007c.286.135.592.255.888.381.011-5.488.177-11.195.428-15.371.91-15.13,2.02-22.33,2.48-23.75-.46,1.42-2.57,8.62-3.48,23.75C17.17,49.328,17,54.286,17,59.943Z" style="fill:#ed8d06"/></g></svg><svg xmlns="http://www.w3.org/2000/svg" xmlns:xlink="http://www.w3.org/1999/xlink" viewBox="0 0 64 64"><defs><linearGradient id="linear-gradient" x1="32" y1="1.304" x2="32" y2="63.304" gradientUnits="userSpaceOnUse"><stop offset="0" stop-color="#ffe100"/><stop offset="1" stop-color="#f98900"/></linearGradient><linearGradient id="linear-gradient-2" x1="32" y1="43.019" x2="32" y2="34.298" gradientUnits="userSpaceOnUse"><stop offset="0" stop-color="#911625"/><stop offset="0.412" stop-color="#69101b"/><stop offset="0.788" stop-color="#4b0c13"/><stop offset="1" stop-color="#400a10"/></linearGradient><linearGradient id="linear-gradient-3" x1="15.935" y1="22.937" x2="15.935" y2="62.102" gradientUnits="userSpaceOnUse"><stop offset="0" stop-color="#8ad4ff"/><stop offset="0.535" stop-color="#3e9ff5"/><stop offset="1" stop-color="#0073ed"/></linearGradient><linearGradient id="linear-gradient-4" x1="48" y1="22.825" x2="48" y2="61.873" xlink:href="#linear-gradient-3"/><linearGradient id="linear-gradient-5" x1="3.584" y1="66.425" x2="13.315" y2="60.632" gradientUnits="userSpaceOnUse"><stop offset="0" stop-color="#8ad4ff"/><stop offset="0.26" stop-color="#5ab3f9"/><stop offset="0.745" stop-color="#0577ee"/><stop offset="1" stop-color="#0073ed"/></linearGradient><linearGradient id="linear-gradient-6" x1="58.765" y1="67.207" x2="51.312" y2="61.835" xlink:href="#linear-gradient-5"/><linearGradient id="linear-gradient-7" x1="48.79" y1="20.222" x2="48.26" y2="22.42" gradientUnits="userSpaceOnUse"><stop offset="0" stop-color="#803f02"/><stop offset="0.174" stop-color="#6d3602"/><stop offset="0.515" stop-color="#4d2601"/><stop offset="0.802" stop-color="#3a1c01"/><stop offset="1" stop-color="#331901"/></linearGradient><linearGradient id="linear-gradient-8" x1="53.802" y1="20.49" x2="42.327" y2="12.897" gradientUnits="userSpaceOnUse"><stop offset="0.005" stop-color="#414d4d"/><stop offset="0.206" stop-color="#3a4545"/><stop offset="0.522" stop-color="#272e2e"/><stop offset="0.914" stop-color="#080909"/><stop offset="1"/></linearGradient><linearGradient id="linear-gradient-9" x1="194.79" y1="20.222" x2="194.26" y2="22.42" gradientTransform="matrix(-1, 0, 0, 1, 210, 0)" xlink:href="#linear-gradient-7"/><linearGradient id="linear-gradient-10" x1="9.368" y1="20.838" x2="22.643" y2="12.851" xlink:href="#linear-gradient-8"/></defs><g id="_25-Loudly_Crying_Face" data-name="25-Loudly Crying Face"><path d="M32,63C4.3,63,.962,39,1,33V31C.962,25,4.3,1,32,1h0C59.7,1,63.038,25,63,31v2C63.038,39,59.7,63,32,63Z" style="fill:url(#linear-gradient)"/><path d="M43.978,45a12.49,12.49,0,0,0-.588-2.86,11.636,11.636,0,0,0-3.4-5.03,11.819,11.819,0,0,0-15.98,0,11.636,11.636,0,0,0-3.4,5.03A12.49,12.49,0,0,0,20.022,45H20v1h.022c0,.055-.017.1-.022.16-.04.53.37.95.8.81C22.56,46.41,26.93,44,32,44s9.44,2.41,11.2,2.97c.43.14.84-.28.8-.81-.005-.056-.017-.1-.022-.16H44V45Z" style="fill:#f9bf06"/><path d="M43.978,44a12.49,12.49,0,0,0-.588-2.86,11.636,11.636,0,0,0-3.4-5.03,11.819,11.819,0,0,0-15.98,0,11.636,11.636,0,0,0-3.4,5.03A12.49,12.49,0,0,0,20.022,44H20v1h.022c0,.055-.017.1-.022.16-.04.53.37.95.8.81C22.56,45.41,26.93,43,32,43s9.44,2.41,11.2,2.97c.43.14.84-.28.8-.81-.005-.056-.017-.1-.022-.16H44V44Z" style="fill:#ed8d06"/><path d="M44,45.16c.04.53-.37.95-.8.81C41.44,45.41,37.07,43,32,43s-9.44,2.41-11.2,2.97c-.43.14-.84-.28-.8-.81a12.428,12.428,0,0,1,.61-3.02,11.636,11.636,0,0,1,3.4-5.03,11.819,11.819,0,0,1,15.98,0,11.636,11.636,0,0,1,3.4,5.03A12.428,12.428,0,0,1,44,45.16Z" style="fill:url(#linear-gradient-2)"/><path d="M47,20c-6-1-7,1-7,1s12,3,16,5A13.937,13.937,0,0,0,47,20Z" style="fill:#ed8d06"/><path d="M17,20c6-1,7,1,7,1S12,24,8,26A13.937,13.937,0,0,1,17,20Z" style="fill:#ed8d06"/><path d="M17,59.95a34.025,34.025,0,0,0,13.87,3.04V63H3a1.955,1.955,0,0,1-1.41-.59,1.98,1.98,0,0,1,0-2.82A1.955,1.955,0,0,1,3,59a4,4,0,0,0,4-4V51.58C7.07,32.87,12,24,12,24l-.08-.17a33.052,33.052,0,0,1,8.99-2.57c-.46,1.42-2.57,8.62-3.48,23.75C17.17,49.33,17,54.29,17,59.95Z" style="fill:url(#linear-gradient-3)"/><path d="M47,59.95c0-5.66-.17-10.62-.43-14.94-.91-15.13-3.02-22.33-3.48-23.75a33.052,33.052,0,0,1,8.99,2.57L52,24s4.93,8.87,5,27.58V55a4,4,0,0,0,4,4,2,2,0,0,1,0,4H33v-.01A33.916,33.916,0,0,0,47,59.95Z" style="fill:url(#linear-gradient-4)"/><path d="M18,60.4c-.137-.058-.265-.124-.4-.184-.2-.088-.406-.172-.6-.264v-.012A25.834,25.834,0,0,1,7,51.571V55a4,4,0,0,1-4,4,1.955,1.955,0,0,0-1.41.59,1.98,1.98,0,0,0,0,2.82A1.955,1.955,0,0,0,3,63H30.87v-.01A34.4,34.4,0,0,1,17.6,60.214C17.735,60.274,17.863,60.34,18,60.4Z" style="fill:url(#linear-gradient-5)"/><path d="M62.41,59.59A1.955,1.955,0,0,0,61,59a4,4,0,0,1-4-4V51.571a25.834,25.834,0,0,1-10,8.367v.012c-.2.1-.421.185-.631.278-.124.056-.242.116-.369.17.127-.054.245-.114.369-.17A34.3,34.3,0,0,1,33,62.99V63H61a1.994,1.994,0,0,0,1.41-3.41Z" style="fill:url(#linear-gradient-6)"/><path d="M56,26a27.793,27.793,0,0,0-3.92-2.17,33.052,33.052,0,0,0-8.99-2.57A25.122,25.122,0,0,0,40,21s1-2,7-1A13.937,13.937,0,0,1,56,26Z" style="fill:url(#linear-gradient-7)"/><path d="M42,12s1,9,14,8C48,19,42,12,42,12Z" style="fill:#ed8d06"/><path d="M56,20c-12,0-14-8-14-8S48,19,56,20Z" style="fill:url(#linear-gradient-8)"/><path d="M8,26a27.793,27.793,0,0,1,3.92-2.17,33.052,33.052,0,0,1,8.99-2.57A25.122,25.122,0,0,1,24,21s-1-2-7-1A13.937,13.937,0,0,0,8,26Z" style="fill:url(#linear-gradient-9)"/><path d="M22,12s-1,9-14,8C16,19,22,12,22,12Z" style="fill:#ed8d06"/><path d="M8,20c12,0,14-8,14-8S16,19,8,20Z" style="fill:url(#linear-gradient-10)"/><path d="M43.09,21.26c.46,1.42,1.57,8.62,2.48,23.75.251,4.176.417,9.883.428,15.371.3-.128.608-.249.9-.385l0,0c.035-.016.066-.035.1-.051,0-5.657-.17-10.615-.43-14.933C45.66,29.88,43.55,22.68,43.09,21.26Z" style="fill:#ed8d06"/><path d="M17,59.943c.034.016.064.034.1.05l.016.007c.286.135.592.255.888.381.011-5.488.177-11.195.428-15.371.91-15.13,2.02-22.33,2.48-23.75-.46,1.42-2.57,8.62-3.48,23.75C17.17,49.328,17,54.286,17,59.943Z" style="fill:#ed8d06"/></g></svg>