<svg xmlns="http://www.w3.org/2000/svg" xmlns:xlink="http://www.w3.org/1999/xlink" viewBox="0 0 64 64"><defs><linearGradient id="linear-gradient" x1="32" y1="62.462" x2="32" y2="11.453" gradientUnits="userSpaceOnUse"><stop offset="0" stop-color="#ffe100"/><stop offset="0.217" stop-color="#f98900"/><stop offset="0.465" stop-color="#eca483"/><stop offset="0.697" stop-color="#83beec"/><stop offset="0.995" stop-color="#2a97ec"/></linearGradient><radialGradient id="radial-gradient" cx="44" cy="27" r="9" gradientUnits="userSpaceOnUse"><stop offset="0" stop-color="#fff"/><stop offset="0.505" stop-color="#fff"/><stop offset="0.588" stop-color="#fff"/><stop offset="0.804" stop-color="#fdfeff"/><stop offset="0.886" stop-color="#f6faff"/><stop offset="0.945" stop-color="#eaf3ff"/><stop offset="0.993" stop-color="#d9eaff"/><stop offset="1" stop-color="#d6e8ff"/></radialGradient><radialGradient id="radial-gradient-2" cx="94.4" cy="27" r="4" gradientTransform="translate(-74 -6.75) scale(1.25)" gradientUnits="userSpaceOnUse"><stop offset="0.005" stop-color="#414d4d"/><stop offset="0.206" stop-color="#3a4545"/><stop offset="0.522" stop-color="#272e2e"/><stop offset="0.914" stop-color="#080909"/><stop offset="1"/></radialGradient><radialGradient id="radial-gradient-3" cx="20" xlink:href="#radial-gradient"/><radialGradient id="radial-gradient-4" cx="70.4" r="4" gradientTransform="translate(-68 -6.75) scale(1.25)" xlink:href="#radial-gradient-2"/><radialGradient id="radial-gradient-5" cx="48" cy="15" r="6.324" gradientTransform="matrix(1, 0, 0, 1, 0, 0)" xlink:href="#radial-gradient-2"/><radialGradient id="radial-gradient-6" cx="16" cy="15" r="6.324" gradientTransform="matrix(1, 0, 0, 1, 0, 0)" xlink:href="#radial-gradient-2"/><linearGradient id="linear-gradient-2" x1="32" y1="49.225" x2="32" y2="39.414" gradientUnits="userSpaceOnUse"><stop offset="0" stop-color="#911625"/><stop offset="0.139" stop-color="#821421"/><stop offset="0.507" stop-color="#5e0e18"/><stop offset="0.807" stop-color="#480b12"/><stop offset="1" stop-color="#400a10"/></linearGradient></defs><g id="_26-Fearful_Face" data-name="26-Fearful Face"><path d="M32,63C4.3,63,.962,39,1,33V31C.962,25,4.3,1,32,1h0C59.7,1,63.038,25,63,31v2C63.038,39,59.7,63,32,63Z" style="fill:url(#linear-gradient)"/><path d="M53,27a9,9,0,0,0-18,0c0,.169.016.333.025.5-.009.167-.025.331-.025.5a9,9,0,0,0,18,0c0-.169-.016-.333-.025-.5C52.984,27.333,53,27.169,53,27Z" style="fill:#faa15d"/><path d="M20,18a9,9,0,0,0-9,9c0,.169.016.333.025.5-.009.167-.025.331-.025.5a9,9,0,0,0,18,0c0-.169-.016-.333-.025-.5.009-.167.025-.331.025-.5A9,9,0,0,0,20,18Z" style="fill:#faa44e"/><path d="M53,26a9,9,0,0,0-18,0c0,.169.016.333.025.5-.009.167-.025.331-.025.5a9,9,0,0,0,18,0c0-.169-.016-.333-.025-.5C52.984,26.333,53,26.169,53,26Z" style="fill:#4e7ce6"/><path d="M20,17a9,9,0,0,0-9,9c0,.169.016.333.025.5-.009.167-.025.331-.025.5a9,9,0,0,0,18,0c0-.169-.016-.333-.025-.5.009-.167.025-.331.025-.5A9,9,0,0,0,20,17Z" style="fill:#4e7ce6"/><circle cx="44" cy="27" r="9" style="fill:url(#radial-gradient)"/><circle cx="44" cy="27" r="5" style="fill:url(#radial-gradient-2)"/><circle cx="20" cy="27" r="9" style="fill:url(#radial-gradient-3)"/><circle cx="20" cy="27" r="5" style="fill:url(#radial-gradient-4)"/><path d="M55.717,17.3A22.187,22.187,0,0,0,41,11a1,1,0,0,0-1,1,.971.971,0,0,0,.153.5A.974.974,0,0,0,40,13a1,1,0,0,0,1,1c.077,0,7.83.087,13.284,5.7a1,1,0,0,0,1.414.02.987.987,0,0,0,.148-1.216A.987.987,0,0,0,55.717,17.3Z" style="fill:#2e70db"/><path d="M23,11A22.187,22.187,0,0,0,8.283,17.3a.987.987,0,0,0-.128,1.2A.984.984,0,0,0,9,20a1,1,0,0,0,.717-.3C15.171,14.087,22.924,14,23,14a1,1,0,0,0,1-1,.974.974,0,0,0-.153-.5A.971.971,0,0,0,24,12,1,1,0,0,0,23,11Z" style="fill:#2e70db"/><path d="M55,19a1,1,0,0,1-.717-.3C48.829,13.087,41.076,13,41,13a1,1,0,0,1,0-2,22.187,22.187,0,0,1,14.717,6.3A1,1,0,0,1,55,19Z" style="fill:url(#radial-gradient-5)"/><path d="M9,19a1,1,0,0,1-.717-1.7A22.187,22.187,0,0,1,23,11a1,1,0,0,1,0,2c-.077,0-7.83.087-13.284,5.7A1,1,0,0,1,9,19Z" style="fill:url(#radial-gradient-6)"/><path d="M42.429,45.379A12.013,12.013,0,0,0,32,39a12.013,12.013,0,0,0-10.429,6.379A4.464,4.464,0,0,0,21,47.592v2.22a1.989,1.989,0,0,0,2.521,2.068A25.465,25.465,0,0,1,32,50a25.465,25.465,0,0,1,8.479,1.88A1.989,1.989,0,0,0,43,49.812v-2.22A4.464,4.464,0,0,0,42.429,45.379Z" style="fill:#ffb300"/><path d="M42.429,44.379A12.013,12.013,0,0,0,32,38a12.013,12.013,0,0,0-10.429,6.379A4.464,4.464,0,0,0,21,46.592v2.22a1.989,1.989,0,0,0,2.521,2.068A25.465,25.465,0,0,1,32,49a25.465,25.465,0,0,1,8.479,1.88A1.989,1.989,0,0,0,43,48.812v-2.22A4.464,4.464,0,0,0,42.429,44.379Z" style="fill:#e67700"/><path d="M32,39a12.013,12.013,0,0,0-10.429,6.379A4.464,4.464,0,0,0,21,47.592v1.22a1.989,1.989,0,0,0,2.521,2.068A25.465,25.465,0,0,1,32,49a25.465,25.465,0,0,1,8.479,1.88A1.989,1.989,0,0,0,43,48.812v-1.22a4.464,4.464,0,0,0-.571-2.213A12.013,12.013,0,0,0,32,39Z" style="fill:url(#linear-gradient-2)"/></g></svg><svg xmlns="http://www.w3.org/2000/svg" xmlns:xlink="http://www.w3.org/1999/xlink" viewBox="0 0 64 64"><defs><linearGradient id="linear-gradient" x1="32" y1="62.462" x2="32" y2="11.453" gradientUnits="userSpaceOnUse"><stop offset="0" stop-color="#ffe100"/><stop offset="0.217" stop-color="#f98900"/><stop offset="0.465" stop-color="#eca483"/><stop offset="0.697" stop-color="#83beec"/><stop offset="0.995" stop-color="#2a97ec"/></linearGradient><radialGradient id="radial-gradient" cx="44" cy="27" r="9" gradientUnits="userSpaceOnUse"><stop offset="0" stop-color="#fff"/><stop offset="0.505" stop-color="#fff"/><stop offset="0.588" stop-color="#fff"/><stop offset="0.804" stop-color="#fdfeff"/><stop offset="0.886" stop-color="#f6faff"/><stop offset="0.945" stop-color="#eaf3ff"/><stop offset="0.993" stop-color="#d9eaff"/><stop offset="1" stop-color="#d6e8ff"/></radialGradient><radialGradient id="radial-gradient-2" cx="94.4" cy="27" r="4" gradientTransform="translate(-74 -6.75) scale(1.25)" gradientUnits="userSpaceOnUse"><stop offset="0.005" stop-color="#414d4d"/><stop offset="0.206" stop-color="#3a4545"/><stop offset="0.522" stop-color="#272e2e"/><stop offset="0.914" stop-color="#080909"/><stop offset="1"/></radialGradient><radialGradient id="radial-gradient-3" cx="20" xlink:href="#radial-gradient"/><radialGradient id="radial-gradient-4" cx="70.4" r="4" gradientTransform="translate(-68 -6.75) scale(1.25)" xlink:href="#radial-gradient-2"/><radialGradient id="radial-gradient-5" cx="48" cy="15" r="6.324" gradientTransform="matrix(1, 0, 0, 1, 0, 0)" xlink:href="#radial-gradient-2"/><radialGradient id="radial-gradient-6" cx="16" cy="15" r="6.324" gradientTransform="matrix(1, 0, 0, 1, 0, 0)" xlink:href="#radial-gradient-2"/><linearGradient id="linear-gradient-2" x1="32" y1="49.225" x2="32" y2="39.414" gradientUnits="userSpaceOnUse"><stop offset="0" stop-color="#911625"/><stop offset="0.139" stop-color="#821421"/><stop offset="0.507" stop-color="#5e0e18"/><stop offset="0.807" stop-color="#480b12"/><stop offset="1" stop-color="#400a10"/></linearGradient></defs><g id="_26-Fearful_Face" data-name="26-Fearful Face"><path d="M32,63C4.3,63,.962,39,1,33V31C.962,25,4.3,1,32,1h0C59.7,1,63.038,25,63,31v2C63.038,39,59.7,63,32,63Z" style="fill:url(#linear-gradient)"/><path d="M53,27a9,9,0,0,0-18,0c0,.169.016.333.025.5-.009.167-.025.331-.025.5a9,9,0,0,0,18,0c0-.169-.016-.333-.025-.5C52.984,27.333,53,27.169,53,27Z" style="fill:#faa15d"/><path d="M20,18a9,9,0,0,0-9,9c0,.169.016.333.025.5-.009.167-.025.331-.025.5a9,9,0,0,0,18,0c0-.169-.016-.333-.025-.5.009-.167.025-.331.025-.5A9,9,0,0,0,20,18Z" style="fill:#faa44e"/><path d="M53,26a9,9,0,0,0-18,0c0,.169.016.333.025.5-.009.167-.025.331-.025.5a9,9,0,0,0,18,0c0-.169-.016-.333-.025-.5C52.984,26.333,53,26.169,53,26Z" style="fill:#4e7ce6"/><path d="M20,17a9,9,0,0,0-9,9c0,.169.016.333.025.5-.009.167-.025.331-.025.5a9,9,0,0,0,18,0c0-.169-.016-.333-.025-.5.009-.167.025-.331.025-.5A9,9,0,0,0,20,17Z" style="fill:#4e7ce6"/><circle cx="44" cy="27" r="9" style="fill:url(#radial-gradient)"/><circle cx="44" cy="27" r="5" style="fill:url(#radial-gradient-2)"/><circle cx="20" cy="27" r="9" style="fill:url(#radial-gradient-3)"/><circle cx="20" cy="27" r="5" style="fill:url(#radial-gradient-4)"/><path d="M55.717,17.3A22.187,22.187,0,0,0,41,11a1,1,0,0,0-1,1,.971.971,0,0,0,.153.5A.974.974,0,0,0,40,13a1,1,0,0,0,1,1c.077,0,7.83.087,13.284,5.7a1,1,0,0,0,1.414.02.987.987,0,0,0,.148-1.216A.987.987,0,0,0,55.717,17.3Z" style="fill:#2e70db"/><path d="M23,11A22.187,22.187,0,0,0,8.283,17.3a.987.987,0,0,0-.128,1.2A.984.984,0,0,0,9,20a1,1,0,0,0,.717-.3C15.171,14.087,22.924,14,23,14a1,1,0,0,0,1-1,.974.974,0,0,0-.153-.5A.971.971,0,0,0,24,12,1,1,0,0,0,23,11Z" style="fill:#2e70db"/><path d="M55,19a1,1,0,0,1-.717-.3C48.829,13.087,41.076,13,41,13a1,1,0,0,1,0-2,22.187,22.187,0,0,1,14.717,6.3A1,1,0,0,1,55,19Z" style="fill:url(#radial-gradient-5)"/><path d="M9,19a1,1,0,0,1-.717-1.7A22.187,22.187,0,0,1,23,11a1,1,0,0,1,0,2c-.077,0-7.83.087-13.284,5.7A1,1,0,0,1,9,19Z" style="fill:url(#radial-gradient-6)"/><path d="M42.429,45.379A12.013,12.013,0,0,0,32,39a12.013,12.013,0,0,0-10.429,6.379A4.464,4.464,0,0,0,21,47.592v2.22a1.989,1.989,0,0,0,2.521,2.068A25.465,25.465,0,0,1,32,50a25.465,25.465,0,0,1,8.479,1.88A1.989,1.989,0,0,0,43,49.812v-2.22A4.464,4.464,0,0,0,42.429,45.379Z" style="fill:#ffb300"/><path d="M42.429,44.379A12.013,12.013,0,0,0,32,38a12.013,12.013,0,0,0-10.429,6.379A4.464,4.464,0,0,0,21,46.592v2.22a1.989,1.989,0,0,0,2.521,2.068A25.465,25.465,0,0,1,32,49a25.465,25.465,0,0,1,8.479,1.88A1.989,1.989,0,0,0,43,48.812v-2.22A4.464,4.464,0,0,0,42.429,44.379Z" style="fill:#e67700"/><path d="M32,39a12.013,12.013,0,0,0-10.429,6.379A4.464,4.464,0,0,0,21,47.592v1.22a1.989,1.989,0,0,0,2.521,2.068A25.465,25.465,0,0,1,32,49a25.465,25.465,0,0,1,8.479,1.88A1.989,1.989,0,0,0,43,48.812v-1.22a4.464,4.464,0,0,0-.571-2.213A12.013,12.013,0,0,0,32,39Z" style="fill:url(#linear-gradient-2)"/></g></svg>