<svg xmlns="http://www.w3.org/2000/svg" xmlns:xlink="http://www.w3.org/1999/xlink" viewBox="0 0 64 64"><defs><linearGradient id="linear-gradient" x1="32" y1="1.304" x2="32" y2="63.304" gradientUnits="userSpaceOnUse"><stop offset="0" stop-color="#ffe100"/><stop offset="1" stop-color="#f98900"/></linearGradient><linearGradient id="linear-gradient-2" x1="35.48" y1="47.326" x2="35.742" y2="62.701" gradientUnits="userSpaceOnUse"><stop offset="0" stop-color="#8ad4ff"/><stop offset="0.063" stop-color="#7eccfd"/><stop offset="0.378" stop-color="#48a6f6"/><stop offset="0.651" stop-color="#218af1"/><stop offset="0.867" stop-color="#0979ee"/><stop offset="1" stop-color="#0073ed"/></linearGradient><linearGradient id="linear-gradient-3" x1="31" y1="56.5" x2="35.681" y2="56.5" gradientUnits="userSpaceOnUse"><stop offset="0" stop-color="#fa9200" stop-opacity="0.1"/><stop offset="1" stop-color="#964200"/></linearGradient><linearGradient id="linear-gradient-4" x1="32" y1="49.6" x2="32" y2="43.77" gradientUnits="userSpaceOnUse"><stop offset="0" stop-color="#911625"/><stop offset="0.412" stop-color="#69101b"/><stop offset="0.788" stop-color="#4b0c13"/><stop offset="1" stop-color="#400a10"/></linearGradient><linearGradient id="linear-gradient-5" x1="49.186" y1="17.314" x2="47.751" y2="19.733" gradientUnits="userSpaceOnUse"><stop offset="0.005" stop-color="#414d4d"/><stop offset="0.206" stop-color="#3a4545"/><stop offset="0.522" stop-color="#272e2e"/><stop offset="0.914" stop-color="#080909"/><stop offset="1"/></linearGradient><linearGradient id="linear-gradient-6" x1="10.186" y1="13.314" x2="8.751" y2="15.733" gradientTransform="matrix(-1, 0, 0, 1, 26, 0)" xlink:href="#linear-gradient-5"/><linearGradient id="linear-gradient-7" x1="38" y1="28.5" x2="48" y2="28.5" gradientUnits="userSpaceOnUse"><stop offset="0" stop-color="#803f02"/><stop offset="0.174" stop-color="#6d3602"/><stop offset="0.515" stop-color="#4d2601"/><stop offset="0.802" stop-color="#3a1c01"/><stop offset="1" stop-color="#331901"/></linearGradient><linearGradient id="linear-gradient-8" x1="8" x2="18" gradientTransform="matrix(-1, 0, 0, 1, 34, 0)" xlink:href="#linear-gradient-7"/><linearGradient id="linear-gradient-9" x1="36.539" y1="61.05" x2="36.486" y2="57" gradientUnits="userSpaceOnUse"><stop offset="0" stop-color="#8ad4ff"/><stop offset="0.063" stop-color="#82cdfd" stop-opacity="0.891"/><stop offset="0.21" stop-color="#70bef9" stop-opacity="0.658"/><stop offset="0.357" stop-color="#61b1f5" stop-opacity="0.457"/><stop offset="0.499" stop-color="#54a6f2" stop-opacity="0.293"/><stop offset="0.637" stop-color="#4b9ef0" stop-opacity="0.165"/><stop offset="0.77" stop-color="#4498ee" stop-opacity="0.074"/><stop offset="0.893" stop-color="#3f94ed" stop-opacity="0.019"/><stop offset="1" stop-color="#3e93ed" stop-opacity="0"/></linearGradient><linearGradient id="linear-gradient-10" x1="35.986" y1="47.87" x2="36.324" y2="51.611" gradientUnits="userSpaceOnUse"><stop offset="0" stop-color="#bfe7ff"/><stop offset="0.086" stop-color="#b9e5ff" stop-opacity="0.97"/><stop offset="0.218" stop-color="#a9e0ff" stop-opacity="0.887"/><stop offset="0.378" stop-color="#90d8ff" stop-opacity="0.752"/><stop offset="0.56" stop-color="#6cccff" stop-opacity="0.564"/><stop offset="0.762" stop-color="#3ebeff" stop-opacity="0.323"/><stop offset="0.976" stop-color="#06acff" stop-opacity="0.034"/><stop offset="1" stop-color="#0af" stop-opacity="0"/></linearGradient></defs><g id="_27-Drooling_Face" data-name="27-Drooling Face"><path d="M32,63C4.3,63,.962,39,1,33V31C.962,25,4.3,1,32,1h0C59.7,1,63.038,25,63,31v2C63.038,39,59.7,63,32,63Z" style="fill:url(#linear-gradient)"/><path d="M44.993,41a1.479,1.479,0,0,1-.073.53c-.48,1.42-2.1,3.53-4.92,5.47a6.925,6.925,0,0,0-5,0,6.925,6.925,0,0,0-4,3,14.722,14.722,0,0,1-11.92-8.47,1.479,1.479,0,0,1-.073-.53H19v1h.009a1.5,1.5,0,0,0,.074.529A14.63,14.63,0,0,0,31.973,51c7.351,0,11.05-5,12.89-8.471A1.131,1.131,0,0,0,44.991,42H45V41Z" style="fill:#f9bf06"/><path d="M40,59c0,2,0,4-4,4-2,0-3-1-3-4s1-3,1-6a2.938,2.938,0,0,0-3-3,6.925,6.925,0,0,1,4-3,6.925,6.925,0,0,1,5,0,9.015,9.015,0,0,0-1,5C39,54,40,57,40,59Z" style="fill:url(#linear-gradient-2)"/><path d="M33,59c0-3,1-3,1-6a2.938,2.938,0,0,0-3-3s2,0,2,3-2,3-2,6a3.663,3.663,0,0,0,4,4c.242,0,.467-.008.681-.022C33.9,62.868,33,61.83,33,59Z" style="fill:url(#linear-gradient-3)"/><path d="M45,40h-.007a.913.913,0,0,0-1.233-.94A33,33,0,0,1,32,41a33,33,0,0,1-11.76-1.94.913.913,0,0,0-1.233.94H19v1h.007a1.479,1.479,0,0,0,.073.53A14.722,14.722,0,0,0,31,50a6.925,6.925,0,0,1,4-3,6.925,6.925,0,0,1,5,0c2.82-1.94,4.44-4.05,4.92-5.47a1.479,1.479,0,0,0,.073-.53H45Z" style="fill:#ed8d06"/><path d="M32,42a33,33,0,0,0,11.76-1.94c.91-.3,1.46.58,1.16,1.47-.48,1.42-2.1,3.53-4.92,5.47a6.925,6.925,0,0,0-5,0,6.925,6.925,0,0,0-4,3,14.722,14.722,0,0,1-11.92-8.47c-.3-.89.25-1.77,1.16-1.47A33,33,0,0,0,32,42Z" style="fill:url(#linear-gradient-4)"/><path d="M42,18c5,2,6,3,10,6,0,0,0-6-4-7S42,18,42,18Z" style="fill:#eda406"/><path d="M42,18c5,0,8.3,3.46,10,6,0,0,0-6-4-7S42,18,42,18Z" style="fill:url(#linear-gradient-5)"/><path d="M23,14c-5,2-6,3-10,6,0,0,0-6,4-7S23,14,23,14Z" style="fill:#eda406"/><path d="M23,14c-5,0-8.3,3.46-10,6,0,0,0-6,4-7S23,14,23,14Z" style="fill:url(#linear-gradient-6)"/><path d="M48,31.846c0-.2-.016-.383-.035-.552a8.081,8.081,0,0,0-1.087-3.573C45.507,25.434,44.2,25,42.44,25a5.136,5.136,0,0,0-.535.027A4.507,4.507,0,0,0,38,29.579V32s1-4,4-4,6,5,6,5V31.928C48,31.9,48,31.874,48,31.846Z" style="fill:#eda406"/><path d="M48,30.846c0-.2-.016-.383-.035-.552a8.081,8.081,0,0,0-1.087-3.573C45.507,24.434,44.2,24,42.44,24a5.136,5.136,0,0,0-.535.027A4.507,4.507,0,0,0,38,28.579V31s1-4,4-4,6,5,6,5V30.928C48,30.9,48,30.874,48,30.846Z" style="fill:#ffd000"/><path d="M42,27c-3,0-4,4-4,4V29.579a4.507,4.507,0,0,1,3.905-4.552A5.136,5.136,0,0,1,42.44,25c1.757,0,3.067.434,4.433,2.721A8.2,8.2,0,0,1,48,31.928V32S45,27,42,27Z" style="fill:url(#linear-gradient-7)"/><path d="M16.005,31.846c0-.2.016-.383.035-.552a8.081,8.081,0,0,1,1.087-3.573C18.493,25.434,19.8,25,21.56,25a5.136,5.136,0,0,1,.535.027A4.507,4.507,0,0,1,26,29.579V32s-1-4-4-4-6,5-6,5V31.928C16,31.9,16.005,31.874,16.005,31.846Z" style="fill:#eda406"/><path d="M16.005,30.846c0-.2.016-.383.035-.552a8.081,8.081,0,0,1,1.087-3.573C18.493,24.434,19.8,24,21.56,24a5.136,5.136,0,0,1,.535.027A4.507,4.507,0,0,1,26,28.579V31s-1-4-4-4-6,5-6,5V30.928C16,30.9,16.005,30.874,16.005,30.846Z" style="fill:#ffd000"/><path d="M22,27c3,0,4,4,4,4V29.579A4.507,4.507,0,0,0,22.1,25.027,5.136,5.136,0,0,0,21.56,25c-1.757,0-3.067.434-4.433,2.721A8.2,8.2,0,0,0,16,31.928V32S19,27,22,27Z" style="fill:url(#linear-gradient-8)"/><path d="M35.9,61.307a2.466,2.466,0,0,0,2.857-.669,4.336,4.336,0,0,0,.7-2.226,3.085,3.085,0,0,0-.028-1.118,1.044,1.044,0,0,0-.682-.779.394.394,0,0,0-.275.02.523.523,0,0,0-.174.176c-.231.341-.345.762-.578,1.1a1.6,1.6,0,0,1-1.74.646c-.526-.159-2.752-1.612-2.46.115A4.282,4.282,0,0,0,35.9,61.307Z" style="fill:url(#linear-gradient-9)"/><path d="M34.5,48.428c-.233.157-.475.39-.437.668a.836.836,0,0,0,.328.47l1.174,1.045a5.112,5.112,0,0,0,1.136.837.865.865,0,0,0,.523.109c.342-.063.524-.434.625-.766a6.115,6.115,0,0,0,.263-1.677,1.741,1.741,0,0,0-.148-.847C37.3,47.008,35.341,47.862,34.5,48.428Z" style="fill:url(#linear-gradient-10)"/></g></svg>