<svg xmlns="http://www.w3.org/2000/svg" xmlns:xlink="http://www.w3.org/1999/xlink" viewBox="0 0 64 64"><defs><linearGradient id="linear-gradient" x1="32" y1="1.304" x2="32" y2="63.304" gradientUnits="userSpaceOnUse"><stop offset="0" stop-color="#ffe100"/><stop offset="1" stop-color="#f98900"/></linearGradient><radialGradient id="radial-gradient" cx="-18.033" cy="2.706" r="9.917" gradientTransform="translate(73.459 38.18) scale(1.412)" gradientUnits="userSpaceOnUse"><stop offset="0" stop-color="#f60"/><stop offset="0.098" stop-color="#ff6800" stop-opacity="0.978"/><stop offset="0.222" stop-color="#fe6d01" stop-opacity="0.916"/><stop offset="0.36" stop-color="#fe7501" stop-opacity="0.814"/><stop offset="0.509" stop-color="#fd8003" stop-opacity="0.672"/><stop offset="0.666" stop-color="#fc8e04" stop-opacity="0.488"/><stop offset="0.83" stop-color="#fba006" stop-opacity="0.264"/><stop offset="0.997" stop-color="#f9b508" stop-opacity="0.004"/><stop offset="1" stop-color="#f9b508" stop-opacity="0"/></radialGradient><radialGradient id="radial-gradient-2" cx="-40.7" cy="2.706" r="9.917" xlink:href="#radial-gradient"/><radialGradient id="radial-gradient-3" cx="15.105" cy="32.425" r="2.67" gradientUnits="userSpaceOnUse"><stop offset="0" stop-color="#fff"/><stop offset="0.365" stop-color="#fcfdfe"/><stop offset="0.636" stop-color="#f3f7fc"/><stop offset="0.876" stop-color="#e3ecf7"/><stop offset="1" stop-color="#d7e4f4"/></radialGradient><radialGradient id="radial-gradient-4" cx="24" cy="31" r="2" xlink:href="#radial-gradient-3"/><radialGradient id="radial-gradient-5" cx="19" cy="24" r="4" xlink:href="#radial-gradient-3"/><radialGradient id="radial-gradient-6" cx="40" cy="31" r="2" xlink:href="#radial-gradient-3"/><radialGradient id="radial-gradient-7" cx="45" cy="24" r="4" xlink:href="#radial-gradient-3"/><radialGradient id="radial-gradient-8" cx="48.895" cy="32.425" r="2.67" xlink:href="#radial-gradient-3"/><radialGradient id="radial-gradient-9" cx="45" cy="26.005" r="8.998" gradientUnits="userSpaceOnUse"><stop offset="0.005" stop-color="#414d4d"/><stop offset="0.206" stop-color="#3a4545"/><stop offset="0.522" stop-color="#272e2e"/><stop offset="0.914" stop-color="#080909"/><stop offset="1"/></radialGradient><radialGradient id="radial-gradient-10" cx="19" cy="26.005" r="8.998" xlink:href="#radial-gradient-9"/><radialGradient id="radial-gradient-11" cx="45.475" cy="27.813" r="10.48" gradientUnits="userSpaceOnUse"><stop offset="0" stop-color="#fff"/><stop offset="0.505" stop-color="#fff"/><stop offset="0.588" stop-color="#fff"/><stop offset="0.804" stop-color="#fdfeff"/><stop offset="0.886" stop-color="#f6faff"/><stop offset="0.945" stop-color="#eaf3ff"/><stop offset="0.993" stop-color="#d9eaff"/><stop offset="1" stop-color="#d6e8ff"/></radialGradient><radialGradient id="radial-gradient-12" cx="18" cy="27" r="10.512" xlink:href="#radial-gradient-11"/><linearGradient id="linear-gradient-2" x1="32" y1="48.794" x2="32" y2="43.567" gradientUnits="userSpaceOnUse"><stop offset="0" stop-color="#911625"/><stop offset="0.412" stop-color="#69101b"/><stop offset="0.788" stop-color="#4b0c13"/><stop offset="1" stop-color="#400a10"/></linearGradient><linearGradient id="linear-gradient-3" x1="46.005" y1="27.694" x2="46.193" y2="18.019" xlink:href="#radial-gradient-9"/><linearGradient id="linear-gradient-4" x1="6.005" y1="27.694" x2="6.193" y2="18.019" gradientTransform="matrix(-1, 0, 0, 1, 24, 0)" xlink:href="#radial-gradient-9"/><radialGradient id="radial-gradient-13" cx="50" cy="15" r="6.964" xlink:href="#radial-gradient-9"/><radialGradient id="radial-gradient-14" cx="18" cy="15" r="6.964" gradientTransform="matrix(-1, 0, 0, 1, 32, 0)" xlink:href="#radial-gradient-9"/><radialGradient id="radial-gradient-15" cx="32" cy="44.5" r="3.579" xlink:href="#radial-gradient-11"/></defs><g id="_28-Pleading_Face" data-name="28-Pleading Face"><path d="M32,63C4.3,63,.962,39,1,33V31C.962,25,4.3,1,32,1h0C59.7,1,63.038,25,63,31v2C63.038,39,59.7,63,32,63Z" style="fill:url(#linear-gradient)"/><path d="M59,18a1,1,0,0,0-1-1c-10.9,0-15.132-5.51-15.193-5.591a1,1,0,0,0-1.4-.218.989.989,0,0,0-.268,1.293,1,1,0,0,0,.047,1.1C41.381,13.85,45.989,20,58,20a1,1,0,0,0,1-1,.977.977,0,0,0-.153-.5A.977.977,0,0,0,59,18Z" style="fill:#eda406"/><path d="M22.588,11.191a1,1,0,0,0-1.395.218C21.132,11.49,16.9,17,6,17a1,1,0,0,0-1,1,.977.977,0,0,0,.153.5A.977.977,0,0,0,5,19a1,1,0,0,0,1,1c12.011,0,16.619-6.15,16.809-6.412a1,1,0,0,0,.047-1.1A.989.989,0,0,0,22.588,11.191Z" style="fill:#eda406"/><path d="M48,28a14,14,0,1,0,6.835,26.212,30.946,30.946,0,0,0,7.1-13.482A14,14,0,0,0,48,28Z" style="fill:url(#radial-gradient)"/><path d="M30,42A14,14,0,0,0,2.064,40.73a30.946,30.946,0,0,0,7.1,13.482A13.991,13.991,0,0,0,30,42Z" style="fill:url(#radial-gradient-2)"/><path d="M57,27A10.985,10.985,0,0,0,46.67,16.02h-.02c-.22-.01-.43-.02-.65-.02-.18,0-.36,0-.54.01h-.03a10.956,10.956,0,0,0-7.87,3.94s-.02.01-.02.02A10.946,10.946,0,0,0,35,27c0,.185.016.348.021.526-.007.158-.021.314-.021.474,0,8,4.92,9,11,9,8,0,11-2.92,11-9,0-.135-.015-.266-.019-.4C56.988,27.4,57,27.207,57,27Z" style="fill:#eda406"/><path d="M57,28A10.985,10.985,0,0,0,46.67,17.02h-.02c-.22-.01-.43-.02-.65-.02-.18,0-.36,0-.54.01h-.03a10.956,10.956,0,0,0-7.87,3.94s-.02.01-.02.02A10.946,10.946,0,0,0,35,28c0,.185.016.348.021.526-.007.158-.021.314-.021.474,0,8,4.92,9,11,9,8,0,11-2.92,11-9,0-.135-.015-.266-.019-.4C56.988,28.4,57,28.207,57,28Z" style="fill:#ffd000"/><path d="M29,27A10.985,10.985,0,0,0,18.67,16.02h-.02c-.22-.01-.43-.02-.65-.02-.18,0-.36,0-.54.01h-.03a10.956,10.956,0,0,0-7.87,3.94s-.02.01-.02.02A10.946,10.946,0,0,0,7,27c0,.185.016.348.021.526C7.014,27.684,7,27.84,7,28c0,8,4.92,9,11,9,8,0,11-2.92,11-9,0-.135-.015-.266-.019-.4C28.988,27.4,29,27.207,29,27Z" style="fill:#eda406"/><path d="M29,28A10.985,10.985,0,0,0,18.67,17.02h-.02c-.22-.01-.43-.02-.65-.02-.18,0-.36,0-.54.01h-.03a10.956,10.956,0,0,0-7.87,3.94s-.02.01-.02.02A10.946,10.946,0,0,0,7,28c0,.185.016.348.021.526C7.014,28.684,7,28.84,7,29c0,8,4.92,9,11,9,8,0,11-2.92,11-9,0-.135-.015-.266-.019-.4C28.988,28.4,29,28.207,29,28Z" style="fill:#ffd000"/><path d="M18,33a2.984,2.984,0,0,1-.64,1.85,8.992,8.992,0,0,1-5.15-2.95A3,3,0,0,1,18,33Z" style="fill:url(#radial-gradient-3)"/><path d="M25.78,31.91a8.931,8.931,0,0,1-.87.87A1.973,1.973,0,0,1,24,33a2,2,0,1,1,2-2A1.973,1.973,0,0,1,25.78,31.91Z" style="fill:url(#radial-gradient-4)"/><circle cx="19" cy="24" r="4" style="fill:url(#radial-gradient-5)"/><path d="M42,31a2.006,2.006,0,0,1-2,2,1.973,1.973,0,0,1-.91-.22,8.931,8.931,0,0,1-.87-.87A1.973,1.973,0,0,1,38,31a2,2,0,0,1,4,0Z" style="fill:url(#radial-gradient-6)"/><circle cx="45" cy="24" r="4" style="fill:url(#radial-gradient-7)"/><path d="M49,30a3,3,0,0,1,2.79,1.9,8.992,8.992,0,0,1-5.15,2.95A3,3,0,0,1,49,30Z" style="fill:url(#radial-gradient-8)"/><path d="M45,20a4,4,0,1,0,4,4A4,4,0,0,0,45,20Zm9,6a8.928,8.928,0,0,1-2.21,5.9,3,3,0,1,0-5.15,2.95,8.989,8.989,0,0,1-7.55-2.07A1.973,1.973,0,0,0,40,33a2,2,0,1,0-2-2,1.973,1.973,0,0,0,.22.91,8.98,8.98,0,0,1-.68-10.94c0-.01.02-.02.02-.02a10.956,10.956,0,0,1,7.87-3.94h.03A9,9,0,0,1,54,26Z" style="fill:url(#radial-gradient-9)"/><path d="M23,24a4,4,0,1,0-4,4A4,4,0,0,0,23,24ZM12.21,31.9a9,9,0,0,1,6.33-14.89h.03a10.956,10.956,0,0,1,7.87,3.94s.02.01.02.02a8.98,8.98,0,0,1-.68,10.94A1.973,1.973,0,0,0,26,31a2,2,0,1,0-2,2,1.973,1.973,0,0,0,.91-.22,8.989,8.989,0,0,1-7.55,2.07,3,3,0,1,0-5.15-2.95Z" style="fill:url(#radial-gradient-10)"/><path d="M46.67,17.02A10.985,10.985,0,0,1,57,28c0,6.08-3,9-11,9-6.08,0-11-1-11-9a10.946,10.946,0,0,1,2.54-7.03A9,9,0,0,0,45,35a8.854,8.854,0,0,0,1.64-.15,9,9,0,0,0-1.18-17.84c.18-.01.36-.01.54-.01.22,0,.43.01.65.02Z" style="fill:url(#radial-gradient-11)"/><path d="M7,28A10.985,10.985,0,0,1,17.33,17.02h.02c.22-.01.43-.02.65-.02.18,0,.36,0,.54.01a9,9,0,0,0-1.18,17.84A9.011,9.011,0,0,0,28,26a8.951,8.951,0,0,0-1.54-5.03A10.946,10.946,0,0,1,29,28c0,8-4.92,9-11,9C10,37,7,34.08,7,28Z" style="fill:url(#radial-gradient-12)"/><path d="M38.73,46.82A8.4,8.4,0,0,0,32,43a8.4,8.4,0,0,0-6.73,3.82,1.505,1.505,0,0,0-.182,1.349c-.317.887.278,1.987,1.122,1.811A34.025,34.025,0,0,1,32,49a34.025,34.025,0,0,1,5.79.98c.844.176,1.439-.924,1.122-1.811A1.505,1.505,0,0,0,38.73,46.82Z" style="fill:#ffd000"/><path d="M38.73,45.82A8.4,8.4,0,0,0,32,42a8.4,8.4,0,0,0-6.73,3.82,1.505,1.505,0,0,0-.182,1.349c-.317.887.278,1.987,1.122,1.811A34.025,34.025,0,0,1,32,48a34.025,34.025,0,0,1,5.79.98c.844.176,1.439-.924,1.122-1.811A1.505,1.505,0,0,0,38.73,45.82Z" style="fill:#ed8d06"/><path d="M38.73,46.82c.66.91.02,2.36-.94,2.16A34.025,34.025,0,0,0,32,48a34.025,34.025,0,0,0-5.79.98c-.96.2-1.6-1.25-.94-2.16A8.4,8.4,0,0,1,32,43,8.4,8.4,0,0,1,38.73,46.82Z" style="fill:url(#linear-gradient-2)"/><path d="M37.56,21.95a10.956,10.956,0,0,1,7.87-3.94h.03c.18-.01.36-.01.54-.01.22,0,.43.01.65.02h.02A10.976,10.976,0,0,1,56.981,28.6c.007-.2.019-.393.019-.6A10.985,10.985,0,0,0,46.67,17.02h-.02c-.22-.01-.43-.02-.65-.02-.18,0-.36,0-.54.01h-.03a10.956,10.956,0,0,0-7.87,3.94s-.02.01-.02.02A10.946,10.946,0,0,0,35,28c0,.185.016.348.021.526A10.938,10.938,0,0,1,37.54,21.97C37.54,21.96,37.56,21.95,37.56,21.95Z" style="fill:url(#linear-gradient-3)"/><path d="M26.44,21.95a10.956,10.956,0,0,0-7.87-3.94h-.03C18.36,18,18.18,18,18,18c-.22,0-.43.01-.65.02h-.02A10.976,10.976,0,0,0,7.019,28.6C7.012,28.4,7,28.207,7,28A10.985,10.985,0,0,1,17.33,17.02h.02c.22-.01.43-.02.65-.02.18,0,.36,0,.54.01h.03a10.956,10.956,0,0,1,7.87,3.94s.02.01.02.02A10.946,10.946,0,0,1,29,28c0,.185-.016.348-.021.526A10.938,10.938,0,0,0,26.46,21.97C26.46,21.96,26.44,21.95,26.44,21.95Z" style="fill:url(#linear-gradient-4)"/><path d="M58,19c-12.011,0-16.619-6.15-16.809-6.412a1,1,0,0,1,1.616-1.179C42.868,11.49,47.1,17,58,17a1,1,0,0,1,0,2Z" style="fill:url(#radial-gradient-13)"/><path d="M6,19c12.011,0,16.619-6.15,16.809-6.412a1,1,0,0,0-1.616-1.179C21.132,11.49,16.9,17,6,17a1,1,0,0,0,0,2Z" style="fill:url(#radial-gradient-14)"/><path d="M29,46h6a2,2,0,0,0,1.834-1.206,7.41,7.41,0,0,0-9.668,0A2,2,0,0,0,29,46Z" style="fill:url(#radial-gradient-15)"/></g></svg>