<svg xmlns="http://www.w3.org/2000/svg" xmlns:xlink="http://www.w3.org/1999/xlink" viewBox="0 0 64 64"><defs><linearGradient id="linear-gradient" x1="32" y1="1.304" x2="32" y2="63.304" gradientUnits="userSpaceOnUse"><stop offset="0" stop-color="#ffe100"/><stop offset="1" stop-color="#f98900"/></linearGradient><linearGradient id="linear-gradient-2" x1="32" y1="64.035" x2="32" y2="52.404" gradientUnits="userSpaceOnUse"><stop offset="0" stop-color="#fa9200" stop-opacity="0.1"/><stop offset="0.889" stop-color="#f96c00"/></linearGradient><linearGradient id="linear-gradient-3" x1="32" y1="52.975" x2="32" y2="36.452" gradientUnits="userSpaceOnUse"><stop offset="0" stop-color="#69101b"/><stop offset="0.742" stop-color="#400a10"/><stop offset="0.995" stop-color="#1a0406"/></linearGradient><linearGradient id="linear-gradient-4" x1="32" y1="59.969" x2="32" y2="39.319" gradientUnits="userSpaceOnUse"><stop offset="0" stop-color="#69101b"/><stop offset="0.434" stop-color="#5a0e17"/><stop offset="1" stop-color="#400a10"/></linearGradient><linearGradient id="linear-gradient-5" x1="32" y1="53.913" x2="32" y2="40.347" gradientUnits="userSpaceOnUse"><stop offset="0" stop-color="#aae5aa"/><stop offset="0.419" stop-color="#98e598"/><stop offset="0.727" stop-color="#90e590"/><stop offset="1" stop-color="#56b356"/></linearGradient><linearGradient id="linear-gradient-6" x1="32" y1="57.775" x2="32" y2="40.221" gradientUnits="userSpaceOnUse"><stop offset="0.005" stop-color="#16c60c"/><stop offset="0.286" stop-color="#12a90a"/><stop offset="0.552" stop-color="#109409"/><stop offset="0.727" stop-color="#0f8c09"/><stop offset="1" stop-color="#0a6306"/></linearGradient><linearGradient id="linear-gradient-7" x1="32" y1="58.775" x2="32" y2="40.962" gradientUnits="userSpaceOnUse"><stop offset="0.005" stop-color="#16c60c"/><stop offset="0.39" stop-color="#12a90a"/><stop offset="0.755" stop-color="#109409"/><stop offset="0.995" stop-color="#0f8c09"/></linearGradient><linearGradient id="linear-gradient-8" x1="49" y1="6.183" x2="49" y2="30.563" xlink:href="#linear-gradient-7"/><linearGradient id="linear-gradient-9" x1="62.125" y1="18" x2="31.672" y2="18" gradientUnits="userSpaceOnUse"><stop offset="0.005" stop-color="#18d90d"/><stop offset="0.136" stop-color="#16cb0c"/><stop offset="0.499" stop-color="#12a90a"/><stop offset="0.798" stop-color="#109409"/><stop offset="0.995" stop-color="#0f8c09"/></linearGradient><linearGradient id="linear-gradient-10" x1="44" y1="14.062" x2="54" y2="14.062" gradientUnits="userSpaceOnUse"><stop offset="0.005" stop-color="#0f8208"/><stop offset="0.044" stop-color="#0f8108"/><stop offset="0.995" stop-color="#0a6106"/></linearGradient><linearGradient id="linear-gradient-11" y1="27.5" x2="54" y2="27.5" xlink:href="#linear-gradient-10"/><linearGradient id="linear-gradient-12" y1="18.527" x2="54" y2="18.527" xlink:href="#linear-gradient-10"/><linearGradient id="linear-gradient-13" y1="23.911" x2="54" y2="23.911" xlink:href="#linear-gradient-10"/><linearGradient id="linear-gradient-14" y1="25.5" x2="54" y2="25.5" xlink:href="#linear-gradient-10"/><linearGradient id="linear-gradient-15" x1="15" y1="6.183" x2="15" y2="30.563" xlink:href="#linear-gradient-7"/><linearGradient id="linear-gradient-16" x1="28.125" y1="18" x2="-2.328" y2="18" xlink:href="#linear-gradient-9"/><linearGradient id="linear-gradient-17" x1="10" y1="14.062" x2="20" y2="14.062" xlink:href="#linear-gradient-10"/><linearGradient id="linear-gradient-18" x1="10" y1="27.5" x2="20" y2="27.5" xlink:href="#linear-gradient-10"/><linearGradient id="linear-gradient-19" x1="10" y1="18.527" x2="20" y2="18.527" xlink:href="#linear-gradient-10"/><linearGradient id="linear-gradient-20" x1="10" y1="23.911" x2="20" y2="23.911" xlink:href="#linear-gradient-10"/><linearGradient id="linear-gradient-21" x1="10" y1="25.5" x2="20" y2="25.5" xlink:href="#linear-gradient-10"/><linearGradient id="linear-gradient-22" x1="48.873" y1="35.406" x2="48.873" y2="29.392" gradientUnits="userSpaceOnUse"><stop offset="0" stop-color="#ffe100" stop-opacity="0"/><stop offset="1" stop-color="#f98900"/></linearGradient><linearGradient id="linear-gradient-23" x1="15.126" y1="35.406" x2="15.126" y2="29.392" xlink:href="#linear-gradient-22"/></defs><g id="_29-Money-Mouth_Face" data-name="29-Money-Mouth Face"><path d="M32,63C4.3,63,.962,39,1,33V31C.962,25,4.3,1,32,1h0C59.7,1,63.038,25,63,31v2C63.038,39,59.7,63,32,63Z" style="fill:url(#linear-gradient)"/><path d="M50,38a.97.97,0,0,0-1.186-.97C46.16,37.79,39.61,37,32,37s-14.16.79-16.81.03A.97.97,0,0,0,14,38h0v1h0a1.115,1.115,0,0,0,0,.13,14.7,14.7,0,0,0,.92,4.02,15.6,15.6,0,0,0,5.09,6.71A18.8,18.8,0,0,0,32,54a18.8,18.8,0,0,0,11.99-4.14,15.6,15.6,0,0,0,5.09-6.71A14.7,14.7,0,0,0,50,39.13,1.115,1.115,0,0,0,50,39h0V38Z" style="fill:#f9bf06"/><path d="M32,53a18.749,18.749,0,0,1-10.5-3.073l-.415,11.578A37.664,37.664,0,0,0,32,63a37.664,37.664,0,0,0,10.911-1.495L42.5,49.927A18.749,18.749,0,0,1,32,53Z" style="fill:url(#linear-gradient-2)"/><path d="M50,37a.97.97,0,0,0-1.186-.97C46.16,36.79,39.61,36,32,36s-14.16.79-16.81.03A.97.97,0,0,0,14,37h0v1h0a1.115,1.115,0,0,0,0,.13,14.7,14.7,0,0,0,.92,4.02,15.6,15.6,0,0,0,5.09,6.71A18.8,18.8,0,0,0,32,53a18.8,18.8,0,0,0,11.99-4.14,15.6,15.6,0,0,0,5.09-6.71A14.7,14.7,0,0,0,50,38.13,1.115,1.115,0,0,0,50,38h0V37Z" style="fill:#ed8d06"/><path d="M48.81,37.03A.986.986,0,0,1,50,38.13a14.7,14.7,0,0,1-.92,4.02,15.6,15.6,0,0,1-5.09,6.71A18.8,18.8,0,0,1,32,53a18.8,18.8,0,0,1-11.99-4.14,15.6,15.6,0,0,1-5.09-6.71A14.7,14.7,0,0,1,14,38.13a.986.986,0,0,1,1.19-1.1c2.65.76,9.2-.03,16.81-.03S46.16,37.79,48.81,37.03Z" style="fill:url(#linear-gradient-3)"/><path d="M23,40H22l-.5,9.927A18.749,18.749,0,0,0,32,53a18.749,18.749,0,0,0,10.5-3.073L42,40Z" style="fill:url(#linear-gradient-4)"/><rect x="27" y="40" width="10" height="14" style="fill:url(#linear-gradient-5)"/><path d="M27,52a2.006,2.006,0,0,1,2,2h6a2.006,2.006,0,0,1,2-2V40h4V58H23V40h4V52Z" style="fill:url(#linear-gradient-6)"/><circle cx="38" cy="55" r="1" style="fill:#aae5aa"/><circle cx="26" cy="55" r="1" style="fill:#aae5aa"/><ellipse cx="32" cy="43.5" rx="4" ry="2.5" style="fill:url(#linear-gradient-7)"/><circle cx="49" cy="18" r="13" style="fill:url(#linear-gradient-8)"/><path d="M49,5A13,13,0,1,0,62,18,13,13,0,0,0,49,5Zm0,25A12,12,0,1,1,61,18,12,12,0,0,1,49,30Z" style="fill:url(#linear-gradient-9)"/><path d="M51.762,17.968,46.94,16.159A1.625,1.625,0,0,1,46,14.615,1.493,1.493,0,0,1,47.325,13H53V11H50V9H48v2h-.675A3.484,3.484,0,0,0,44,14.615a3.606,3.606,0,0,0,2.238,3.417l4.822,1.809A1.625,1.625,0,0,1,52,21.385,1.493,1.493,0,0,1,50.675,23H45v2h3v2h2V25h.675A3.484,3.484,0,0,0,54,21.385,3.606,3.606,0,0,0,51.762,17.968Z" style="fill:#fff"/><path d="M46,14.615a1.9,1.9,0,0,0,.069.509A1.382,1.382,0,0,1,47.325,14H53V13H47.325A1.493,1.493,0,0,0,46,14.615Z" style="fill:url(#linear-gradient-10)"/><rect x="48" y="27" width="2" height="1" style="fill:url(#linear-gradient-11)"/><path d="M51.06,19.841l-4.822-1.809a3.55,3.55,0,0,1-2.2-2.855,3.712,3.712,0,0,0-.041.438,3.606,3.606,0,0,0,2.238,3.417l4.822,1.809a1.509,1.509,0,0,1,.871,1.035A1.921,1.921,0,0,0,52,21.385,1.625,1.625,0,0,0,51.06,19.841Z" style="fill:url(#linear-gradient-12)"/><path d="M50.675,25H50v1h.675A3.484,3.484,0,0,0,54,22.385a3.862,3.862,0,0,0-.041-.562A3.431,3.431,0,0,1,50.675,25Z" style="fill:url(#linear-gradient-13)"/><rect x="45" y="25" width="3" height="1" style="fill:url(#linear-gradient-14)"/><circle cx="15" cy="18" r="13" style="fill:url(#linear-gradient-15)"/><path d="M15,5A13,13,0,1,0,28,18,13,13,0,0,0,15,5Zm0,25A12,12,0,1,1,27,18,12,12,0,0,1,15,30Z" style="fill:url(#linear-gradient-16)"/><path d="M17.762,17.968,12.94,16.159A1.625,1.625,0,0,1,12,14.615,1.493,1.493,0,0,1,13.325,13H19V11H16V9H14v2h-.675A3.484,3.484,0,0,0,10,14.615a3.606,3.606,0,0,0,2.238,3.417l4.822,1.809A1.625,1.625,0,0,1,18,21.385,1.493,1.493,0,0,1,16.675,23H11v2h3v2h2V25h.675A3.484,3.484,0,0,0,20,21.385,3.606,3.606,0,0,0,17.762,17.968Z" style="fill:#fff"/><path d="M12,14.615a1.9,1.9,0,0,0,.069.509A1.382,1.382,0,0,1,13.325,14H19V13H13.325A1.493,1.493,0,0,0,12,14.615Z" style="fill:url(#linear-gradient-17)"/><rect x="14" y="27" width="2" height="1" style="fill:url(#linear-gradient-18)"/><path d="M17.06,19.841l-4.822-1.809a3.55,3.55,0,0,1-2.2-2.855,3.712,3.712,0,0,0-.041.438,3.606,3.606,0,0,0,2.238,3.417l4.822,1.809a1.509,1.509,0,0,1,.871,1.035A1.921,1.921,0,0,0,18,21.385,1.625,1.625,0,0,0,17.06,19.841Z" style="fill:url(#linear-gradient-19)"/><path d="M16.675,25H16v1h.675A3.484,3.484,0,0,0,20,22.385a3.862,3.862,0,0,0-.041-.562A3.431,3.431,0,0,1,16.675,25Z" style="fill:url(#linear-gradient-20)"/><rect x="11" y="25" width="3" height="1" style="fill:url(#linear-gradient-21)"/><path d="M49,31A12.994,12.994,0,0,1,36.05,19c-.025.331-.05.662-.05,1a13,13,0,0,0,25.747,2.545c-.084-.3-.176-.61-.27-.919A13,13,0,0,1,49,31Z" style="fill:url(#linear-gradient-22)"/><path d="M15,33A13,13,0,0,0,28,20c0-.338-.026-.669-.051-1A12.988,12.988,0,0,1,2.523,21.626c-.1.309-.187.616-.271.919A13,13,0,0,0,15,33Z" style="fill:url(#linear-gradient-23)"/></g></svg>