<svg xmlns="http://www.w3.org/2000/svg" xmlns:xlink="http://www.w3.org/1999/xlink" viewBox="0 0 64 64"><defs><linearGradient id="linear-gradient" x1="32" y1="1.304" x2="32" y2="63.304" gradientUnits="userSpaceOnUse"><stop offset="0" stop-color="#56b000"/><stop offset="0.283" stop-color="#87ca45"/><stop offset="0.611" stop-color="#ffe100"/><stop offset="0.615" stop-color="#ffe000"/><stop offset="0.876" stop-color="#fba100"/><stop offset="1" stop-color="#f98900"/></linearGradient><radialGradient id="radial-gradient" cx="31.333" cy="29.429" r="18" gradientTransform="translate(-15 9.111) scale(1.5 0.778)" gradientUnits="userSpaceOnUse"><stop offset="0" stop-color="#56b000"/><stop offset="1" stop-color="#f0d94c" stop-opacity="0"/></radialGradient><linearGradient id="linear-gradient-2" x1="50.701" y1="26.469" x2="38.215" y2="27.752" gradientUnits="userSpaceOnUse"><stop offset="0" stop-color="#803f02"/><stop offset="0.174" stop-color="#6d3602"/><stop offset="0.515" stop-color="#4d2601"/><stop offset="0.802" stop-color="#3a1c01"/><stop offset="1" stop-color="#331901"/></linearGradient><linearGradient id="linear-gradient-3" x1="23.701" y1="26.469" x2="11.215" y2="27.752" gradientTransform="matrix(-1, 0, 0, 1, 37, 0)" xlink:href="#linear-gradient-2"/><radialGradient id="radial-gradient-2" cx="44.5" cy="15.5" r="6.5" gradientUnits="userSpaceOnUse"><stop offset="0.005" stop-color="#414d4d"/><stop offset="0.206" stop-color="#3a4545"/><stop offset="0.522" stop-color="#272e2e"/><stop offset="0.914" stop-color="#080909"/><stop offset="1"/></radialGradient><radialGradient id="radial-gradient-3" cx="19.5" cy="15.512" r="6.497" xlink:href="#radial-gradient-2"/><linearGradient id="linear-gradient-4" x1="32" y1="61.787" x2="32" y2="45.865" gradientUnits="userSpaceOnUse"><stop offset="0" stop-color="#fa9200" stop-opacity="0.1"/><stop offset="1" stop-color="#964200"/></linearGradient><linearGradient id="linear-gradient-5" x1="32" y1="53" x2="32" y2="37.303" gradientUnits="userSpaceOnUse"><stop offset="0" stop-color="#911625"/><stop offset="0.091" stop-color="#7e1320"/><stop offset="0.249" stop-color="#630f19"/><stop offset="0.41" stop-color="#4f0c14"/><stop offset="0.573" stop-color="#440b11"/><stop offset="0.742" stop-color="#400a10"/><stop offset="0.995" stop-color="#1f0507"/></linearGradient><radialGradient id="radial-gradient-4" cx="32.725" cy="56.05" r="32.61" gradientUnits="userSpaceOnUse"><stop offset="0" stop-color="#a0d93e"/><stop offset="0.056" stop-color="#8fc935"/><stop offset="0.158" stop-color="#75b328"/><stop offset="0.263" stop-color="#63a31f"/><stop offset="0.374" stop-color="#58991a"/><stop offset="0.5" stop-color="#559618"/><stop offset="1" stop-color="#5b9c20"/></radialGradient><radialGradient id="radial-gradient-5" cx="16.5" cy="58.044" r="11.507" gradientUnits="userSpaceOnUse"><stop offset="0" stop-color="#a0d93e"/><stop offset="0.027" stop-color="#95cd39"/><stop offset="0.113" stop-color="#77ad2b"/><stop offset="0.202" stop-color="#5f9320"/><stop offset="0.294" stop-color="#4e8118"/><stop offset="0.39" stop-color="#447614"/><stop offset="0.5" stop-color="#417312"/><stop offset="1" stop-color="#5b9c20"/></radialGradient><radialGradient id="radial-gradient-6" cx="47.5" cy="58.044" r="11.507" gradientUnits="userSpaceOnUse"><stop offset="0" stop-color="#3e6e11"/><stop offset="0.343" stop-color="#407111"/><stop offset="0.63" stop-color="#457c13"/><stop offset="0.895" stop-color="#4f8d16"/><stop offset="1" stop-color="#549617"/></radialGradient><linearGradient id="linear-gradient-6" x1="32" y1="42.582" x2="32" y2="62.204" gradientUnits="userSpaceOnUse"><stop offset="0" stop-color="#56b000"/><stop offset="0.109" stop-color="#7eca19"/><stop offset="0.215" stop-color="#9fde2d"/><stop offset="0.273" stop-color="#abe635"/><stop offset="1" stop-color="#66ae23"/></linearGradient><linearGradient id="linear-gradient-7" x1="31.953" y1="57.682" x2="31.953" y2="43.997" gradientUnits="userSpaceOnUse"><stop offset="0" stop-color="#9edc32" stop-opacity="0"/><stop offset="0.128" stop-color="#9fdc32" stop-opacity="0.012"/><stop offset="0.224" stop-color="#a1dd34" stop-opacity="0.051"/><stop offset="0.308" stop-color="#a6df37" stop-opacity="0.118"/><stop offset="0.387" stop-color="#ace13a" stop-opacity="0.211"/><stop offset="0.461" stop-color="#b4e43f" stop-opacity="0.332"/><stop offset="0.532" stop-color="#bde745" stop-opacity="0.48"/><stop offset="0.601" stop-color="#c9eb4c" stop-opacity="0.656"/><stop offset="0.665" stop-color="#d6f054" stop-opacity="0.855"/><stop offset="0.707" stop-color="#dff35a"/><stop offset="1" stop-color="#dff35a" stop-opacity="0"/></linearGradient></defs><g id="_30-Face_Vomiting" data-name="30-Face Vomiting"><path d="M32,63C4.3,63,.962,39,1,33V31C.962,25,4.3,1,32,1h0C59.7,1,63.038,25,63,31v2C63.038,39,59.7,63,32,63Z" style="fill:url(#linear-gradient)"/><ellipse cx="32" cy="32" rx="27" ry="14" style="fill:url(#radial-gradient)"/><path d="M12,21s1.484.5,3.467,1.238A33.267,33.267,0,0,0,12,22s5.17,1.724,9.112,3.572A30.789,30.789,0,0,0,14,32c.627-.418,1.266-.809,1.906-1.184A21.292,21.292,0,0,0,14,33a52.911,52.911,0,0,1,13-6,7.674,7.674,0,0,0-.723-.777C26.737,26.075,27,26,27,26,23,21,12,21,12,21Z" style="fill:#58a119"/><path d="M48.533,22.238C50.516,21.5,52,21,52,21s-11,0-15,5c0,0,.263.075.723.223A7.674,7.674,0,0,0,37,27a52.911,52.911,0,0,1,13,6,21.292,21.292,0,0,0-1.906-2.184c.64.375,1.279.766,1.906,1.184a30.789,30.789,0,0,0-7.112-6.428C46.83,23.724,52,22,52,22A33.267,33.267,0,0,0,48.533,22.238Z" style="fill:#58a119"/><path d="M50,32a52.911,52.911,0,0,0-13-6c4-5,15-5,15-5a94.17,94.17,0,0,0-10,4A32.31,32.31,0,0,1,50,32Z" style="fill:url(#linear-gradient-2)"/><path d="M14,32a52.911,52.911,0,0,1,13-6c-4-5-15-5-15-5a94.17,94.17,0,0,1,10,4A32.31,32.31,0,0,0,14,32Z" style="fill:url(#linear-gradient-3)"/><path d="M53,18a1,1,0,0,0-1-1c-13.264,0-13.979-3.885-14-4.039A1,1,0,0,0,36,13a2.372,2.372,0,0,0,.088.6A.993.993,0,0,0,36,14c0,.614.449,6,16,6a1,1,0,0,0,1-1,.977.977,0,0,0-.153-.5A.977.977,0,0,0,53,18Z" style="fill:#58a119"/><path d="M27.046,12.026a1.016,1.016,0,0,0-1.045.93C26,13,25.464,17,12,17a1,1,0,0,0-1,1,.977.977,0,0,0,.153.5A.977.977,0,0,0,11,19a1,1,0,0,0,1,1c15.551,0,16-5.386,16-6a.959.959,0,0,0-.09-.4A2.362,2.362,0,0,0,28,13,.98.98,0,0,0,27.046,12.026Z" style="fill:#58a119"/><path d="M52,19c-15.551,0-16-5.386-16-6a1,1,0,0,1,2-.039c.022.154.737,4.039,14,4.039a1,1,0,0,1,0,2ZM38,13h0Z" style="fill:url(#radial-gradient-2)"/><path d="M12,19a1,1,0,0,1,0-2c13.464,0,14-4,14-4.044a1.016,1.016,0,0,1,1.045-.93A.98.98,0,0,1,28,13C28,13.614,27.551,19,12,19Z" style="fill:url(#radial-gradient-3)"/><path d="M44,52H20a2,2,0,0,1-2-2v9.38A35.161,35.161,0,0,0,32,62a35.161,35.161,0,0,0,14-2.62V50A2,2,0,0,1,44,52Z" style="fill:url(#linear-gradient-4)"/><path d="M33,36H31A13,13,0,0,0,18,49v2a2,2,0,0,0,2,2H44a2,2,0,0,0,2-2V49A13,13,0,0,0,33,36Z" style="fill:#ebd915"/><path d="M31,37h2A13,13,0,0,1,46,50v1a2,2,0,0,1-2,2H20a2,2,0,0,1-2-2V50A13,13,0,0,1,31,37Z" style="fill:url(#linear-gradient-5)"/><path d="M61,59a2.006,2.006,0,0,1,2,2,2.015,2.015,0,0,1-2,2H3a2.006,2.006,0,0,1-2-2,1.955,1.955,0,0,1,.59-1.41A1.955,1.955,0,0,1,3,59h.12A2.881,2.881,0,0,0,6,56.12a3.252,3.252,0,0,1,.75-2.23,2.61,2.61,0,0,1,1.36-.79A3.568,3.568,0,0,1,9,53c4.15,0,7.69,2.69,9.85,4.24A1.993,1.993,0,0,0,22,55.61V50a10,10,0,0,1,20,0v5.61a1.993,1.993,0,0,0,3.15,1.63C47.31,55.69,50.85,53,55,53a3.935,3.935,0,0,1,.95.11A2.844,2.844,0,0,1,58,56.12,2.868,2.868,0,0,0,60.88,59Z" style="fill:url(#radial-gradient-4)"/><path d="M8.176,53.088c-.021.005-.045.007-.066.012a2.61,2.61,0,0,0-1.36.79A3.252,3.252,0,0,0,6,56.12,2.881,2.881,0,0,1,3.12,59H3a1.955,1.955,0,0,0-1.41.59A1.955,1.955,0,0,0,1,61a2.006,2.006,0,0,0,2,2H32C20.137,63,12.751,58.594,8.176,53.088Z" style="fill:url(#radial-gradient-5)"/><path d="M61,59h-.12A2.868,2.868,0,0,1,58,56.12a2.844,2.844,0,0,0-2.05-3.01c-.039-.01-.085-.014-.126-.023C51.249,58.593,43.864,63,32,63H61a2.015,2.015,0,0,0,2-2A2.006,2.006,0,0,0,61,59Z" style="fill:url(#radial-gradient-6)"/><path d="M58.552,60h-.483c-3.862,0,0-4-3.862-4-2.571,0-5.356,2.216-6.931,3.7A4.81,4.81,0,0,1,43.969,61h-.041A1.94,1.94,0,0,1,42,59.056V52.343a10.227,10.227,0,0,0-9.334-10.321A10,10,0,0,0,22,52v7.056A1.94,1.94,0,0,1,20.072,61h-.041a4.81,4.81,0,0,1-3.307-1.3c-1.575-1.481-4.36-3.7-6.931-3.7-3.862,0,0,4-3.862,4H5.448a1.5,1.5,0,0,0,0,3h53.1a1.5,1.5,0,0,0,0-3Z" style="fill:url(#linear-gradient-6)"/><path d="M32,44a8,8,0,0,0-8,8,21.164,21.164,0,0,0-.07,3.48,3.831,3.831,0,0,0,1.376,2.5A3.23,3.23,0,0,0,28.4,58.3a4.154,4.154,0,0,0,2.2-2.282c.294-.714.462-1.562,1.106-1.988a2.05,2.05,0,0,1,1.869-.051c.6.242,1.128.638,1.7.934a5.658,5.658,0,0,0,2.6.623,2.867,2.867,0,0,0,1.315-.3,1.246,1.246,0,0,0,.546-.465,3.167,3.167,0,0,0,.257-.62,2.612,2.612,0,0,0,.056-.684c0-.5-.016-1-.045-1.5a9.02,9.02,0,0,0-.641-3.111A8.008,8.008,0,0,0,32,44Z" style="fill:url(#linear-gradient-7)"/><circle cx="35" cy="60" r="1" style="fill:#68ab20"/><circle cx="53" cy="58" r="1" style="fill:#68ab20"/><circle cx="14" cy="61" r="1" style="fill:#5c9e14"/><circle cx="27" cy="52" r="1" style="fill:#88c224"/><circle cx="35" cy="47" r="1" style="fill:#88c224"/><circle cx="36" cy="54" r="2" style="fill:#68ab20"/><circle cx="27" cy="60" r="2" style="fill:#5c9e14"/></g></svg>